SplineFontDB: 3.0
FontName: Antonio-Regular
FullName: Antonio Regular
FamilyName: Antonio
Weight: Book
Copyright: Copyright (c) 2011-12, vernon adams (vern@newtypography.co.uk), with Reserved Font Names 'Antonio'
Version: 1
ItalicAngle: 0
UnderlinePosition: 0
UnderlineWidth: 0
Ascent: 1638
Descent: 410
sfntRevision: 0x00010000
LayerCount: 2
Layer: 0 1 "Back"  1
Layer: 1 1 "Fore"  0
XUID: [1021 913 -2060267417 9804827]
FSType: 0
OS2Version: 4
OS2_WeightWidthSlopeOnly: 0
OS2_UseTypoMetrics: 1
CreationTime: 1374907641
ModificationTime: 1375455793
PfmFamily: 17
TTFWeight: 400
TTFWidth: 1
LineGap: 0
VLineGap: 0
Panose: 2 0 5 3 0 0 0 0 0 0
OS2TypoAscent: 2382
OS2TypoAOffset: 0
OS2TypoDescent: -670
OS2TypoDOffset: 0
OS2TypoLinegap: 0
OS2WinAscent: 2382
OS2WinAOffset: 0
OS2WinDescent: 670
OS2WinDOffset: 0
HheadAscent: 2382
HheadAOffset: 0
HheadDescent: -670
HheadDOffset: 0
OS2SubXSize: 1331
OS2SubYSize: 1433
OS2SubXOff: 0
OS2SubYOff: 286
OS2SupXSize: 1331
OS2SupYSize: 1433
OS2SupXOff: 0
OS2SupYOff: 983
OS2StrikeYSize: 102
OS2StrikeYPos: 530
OS2Vendor: 'newt'
OS2CodePages: 20000093.00000000
OS2UnicodeRanges: a00000ef.5000204b.00000000.00000000
Lookup: 258 0 0 "'kern' Horizontal Kerning in Latin lookup 1"  {"'kern' Horizontal Kerning in Latin lookup 1 subtable"  } ['kern' ('DFLT' <'dflt' > 'latn' <'dflt' > ) ]
MarkAttachClasses: 1
DEI: 91125
KernClass2: 24 29 "'kern' Horizontal Kerning in Latin lookup 1 subtable" 
 89 A Agrave Aacute Acircumflex Atilde Adieresis Aring Amacron Abreve Aogonek uni0200 uni0202
 9 B uni1E02
 47 C Ccedilla Cacute Ccircumflex Cdotaccent Ccaron
 16 D Dcaron uni1E0A
 9 F uni1E1E
 52 G Gcircumflex Gbreve Gdotaccent Gcommaaccent uni01F4
 13 J Jcircumflex
 14 K Kcommaaccent
 28 L Lacute Lcommaaccent Lcaron
 89 O Ograve Oacute Ocircumflex Otilde Odieresis Omacron Obreve Ohungarumlaut uni020C uni020E
 9 P uni1E56
 44 R Racute Rcommaaccent Rcaron uni0210 uni0212
 1 V
 37 W Wcircumflex Wgrave Wacute Wdieresis
 37 Y Yacute Ycircumflex Ydieresis Ygrave

StartChar: .notdef
Encoding: 65536 -1 0
Width: 1024
Flags: W
LayerCount: 2
UndoRedoHistory
Layer: 1
Undoes
EndUndoes
Redoes
EndRedoes
EndUndoRedoHistory
Fore
SplineSet
625 1565 m 1,0,-1
 738 1565 l 1,1,-1
 738 196 l 1,2,-1
 644 196 l 1,3,-1
 402 1136 l 1,4,-1
 410 790 l 1,5,-1
 410 196 l 1,6,-1
 292 196 l 1,7,-1
 292 1565 l 1,8,-1
 388 1565 l 1,9,-1
 638 633 l 1,10,-1
 625 1029 l 1,11,-1
 625 1565 l 1,0,-1
820 102 m 1,12,-1
 820 1658 l 1,13,-1
 204 1658 l 1,14,-1
 204 102 l 1,15,-1
 820 102 l 1,12,-1
102 1760 m 1,16,-1
 922 1760 l 1,17,-1
 922 0 l 1,18,-1
 102 0 l 1,19,-1
 102 1760 l 1,16,-1
EndSplineSet
EndChar

StartChar: exclam
Encoding: 33 33 4
Width: 528
Flags: W
LayerCount: 2
UndoRedoHistory
Layer: 1
Undoes
EndUndoes
Redoes
EndRedoes
EndUndoRedoHistory
Fore
SplineSet
151 228 m 1,0,-1
 373 228 l 1,1,-1
 373 0 l 1,2,-1
 151 0 l 1,3,-1
 151 228 l 1,0,-1
146 1760 m 1,4,-1
 381 1760 l 1,5,-1
 306 395 l 1,6,-1
 222 395 l 1,7,-1
 146 1760 l 1,4,-1
EndSplineSet
EndChar

StartChar: quotedbl
Encoding: 34 34 5
Width: 744
Flags: W
LayerCount: 2
UndoRedoHistory
Layer: 1
Undoes
EndUndoes
Redoes
EndRedoes
EndUndoRedoHistory
Fore
SplineSet
161 1760 m 1,0,-1
 350 1760 l 1,1,-1
 231 1058 l 1,2,-1
 161 1058 l 1,3,-1
 161 1760 l 1,0,-1
488 1760 m 1,4,-1
 677 1760 l 1,5,-1
 558 1058 l 1,6,-1
 488 1058 l 1,7,-1
 488 1760 l 1,4,-1
EndSplineSet
EndChar

StartChar: numbersign
Encoding: 35 35 6
Width: 854
Flags: W
LayerCount: 2
UndoRedoHistory
Layer: 1
Undoes
EndUndoes
Redoes
EndRedoes
EndUndoRedoHistory
Fore
SplineSet
511 716 m 1,0,-1
 561 1075 l 1,1,-1
 392 1075 l 1,2,-1
 340 716 l 1,3,-1
 511 716 l 1,0,-1
657 1760 m 1,4,-1
 795 1760 l 1,5,-1
 713 1170 l 1,6,-1
 863 1170 l 1,7,-1
 863 1079 l 1,8,-1
 700 1079 l 1,9,-1
 649 717 l 1,10,-1
 827 717 l 1,11,-1
 827 626 l 1,12,-1
 638 626 l 1,13,-1
 551 0 l 1,14,-1
 413 0 l 1,15,-1
 498 626 l 1,16,-1
 330 626 l 1,17,-1
 245 0 l 1,18,-1
 107 0 l 1,19,-1
 193 626 l 1,20,-1
 38 626 l 1,21,-1
 38 717 l 1,22,-1
 204 717 l 1,23,-1
 255 1079 l 1,24,-1
 74 1079 l 1,25,-1
 74 1170 l 1,26,-1
 268 1170 l 1,27,-1
 351 1760 l 1,28,-1
 489 1760 l 1,29,-1
 405 1170 l 1,30,-1
 572 1170 l 1,31,-1
 657 1760 l 1,4,-1
EndSplineSet
EndChar

StartChar: dollar
Encoding: 36 36 7
Width: 804
Flags: W
LayerCount: 2
UndoRedoHistory
Layer: 1
Undoes
EndUndoes
Redoes
EndRedoes
EndUndoRedoHistory
Fore
SplineSet
745 354 m 0,0,1
 745 20 745 20 474 -8 c 1,2,-1
 474 -246 l 1,3,-1
 364 -246 l 1,4,-1
 364 -6 l 1,5,6
 246 10 246 10 173 103 c 128,-1,7
 100 196 100 196 100 424 c 2,8,-1
 100 537 l 1,9,-1
 299 537 l 1,10,-1
 299 425 l 2,11,12
 299 165 299 165 417 165 c 0,13,14
 482 165 482 165 510.5 207 c 128,-1,15
 539 249 539 249 539 353 c 0,16,17
 539 516 539 516 389 663 c 0,18,19
 378 674 378 674 337 712.5 c 128,-1,20
 296 751 296 751 283 764 c 0,21,22
 88 950 88 950 88 1175 c 0,23,24
 88 1490 88 1490 349 1524 c 1,25,-1
 349 1760 l 1,26,-1
 459 1760 l 1,27,-1
 459 1526 l 1,28,29
 532 1518 532 1518 582 1485 c 0,30,31
 720 1395 720 1395 720 1060 c 2,32,-1
 720 988 l 1,33,-1
 525 988 l 1,34,-1
 525 1092 l 2,35,36
 525 1223 525 1223 499.5 1287.5 c 128,-1,37
 474 1352 474 1352 412 1352 c 128,-1,38
 350 1352 350 1352 319 1313 c 128,-1,39
 288 1274 288 1274 288 1181 c 0,40,41
 288 1035 288 1035 425 899 c 1,42,-1
 533 798 l 1,43,44
 745 595 745 595 745 354 c 0,0,1
EndSplineSet
EndChar

StartChar: percent
Encoding: 37 37 8
Width: 2178
Flags: W
LayerCount: 2
UndoRedoHistory
Layer: 1
Undoes
EndUndoes
Redoes
EndRedoes
EndUndoRedoHistory
Fore
SplineSet
1815 832 m 2,0,1
 1815 940 1815 940 1789 980 c 128,-1,2
 1763 1020 1763 1020 1690 1020 c 128,-1,3
 1617 1020 1617 1020 1591 979.5 c 128,-1,4
 1565 939 1565 939 1565 832 c 2,5,-1
 1565 336 l 2,6,7
 1565 226 1565 226 1591.5 183.5 c 128,-1,8
 1618 141 1618 141 1690 141 c 128,-1,9
 1762 141 1762 141 1788.5 183.5 c 128,-1,10
 1815 226 1815 226 1815 336 c 2,11,-1
 1815 832 l 2,0,1
1379 763 m 2,12,13
 1379 997 1379 997 1447 1089 c 0,14,15
 1516 1181 1516 1181 1690 1181 c 128,-1,16
 1864 1181 1864 1181 1932 1089 c 128,-1,17
 2000 997 2000 997 2000 763 c 2,18,-1
 2000 408 l 2,19,20
 2000 170 2000 170 1931 75 c 128,-1,21
 1862 -20 1862 -20 1690 -20 c 128,-1,22
 1518 -20 1518 -20 1448.5 75 c 128,-1,23
 1379 170 1379 170 1379 408 c 2,24,-1
 1379 763 l 2,12,13
166 1364 m 2,25,26
 166 1598 166 1598 234 1690 c 128,-1,27
 302 1782 302 1782 476 1782 c 128,-1,28
 650 1782 650 1782 718.5 1690 c 128,-1,29
 787 1598 787 1598 787 1364 c 2,30,-1
 787 1009 l 2,31,32
 788 771 788 771 718 676 c 0,33,34
 648 581 648 581 476 581 c 128,-1,35
 304 581 304 581 235 676 c 128,-1,36
 166 771 166 771 166 1009 c 2,37,-1
 166 1364 l 2,25,26
601 1433 m 2,38,39
 601 1541 601 1541 575 1581 c 128,-1,40
 549 1621 549 1621 476 1621 c 128,-1,41
 403 1621 403 1621 377 1580.5 c 128,-1,42
 351 1540 351 1540 351 1433 c 2,43,-1
 351 937 l 2,44,45
 351 827 351 827 377.5 784.5 c 128,-1,46
 404 742 404 742 476 742 c 128,-1,47
 548 742 548 742 574.5 784.5 c 128,-1,48
 601 827 601 827 601 937 c 2,49,-1
 601 1433 l 2,38,39
1360 1760 m 1,50,-1
 1531 1760 l 1,51,-1
 831 0 l 1,52,-1
 652 0 l 1,53,-1
 1360 1760 l 1,50,-1
EndSplineSet
EndChar

StartChar: ampersand
Encoding: 38 38 9
Width: 958
Flags: W
LayerCount: 2
UndoRedoHistory
Layer: 1
Undoes
EndUndoes
Redoes
EndRedoes
EndUndoRedoHistory
Fore
SplineSet
464 1072 m 1,0,1
 599 1257 599 1257 599 1436 c 0,2,3
 599 1536 599 1536 577 1577 c 128,-1,4
 555 1618 555 1618 489 1618 c 0,5,6
 378 1618 378 1618 374 1481 c 0,7,8
 374 1465 374 1465 373 1432 c 1,9,10
 373 1331 373 1331 464 1072 c 1,0,1
408 770 m 1,11,12
 259 556 259 556 259 357 c 128,-1,13
 259 158 259 158 401 158 c 0,14,15
 457 158 457 158 493 203 c 128,-1,16
 529 248 529 248 579 354 c 1,17,-1
 408 770 l 1,11,12
266.5 1692 m 128,-1,19
 345 1782 345 1782 487.5 1782 c 128,-1,20
 630 1782 630 1782 696 1693 c 128,-1,21
 762 1604 762 1604 762 1451.5 c 128,-1,22
 762 1299 762 1299 700 1169 c 128,-1,23
 638 1039 638 1039 533 898 c 1,24,-1
 691 517 l 1,25,26
 773 680 773 680 863 797 c 1,27,-1
 950 651 l 1,28,29
 859 534 859 534 770 328 c 1,30,-1
 923 0 l 1,31,-1
 741 0 l 1,32,-1
 660 170 l 1,33,34
 606 76 606 76 541 28 c 128,-1,35
 476 -20 476 -20 357.5 -20 c 128,-1,36
 239 -20 239 -20 154 72 c 0,37,38
 69 162 69 162 69 342 c 128,-1,39
 69 522 69 522 144 660 c 128,-1,40
 219 798 219 798 333 937 c 1,41,42
 188 1307 188 1307 188 1434 c 0,43,18
 188 1602 188 1602 266.5 1692 c 128,-1,19
EndSplineSet
EndChar

StartChar: quotesingle
Encoding: 39 39 10
Width: 413
Flags: W
LayerCount: 2
UndoRedoHistory
Layer: 1
Undoes
EndUndoes
Redoes
EndRedoes
EndUndoRedoHistory
Fore
SplineSet
112 1760 m 1,0,-1
 309 1760 l 1,1,-1
 244 1125 l 1,2,-1
 172 1125 l 1,3,-1
 112 1760 l 1,0,-1
EndSplineSet
EndChar

StartChar: parenleft
Encoding: 40 40 11
Width: 560
Flags: W
LayerCount: 2
UndoRedoHistory
Layer: 1
Undoes
EndUndoes
Redoes
EndRedoes
EndUndoRedoHistory
Fore
SplineSet
134 1352 m 2,0,1
 134 1560 134 1560 176 1654 c 0,2,3
 218 1748 218 1748 339 1772 c 0,4,5
 393 1782 393 1782 478 1782 c 1,6,-1
 478 1627 l 1,7,8
 408 1627 408 1627 384 1609.5 c 128,-1,9
 360 1592 360 1592 350 1544 c 0,10,11
 340 1496 340 1496 339 1356 c 2,12,-1
 339 184 l 2,13,14
 340 -37 340 -37 374 -62 c 0,15,16
 408 -87 408 -87 478 -87 c 1,17,-1
 478 -242 l 1,18,19
 320 -242 320 -242 242 -196 c 0,20,21
 134 -131 134 -131 134 188 c 2,22,-1
 134 1352 l 2,0,1
EndSplineSet
EndChar

StartChar: parenright
Encoding: 41 41 12
Width: 560
Flags: W
LayerCount: 2
UndoRedoHistory
Layer: 1
Undoes
EndUndoes
Redoes
EndRedoes
EndUndoRedoHistory
Fore
SplineSet
426 1352 m 2,0,-1
 426 188 l 2,1,2
 426 -20 426 -20 384 -114 c 0,3,4
 342 -208 342 -208 221 -232 c 0,5,6
 167 -242 167 -242 82 -242 c 1,7,-1
 82 -87 l 1,8,9
 152 -87 152 -87 176 -69.5 c 128,-1,10
 200 -52 200 -52 210 -4 c 0,11,12
 220 44 220 44 221 184 c 2,13,-1
 221 1356 l 2,14,15
 220 1577 220 1577 186 1602 c 0,16,17
 152 1627 152 1627 82 1627 c 1,18,-1
 82 1782 l 1,19,20
 240 1782 240 1782 318 1736 c 1,21,22
 426 1670 426 1670 426 1352 c 2,0,-1
EndSplineSet
EndChar

StartChar: asterisk
Encoding: 42 42 13
Width: 874
Flags: W
LayerCount: 2
UndoRedoHistory
Layer: 1
Undoes
EndUndoes
Redoes
EndRedoes
EndUndoRedoHistory
Fore
SplineSet
357 1760 m 1,0,-1
 517 1760 l 1,1,-1
 493 1487 l 1,2,-1
 719 1659 l 1,3,-1
 800 1520 l 1,4,-1
 543 1394 l 1,5,-1
 800 1261 l 1,6,-1
 719 1121 l 1,7,-1
 493 1299 l 1,8,-1
 517 1021 l 1,9,-1
 357 1021 l 1,10,-1
 387 1304 l 1,11,-1
 160 1128 l 1,12,-1
 80 1268 l 1,13,-1
 330 1394 l 1,14,-1
 74 1513 l 1,15,-1
 155 1652 l 1,16,-1
 386 1484 l 1,17,-1
 357 1760 l 1,0,-1
EndSplineSet
EndChar

StartChar: plus
Encoding: 43 43 14
Width: 680
Flags: W
LayerCount: 2
UndoRedoHistory
Layer: 1
Undoes
EndUndoes
Redoes
EndRedoes
EndUndoRedoHistory
Fore
SplineSet
264 1137 m 1,0,-1
 413 1137 l 1,1,-1
 413 891 l 1,2,-1
 640 891 l 1,3,-1
 640 751 l 1,4,-1
 413 751 l 1,5,-1
 413 501 l 1,6,-1
 264 501 l 1,7,-1
 264 751 l 1,8,-1
 40 751 l 1,9,-1
 40 891 l 1,10,-1
 264 891 l 1,11,-1
 264 1137 l 1,0,-1
EndSplineSet
EndChar

StartChar: comma
Encoding: 44 44 15
Width: 462
Flags: W
LayerCount: 2
UndoRedoHistory
Layer: 1
Undoes
EndUndoes
Redoes
EndRedoes
EndUndoRedoHistory
Fore
SplineSet
119 235 m 1,0,-1
 377 235 l 1,1,-1
 377 9 l 1,2,-1
 276 -344 l 1,3,-1
 170 -344 l 1,4,-1
 243 0 l 1,5,-1
 119 0 l 1,6,-1
 119 235 l 1,0,-1
EndSplineSet
EndChar

StartChar: hyphen
Encoding: 45 45 16
Width: 696
Flags: W
LayerCount: 2
UndoRedoHistory
Layer: 1
Undoes
EndUndoes
Redoes
EndRedoes
EndUndoRedoHistory
Fore
SplineSet
88 908 m 1,0,-1
 540 908 l 1,1,-1
 540 763 l 1,2,-1
 88 763 l 1,3,-1
 88 908 l 1,0,-1
EndSplineSet
EndChar

StartChar: period
Encoding: 46 46 17
Width: 532
Flags: W
LayerCount: 2
UndoRedoHistory
Layer: 1
Undoes
EndUndoes
Redoes
EndRedoes
EndUndoRedoHistory
Fore
SplineSet
171 198 m 1,0,-1
 346 198 l 1,1,-1
 346 0 l 1,2,-1
 171 0 l 1,3,-1
 171 198 l 1,0,-1
EndSplineSet
EndChar

StartChar: slash
Encoding: 47 47 18
Width: 730
Flags: W
LayerCount: 2
UndoRedoHistory
Layer: 1
Undoes
EndUndoes
Redoes
EndRedoes
EndUndoRedoHistory
Fore
SplineSet
493 1768 m 1,0,-1
 676 1768 l 1,1,-1
 236 0 l 1,2,-1
 54 0 l 1,3,-1
 493 1768 l 1,0,-1
EndSplineSet
EndChar

StartChar: zero
Encoding: 48 48 19
Width: 854
Flags: W
LayerCount: 2
UndoRedoHistory
Layer: 1
Undoes
EndUndoes
Redoes
EndRedoes
EndUndoRedoHistory
Fore
SplineSet
534 1327 m 2,0,1
 534 1521 534 1521 513 1557 c 128,-1,2
 492 1593 492 1593 476.5 1599 c 128,-1,3
 461 1605 461 1605 433 1605 c 128,-1,4
 405 1605 405 1605 392 1602 c 0,5,6
 378 1598 378 1598 362 1584 c 0,7,8
 320 1547 320 1547 320 1328 c 2,9,-1
 320 470 l 2,10,11
 320 216 320 216 356 178 c 0,12,13
 372 162 372 162 386.5 158 c 128,-1,14
 401 154 401 154 432 154 c 128,-1,15
 463 154 463 154 479.5 161 c 128,-1,16
 496 168 496 168 515 208.5 c 128,-1,17
 534 249 534 249 534 470 c 2,18,-1
 534 1327 l 2,0,1
124 1316 m 2,19,20
 124 1545 124 1545 157 1628.5 c 128,-1,21
 190 1712 190 1712 254.5 1745.5 c 0,22,23
 351 1796 351 1796 402 1779 c 0,24,25
 408 1777 408 1777 413 1779 c 0,26,27
 437 1788 437 1788 526 1774 c 0,28,29
 564 1768 564 1768 598 1750 c 0,30,31
 664 1714 664 1714 690.5 1652.5 c 128,-1,32
 717 1591 717 1591 723.5 1509.5 c 128,-1,33
 730 1428 730 1428 730 1316 c 2,34,-1
 730 475 l 2,35,36
 730 184 730 184 684 99 c 128,-1,37
 638 14 638 14 546 -11 c 0,38,39
 493 -25 493 -25 439 -25 c 0,40,41
 399 -25 399 -25 359 -17 c 0,42,43
 263 1 263 1 203.5 58 c 128,-1,44
 144 115 144 115 132 266 c 1,45,46
 124 353 124 353 124 475 c 2,47,-1
 124 1316 l 2,19,20
EndSplineSet
EndChar

StartChar: one
Encoding: 49 49 20
Width: 854
Flags: W
LayerCount: 2
UndoRedoHistory
Layer: 1
Undoes
EndUndoes
Redoes
EndRedoes
EndUndoRedoHistory
Fore
SplineSet
453 1760 m 1,0,-1
 599 1760 l 1,1,-1
 599 0 l 1,2,-1
 393 0 l 1,3,-1
 393 1483 l 1,4,5
 359 1442 359 1442 271.5 1409.5 c 128,-1,6
 184 1377 184 1377 125 1377 c 1,7,-1
 125 1541 l 1,8,9
 257 1560 257 1560 367 1650 c 0,10,11
 427 1699 427 1699 453 1760 c 1,0,-1
EndSplineSet
EndChar

StartChar: two
Encoding: 50 50 21
Width: 854
Flags: W
LayerCount: 2
UndoRedoHistory
Layer: 1
Undoes
EndUndoes
Redoes
EndRedoes
EndUndoRedoHistory
Fore
SplineSet
162 1189 m 2,0,1
 162 1477 162 1477 198 1583 c 0,2,3
 234 1688 234 1688 304 1733.5 c 128,-1,4
 374 1779 374 1779 497 1779 c 0,5,6
 692 1779 692 1779 752 1586 c 0,7,8
 786 1477 786 1477 786 1318.5 c 0,9,10
 786 1162 786 1162 760.5 1057.5 c 128,-1,11
 735 953 735 953 676 846 c 2,12,-1
 516 558 l 2,13,14
 429 402 429 402 404 330.5 c 128,-1,15
 379 259 379 259 379 155 c 1,16,-1
 759 155 l 1,17,-1
 759 0 l 1,18,-1
 174 0 l 1,19,-1
 174 98 l 2,20,21
 174 246 174 246 212 363.5 c 128,-1,22
 250 481 250 481 354 665 c 2,23,-1
 516 952 l 1,24,25
 590 1092 590 1092 590 1318 c 128,-1,26
 590 1544 590 1544 548 1584 c 0,27,28
 526 1604 526 1604 482 1604 c 128,-1,29
 438 1604 438 1604 414 1583 c 0,30,31
 364 1539 364 1539 364 1294 c 2,32,-1
 364 1065 l 1,33,-1
 162 1065 l 1,34,-1
 162 1189 l 2,0,1
EndSplineSet
EndChar

StartChar: three
Encoding: 51 51 22
Width: 854
Flags: W
LayerCount: 2
UndoRedoHistory
Layer: 1
Undoes
EndUndoes
Redoes
EndRedoes
EndUndoRedoHistory
Fore
SplineSet
590 927 m 1,0,1
 772 844 772 844 772 485 c 0,2,3
 772 226 772 226 692.5 103 c 128,-1,4
 613 -20 613 -20 432.5 -20 c 128,-1,5
 252 -20 252 -20 180 94 c 128,-1,6
 108 208 108 208 108 464 c 2,7,-1
 108 552 l 1,8,-1
 303 552 l 1,9,-1
 303 471 l 2,10,11
 303 284 303 284 327 219.5 c 128,-1,12
 351 155 351 155 433.5 155 c 128,-1,13
 516 155 516 155 541.5 226.5 c 128,-1,14
 567 298 567 298 567 493.5 c 128,-1,15
 567 689 567 689 530.5 765 c 128,-1,16
 494 841 494 841 393 841 c 2,17,-1
 344 841 l 1,18,-1
 344 1006 l 1,19,-1
 391 1006 l 2,20,21
 460 1006 460 1006 496 1031 c 0,22,23
 565 1079 565 1079 565 1312 c 0,24,25
 565 1538 565 1538 506 1584 c 0,26,27
 480 1604 480 1604 424.5 1604 c 128,-1,28
 369 1604 369 1604 339.5 1541.5 c 128,-1,29
 310 1479 310 1479 310 1316 c 2,30,-1
 310 1274 l 1,31,-1
 112 1274 l 1,32,-1
 112 1329 l 2,33,34
 112 1566 112 1566 184.5 1672.5 c 128,-1,35
 257 1779 257 1779 434 1779 c 128,-1,36
 611 1779 611 1779 689.5 1666 c 128,-1,37
 768 1553 768 1553 768 1319 c 0,38,39
 768 993 768 993 590 927 c 1,0,1
EndSplineSet
EndChar

StartChar: four
Encoding: 52 52 23
Width: 854
Flags: W
LayerCount: 2
UndoRedoHistory
Layer: 1
Undoes
EndUndoes
Redoes
EndRedoes
EndUndoRedoHistory
Fore
SplineSet
497 496 m 1,0,-1
 497 1412 l 1,1,-1
 251 496 l 1,2,-1
 497 496 l 1,0,-1
472 1760 m 1,3,-1
 685 1760 l 1,4,-1
 685 496 l 1,5,-1
 830 496 l 1,6,-1
 830 332 l 1,7,-1
 685 332 l 1,8,-1
 685 0 l 1,9,-1
 497 0 l 1,10,-1
 497 332 l 1,11,-1
 81 332 l 1,12,-1
 81 477 l 1,13,-1
 472 1760 l 1,3,-1
EndSplineSet
EndChar

StartChar: five
Encoding: 53 53 24
Width: 854
Flags: W
LayerCount: 2
UndoRedoHistory
Layer: 1
Undoes
EndUndoes
Redoes
EndRedoes
EndUndoRedoHistory
Fore
SplineSet
350 1163 m 1,0,1
 386 1233 386 1233 524 1233 c 1,2,3
 525 1233 525 1233 526 1233 c 0,4,5
 595 1233 595 1233 647 1186 c 0,6,7
 756 1088 756 1088 756 668 c 0,8,9
 756 342 756 342 740 263 c 0,10,11
 726 184 726 184 710 138 c 0,12,13
 655 -20 655 -20 450 -20 c 0,14,15
 143 -20 143 -20 143 316 c 2,16,-1
 143 510 l 1,17,-1
 343 510 l 1,18,-1
 343 315 l 2,19,20
 343 239 343 239 366.5 196.5 c 128,-1,21
 390 154 390 154 448 154 c 128,-1,22
 506 154 506 154 531.5 196 c 128,-1,23
 557 238 557 238 557 326 c 2,24,-1
 557 851 l 2,25,26
 557 958 557 958 534.5 1008 c 128,-1,27
 512 1058 512 1058 456 1058 c 0,28,29
 340 1058 340 1058 339 871 c 1,30,-1
 161 887 l 1,31,-1
 161 1760 l 1,32,-1
 714 1760 l 1,33,-1
 714 1574 l 1,34,-1
 350 1574 l 1,35,-1
 350 1163 l 1,0,1
EndSplineSet
EndChar

StartChar: six
Encoding: 54 54 25
Width: 854
Flags: W
LayerCount: 2
UndoRedoHistory
Layer: 1
Undoes
EndUndoes
Redoes
EndRedoes
EndUndoRedoHistory
Fore
SplineSet
321 1043 m 1,0,1
 383 1096 383 1096 470 1096 c 0,2,3
 624 1096 624 1096 692 1011 c 0,4,5
 724 970 724 970 749 877.5 c 128,-1,6
 774 785 774 785 774 565 c 2,7,-1
 774 507 l 2,8,9
 774 270 774 270 741 170 c 0,10,11
 678 -22 678 -22 476 -22 c 0,12,13
 475 -22 475 -22 474 -22 c 0,14,15
 297 -22 297 -22 217 66 c 0,16,17
 180 106 180 106 152 196 c 128,-1,18
 124 286 124 286 124 494 c 2,19,-1
 124 1234 l 2,20,21
 124 1523 124 1523 190.5 1651 c 128,-1,22
 257 1779 257 1779 435.5 1779 c 128,-1,23
 614 1779 614 1779 681 1678 c 128,-1,24
 748 1577 748 1577 748 1329 c 2,25,-1
 748 1246 l 1,26,-1
 564 1246 l 1,27,-1
 564 1299 l 2,28,29
 564 1437.5 564 1437.5 553 1500 c 128,-1,30
 542 1562.5 542 1562.5 516.5 1583.25 c 128,-1,31
 491 1604 491 1604 441.5 1604 c 128,-1,32
 392 1604 392 1604 368 1587 c 0,33,34
 320 1553 320 1553 321 1348 c 2,35,-1
 321 1043 l 1,0,1
321 460 m 2,36,37
 321 292 321 292 348.5 224.5 c 128,-1,38
 376 157 376 157 457 157 c 128,-1,39
 538 157 538 157 562 218.5 c 128,-1,40
 586 280 586 280 586 451 c 2,41,-1
 586 582 l 2,42,43
 586 794 586 794 572 836 c 128,-1,44
 558 878 558 878 538 905 c 128,-1,45
 518 932 518 932 456 932 c 128,-1,46
 394 932 394 932 340 896 c 1,47,-1
 321 885 l 1,48,-1
 321 460 l 2,36,37
EndSplineSet
EndChar

StartChar: seven
Encoding: 55 55 26
Width: 854
Flags: W
LayerCount: 2
UndoRedoHistory
Layer: 1
Undoes
EndUndoes
Redoes
EndRedoes
EndUndoRedoHistory
Fore
SplineSet
84 1760 m 1,0,-1
 786 1760 l 1,1,-1
 786 1611 l 1,2,3
 784 1597 784 1597 728 1436 c 0,4,5
 471 701 471 701 428 0 c 1,6,-1
 207 0 l 1,7,8
 248 547 248 547 447 1183 c 1,9,10
 509 1391 509 1391 547 1488.5 c 128,-1,11
 585 1586 585 1586 585 1587 c 1,12,-1
 84 1587 l 1,13,-1
 84 1760 l 1,0,-1
EndSplineSet
EndChar

StartChar: eight
Encoding: 56 56 27
Width: 854
Flags: W
LayerCount: 2
UndoRedoHistory
Layer: 1
Undoes
EndUndoes
Redoes
EndRedoes
EndUndoRedoHistory
Fore
SplineSet
543 1132.5 m 128,-1,1
 561 1208 561 1208 561 1318.5 c 128,-1,2
 561 1429 561 1429 553.5 1485.5 c 128,-1,3
 546 1542 546 1542 528 1570 c 128,-1,4
 510 1598 510 1598 489 1606 c 128,-1,5
 468 1614 468 1614 427 1614 c 128,-1,6
 386 1614 386 1614 360 1596 c 0,7,8
 304 1556 304 1556 303 1322 c 0,9,10
 303 1318 303 1318 303 1314 c 0,11,12
 303 1087 303 1087 362 1032 c 0,13,14
 388 1007 388 1007 429.5 1007 c 128,-1,15
 471 1007 471 1007 498 1032 c 128,-1,0
 525 1057 525 1057 543 1132.5 c 128,-1,1
556 507 m 2,16,17
 556 863 556 863 433 863 c 0,18,19
 373 863 373 863 336 772.5 c 128,-1,20
 299 682 299 682 299 504 c 2,21,-1
 299 435 l 2,22,23
 299 271 299 271 324 212.5 c 128,-1,24
 349 154 349 154 422.5 154 c 128,-1,25
 496 154 496 154 523 188 c 128,-1,26
 550 222 550 222 553 294.5 c 128,-1,27
 556 367 556 367 556 440 c 2,28,-1
 556 507 l 2,16,17
105 1344 m 0,29,30
 105 1577 105 1577 178.5 1678 c 128,-1,31
 252 1779 252 1779 433.5 1779 c 128,-1,32
 615 1779 615 1779 687 1679 c 128,-1,33
 759 1579 759 1579 759 1344 c 0,34,35
 759 1193 759 1193 728.5 1095 c 128,-1,36
 698 997 698 997 624 946 c 1,37,38
 689 898 689 898 725.5 770.5 c 128,-1,39
 762 643 762 643 762 494 c 2,40,-1
 762 424 l 2,41,42
 762 191 762 191 685 85.5 c 128,-1,43
 608 -20 608 -20 432.5 -20 c 128,-1,44
 257 -20 257 -20 176.5 84.5 c 128,-1,45
 96 189 96 189 93 417 c 2,46,-1
 92 494 l 1,47,-1
 92 507 l 2,48,49
 92 646 92 646 133 770.5 c 128,-1,50
 174 895 174 895 244 943 c 1,51,52
 105 1042 105 1042 105 1344 c 0,29,30
EndSplineSet
EndChar

StartChar: nine
Encoding: 57 57 28
Width: 854
Flags: W
LayerCount: 2
UndoRedoHistory
Layer: 1
Undoes
EndUndoes
Redoes
EndRedoes
EndUndoRedoHistory
Fore
SplineSet
555 1298 m 2,0,1
 555 1468 555 1468 529.5 1534.5 c 128,-1,2
 504 1601 504 1601 422.5 1601 c 128,-1,3
 341 1601 341 1601 315.5 1538.5 c 128,-1,4
 290 1476 290 1476 290 1307 c 2,5,-1
 290 1176 l 2,6,7
 290 964 290 964 304 922 c 128,-1,8
 318 880 318 880 338 853 c 128,-1,9
 358 826 358 826 420 826 c 128,-1,10
 482 826 482 826 536 862 c 1,11,-1
 555 873 l 1,12,-1
 555 1298 l 2,0,1
103 1251 m 1,13,14
 104 1488 104 1488 137 1588 c 0,15,16
 250 1930 250 1930 401 1779 c 0,17,18
 402 1778 402 1778 403 1779 c 0,19,20
 496 1872 496 1872 660 1692 c 0,21,22
 697 1651 697 1651 725 1562 c 0,23,24
 753 1472 753 1472 753 1264 c 2,25,-1
 753 524 l 1,26,27
 752 235 752 235 685.5 107 c 128,-1,28
 619 -21 619 -21 441 -21 c 128,-1,29
 263 -21 263 -21 196 80 c 128,-1,30
 129 181 129 181 129 429 c 2,31,-1
 129 512 l 1,32,-1
 313 512 l 1,33,-1
 313 459 l 2,34,35
 313 320 313 320 324 257.5 c 128,-1,36
 335 195 335 195 360.5 174.5 c 128,-1,37
 386 154 386 154 435 154 c 128,-1,38
 484 154 484 154 508 170 c 0,39,40
 556 202 556 202 555 407 c 2,41,-1
 555 715 l 1,42,43
 492 662 492 662 406 662 c 0,44,45
 254 662 254 662 185 747 c 0,46,47
 152 788 152 788 127 880 c 0,48,49
 103 969 103 969 103 1176 c 0,50,51
 103 1184 103 1184 103 1193 c 1,52,-1
 103 1251 l 1,13,14
EndSplineSet
EndChar

StartChar: colon
Encoding: 58 58 29
Width: 489
Flags: W
LayerCount: 2
UndoRedoHistory
Layer: 1
Undoes
EndUndoes
Redoes
EndRedoes
EndUndoRedoHistory
Fore
SplineSet
132 530 m 1,0,-1
 357 530 l 1,1,-1
 357 270 l 1,2,-1
 132 270 l 1,3,-1
 132 530 l 1,0,-1
132 1307 m 1,4,-1
 357 1307 l 1,5,-1
 357 1047 l 1,6,-1
 132 1047 l 1,7,-1
 132 1307 l 1,4,-1
EndSplineSet
EndChar

StartChar: semicolon
Encoding: 59 59 30
Width: 561
Flags: W
LayerCount: 2
UndoRedoHistory
Layer: 1
Undoes
EndUndoes
Redoes
EndRedoes
EndUndoRedoHistory
Fore
SplineSet
202 1234 m 1,0,-1
 424 1234 l 1,1,-1
 424 954 l 1,2,-1
 202 954 l 1,3,-1
 202 1234 l 1,0,-1
202 534 m 1,4,-1
 428 534 l 1,5,-1
 428 291 l 1,6,-1
 314 -103 l 1,7,-1
 190 -103 l 1,8,-1
 276 282 l 1,9,-1
 202 282 l 1,10,-1
 202 534 l 1,4,-1
EndSplineSet
EndChar

StartChar: less
Encoding: 60 60 31
Width: 730
Flags: W
LayerCount: 2
UndoRedoHistory
Layer: 1
Undoes
EndUndoes
Redoes
EndRedoes
EndUndoRedoHistory
Fore
SplineSet
64 860 m 1,0,-1
 640 1241 l 1,1,-1
 640 1021 l 1,2,-1
 207 755 l 1,3,-1
 640 478 l 1,4,-1
 640 264 l 1,5,-1
 64 649 l 1,6,-1
 64 860 l 1,0,-1
EndSplineSet
EndChar

StartChar: equal
Encoding: 61 61 32
Width: 722
Flags: W
LayerCount: 2
UndoRedoHistory
Layer: 1
Undoes
EndUndoes
Redoes
EndRedoes
EndUndoRedoHistory
Fore
SplineSet
84 1050 m 1,0,-1
 668 1050 l 1,1,-1
 668 892 l 1,2,-1
 84 892 l 1,3,-1
 84 1050 l 1,0,-1
84 735 m 1,4,-1
 668 735 l 1,5,-1
 668 576 l 1,6,-1
 84 576 l 1,7,-1
 84 735 l 1,4,-1
EndSplineSet
EndChar

StartChar: greater
Encoding: 62 62 33
Width: 730
Flags: W
LayerCount: 2
UndoRedoHistory
Layer: 1
Undoes
EndUndoes
Redoes
EndRedoes
EndUndoRedoHistory
Fore
SplineSet
87 1027 m 1,0,-1
 87 1241 l 1,1,-1
 663 857 l 1,2,-1
 663 646 l 1,3,-1
 87 264 l 1,4,-1
 87 484 l 1,5,-1
 520 749 l 1,6,-1
 87 1027 l 1,0,-1
EndSplineSet
EndChar

StartChar: question
Encoding: 63 63 34
Width: 854
Flags: W
LayerCount: 2
UndoRedoHistory
Layer: 1
Undoes
EndUndoes
Redoes
EndRedoes
EndUndoRedoHistory
Fore
SplineSet
261 299 m 1,0,-1
 438 299 l 1,1,-1
 438 0 l 1,2,-1
 261 0 l 1,3,-1
 261 299 l 1,0,-1
159 1370 m 2,4,5
 158 1529 158 1529 178 1585 c 0,6,7
 215 1692 215 1692 276 1737 c 128,-1,8
 337 1782 337 1782 446 1782 c 0,9,10
 614 1782 614 1782 674 1685 c 0,11,12
 715 1617 715 1617 725 1524 c 128,-1,13
 735 1431 735 1431 735 1310.5 c 128,-1,14
 735 1190 735 1190 727 1112 c 0,15,16
 709 938 709 938 643 848 c 128,-1,17
 577 758 577 758 437 718 c 1,18,-1
 437 494 l 1,19,-1
 258 494 l 1,20,-1
 258 810 l 1,21,22
 345 836 345 836 379.5 860 c 128,-1,23
 414 884 414 884 433.5 899.5 c 128,-1,24
 453 915 453 915 468 941 c 0,25,26
 521 1033 521 1033 526 1192 c 0,27,28
 528 1262 528 1262 528 1388 c 128,-1,29
 528 1514 528 1514 516 1559 c 128,-1,30
 504 1604 504 1604 446.5 1604 c 128,-1,31
 389 1604 389 1604 375.5 1557 c 128,-1,32
 362 1510 362 1510 362 1356 c 2,33,-1
 362 1160 l 1,34,-1
 159 1160 l 1,35,-1
 159 1370 l 2,4,5
EndSplineSet
EndChar

StartChar: at
Encoding: 64 64 35
Width: 1522
Flags: W
LayerCount: 2
UndoRedoHistory
Layer: 1
Undoes
EndUndoes
Redoes
EndRedoes
EndUndoRedoHistory
Fore
SplineSet
930 718 m 2,0,-1
 930 1242 l 1,1,2
 872 1266 872 1266 843 1266 c 0,3,4
 758 1266 758 1266 713 1228 c 0,5,6
 596 1131 596 1131 596 824 c 0,7,8
 596 630 596 630 634 538 c 0,9,10
 670 446 670 446 749 446.5 c 128,-1,11
 828 447 828 447 879 526.5 c 128,-1,12
 930 606 930 606 930 718 c 2,0,-1
1279 33 m 1,13,14
 1016 -55 1016 -55 831 -54.25 c 128,-1,15
 646 -53.5 646 -53.5 519 0 c 128,-1,16
 392 53.5 392 53.5 301 170 c 0,17,18
 124 397 124 397 124 835 c 0,19,20
 124 1271 124 1271 288.5 1525 c 128,-1,21
 453 1779 453 1779 823 1779 c 0,22,23
 1256 1779 1256 1779 1364 1270 c 0,24,25
 1398 1110 1398 1110 1398 952 c 0,26,27
 1398 792 1398 792 1383 691 c 128,-1,28
 1368 590 1368 590 1338.5 509.5 c 128,-1,29
 1309 429 1309 429 1258.5 383 c 128,-1,30
 1208 337 1208 337 1144.5 337 c 128,-1,31
 1081 337 1081 337 1029 399.5 c 128,-1,32
 977 462 977 462 958 550 c 1,33,34
 939 446 939 446 881.5 383 c 128,-1,35
 824 320 824 320 748 320 c 0,36,37
 614 320 614 320 533.5 443.5 c 128,-1,38
 453 567 453 567 453 809 c 0,39,40
 453 1161 453 1161 608 1306 c 0,41,42
 690 1383 690 1383 814 1383 c 0,43,44
 927 1383 927 1383 1074 1320 c 1,45,-1
 1074 672 l 2,46,47
 1074 573 1074 573 1091 525 c 128,-1,48
 1108 477 1108 477 1149 477 c 0,49,50
 1203 477 1203 477 1226 590.5 c 128,-1,51
 1249 704 1249 704 1249 863 c 0,52,53
 1248 1110 1248 1110 1228 1230 c 0,54,55
 1188 1465 1188 1465 1064 1559 c 0,56,57
 964 1636 964 1636 830 1636 c 128,-1,58
 696 1636 696 1636 608 1598 c 0,59,60
 441 1526 441 1526 366.5 1330.5 c 128,-1,61
 292 1135 292 1135 291 833 c 1,62,63
 291 84 291 84 823 84 c 0,64,65
 1006 84 1006 84 1256 172 c 1,66,-1
 1279 33 l 1,13,14
EndSplineSet
EndChar

StartChar: A
Encoding: 65 65 36
Width: 907
Flags: W
LayerCount: 2
UndoRedoHistory
Layer: 1
Undoes
EndUndoes
Redoes
EndRedoes
EndUndoRedoHistory
Fore
SplineSet
316 504 m 1,0,-1
 586 504 l 1,1,-1
 447 1434 l 1,2,-1
 444 1434 l 1,3,-1
 316 504 l 1,0,-1
317 1760 m 1,4,-1
 566 1760 l 1,5,-1
 857 0 l 1,6,-1
 662 0 l 1,7,-1
 612 336 l 1,8,-1
 293 336 l 1,9,-1
 247 0 l 1,10,-1
 50 0 l 1,11,-1
 317 1760 l 1,4,-1
EndSplineSet
EndChar

StartChar: B
Encoding: 66 66 37
Width: 917
Flags: W
LayerCount: 2
UndoRedoHistory
Layer: 1
Undoes
EndUndoes
Redoes
EndRedoes
EndUndoRedoHistory
Fore
SplineSet
601 1361 m 1,0,1
 601 1364 601 1364 601 1367 c 0,2,3
 601 1543 601 1543 540 1575 c 0,4,5
 510 1591 510 1591 453 1591 c 2,6,-1
 351 1591 l 1,7,-1
 351 1025 l 1,8,-1
 468 1025 l 2,9,10
 528 1025 528 1025 553.5 1044.5 c 128,-1,11
 579 1064 579 1064 590 1122 c 128,-1,12
 601 1180 601 1180 601 1312 c 2,13,-1
 601 1361 l 1,0,1
627 560 m 2,14,15
 627 730 627 730 599 798 c 128,-1,16
 571 866 571 866 489 866 c 2,17,-1
 351 866 l 1,18,-1
 351 167 l 1,19,-1
 478 167 l 2,20,21
 566 167 566 167 596.5 236 c 128,-1,22
 627 305 627 305 627 499 c 2,23,-1
 627 560 l 2,14,15
144 1760 m 1,24,-1
 462 1760 l 2,25,26
 661 1760 661 1760 732.5 1669.5 c 128,-1,27
 804 1579 804 1579 806 1364 c 1,28,-1
 806 1326 l 2,29,30
 806 1171 806 1171 777 1082 c 128,-1,31
 748 993 748 993 673 953 c 1,32,33
 835 887 835 887 835 530 c 2,34,-1
 835 493 l 1,35,36
 832 229 832 229 755 114.5 c 128,-1,37
 678 0 678 0 488 0 c 2,38,-1
 144 0 l 1,39,-1
 144 1760 l 1,24,-1
EndSplineSet
EndChar

StartChar: C
Encoding: 67 67 38
Width: 918
Flags: W
LayerCount: 2
UndoRedoHistory
Layer: 1
Undoes
EndUndoes
Redoes
EndRedoes
EndUndoRedoHistory
Fore
SplineSet
124 1252 m 2,0,1
 124 1452 124 1452 157 1546 c 0,2,3
 190 1641 190 1641 229 1684 c 0,4,5
 314 1778 314 1778 477 1779 c 1,6,7
 705 1778 705 1778 771 1580 c 0,8,9
 809 1466 809 1466 809 1274 c 2,10,-1
 809 1079 l 1,11,-1
 606 1079 l 1,12,-1
 606 1275 l 2,13,14
 606 1444 606 1444 587.5 1503.5 c 128,-1,15
 569 1563 569 1563 543 1582.5 c 128,-1,16
 517 1602 517 1602 477 1602 c 0,17,18
 394 1602 394 1602 362.5 1523.5 c 128,-1,19
 331 1445 331 1445 331 1276 c 2,20,-1
 331 514 l 2,21,22
 331 314 331 314 359.5 234.5 c 128,-1,23
 388 155 388 155 469.5 155 c 128,-1,24
 551 155 551 155 578.5 235 c 128,-1,25
 606 315 606 315 606 515 c 2,26,-1
 606 710 l 1,27,-1
 811 710 l 1,28,-1
 811 517 l 2,29,30
 811 240 811 240 735.5 109.5 c 128,-1,31
 660 -21 660 -21 472 -21 c 128,-1,32
 284 -21 284 -21 204 113.5 c 128,-1,33
 124 248 124 248 124 519 c 2,34,-1
 124 1252 l 2,0,1
EndSplineSet
EndChar

StartChar: D
Encoding: 68 68 39
Width: 954
Flags: W
LayerCount: 2
UndoRedoHistory
Layer: 1
Undoes
EndUndoes
Redoes
EndRedoes
EndUndoRedoHistory
Fore
SplineSet
623 1287 m 2,0,1
 623 1452 623 1452 584 1524 c 128,-1,2
 545 1596 545 1596 456 1596 c 2,3,-1
 350 1596 l 1,4,-1
 350 167 l 1,5,-1
 456 167 l 2,6,7
 516 167 516 167 550 191 c 0,8,9
 623 243 623 243 623 477 c 2,10,-1
 623 1287 l 2,0,1
144 1760 m 1,11,-1
 475 1760 l 2,12,13
 678 1760 678 1760 754 1636 c 0,14,15
 829 1514 829 1514 829 1288 c 0,16,17
 829 1285 829 1285 829 1282 c 1,18,-1
 830 509 l 2,19,20
 830 238 830 238 747 119 c 128,-1,21
 664 0 664 0 468 0 c 2,22,-1
 144 0 l 1,23,-1
 144 1760 l 1,11,-1
EndSplineSet
EndChar

StartChar: E
Encoding: 69 69 40
Width: 755
Flags: W
LayerCount: 2
UndoRedoHistory
Layer: 1
Undoes
EndUndoes
Redoes
EndRedoes
EndUndoRedoHistory
Fore
SplineSet
144 1760 m 1,0,-1
 670 1760 l 1,1,-1
 670 1588 l 1,2,-1
 351 1588 l 1,3,-1
 351 986 l 1,4,-1
 653 986 l 1,5,-1
 653 814 l 1,6,-1
 351 814 l 1,7,-1
 351 172 l 1,8,-1
 674 172 l 1,9,-1
 674 0 l 1,10,-1
 144 0 l 1,11,-1
 144 1760 l 1,0,-1
EndSplineSet
EndChar

StartChar: F
Encoding: 70 70 41
Width: 747
Flags: W
LayerCount: 2
UndoRedoHistory
Layer: 1
Undoes
EndUndoes
Redoes
EndRedoes
EndUndoRedoHistory
Fore
SplineSet
144 1760 m 1,0,-1
 674 1760 l 1,1,-1
 674 1587 l 1,2,-1
 350 1587 l 1,3,-1
 350 1031 l 1,4,-1
 654 1031 l 1,5,-1
 654 856 l 1,6,-1
 350 856 l 1,7,-1
 350 0 l 1,8,-1
 144 0 l 1,9,-1
 144 1760 l 1,0,-1
EndSplineSet
EndChar

StartChar: G
Encoding: 71 71 42
Width: 939
Flags: W
LayerCount: 2
UndoRedoHistory
Layer: 1
Undoes
EndUndoes
Redoes
EndRedoes
EndUndoRedoHistory
Fore
SplineSet
124 1262 m 2,0,1
 124 1655 124 1655 308 1744 c 0,2,3
 439 1807 439 1807 467 1779 c 0,4,5
 469 1777 469 1777 471 1779 c 0,6,7
 548 1856 548 1856 699 1713 c 0,8,9
 771 1645 771 1645 792 1531.5 c 0,10,11
 813 1419 813 1419 813 1258 c 2,12,-1
 813 1122 l 1,13,-1
 613 1122 l 1,14,-1
 613 1351 l 2,15,16
 613 1486 613 1486 585.5 1544 c 128,-1,17
 558 1602 558 1602 477.5 1602 c 128,-1,18
 397 1602 397 1602 364 1529 c 128,-1,19
 331 1456 331 1456 331 1271 c 2,20,-1
 331 531 l 2,21,22
 331 320 331 320 360 237.5 c 128,-1,23
 389 155 389 155 474.5 155 c 128,-1,24
 560 155 560 155 591.5 240 c 128,-1,25
 623 325 623 325 623 535 c 2,26,-1
 623 764 l 1,27,-1
 480 764 l 1,28,-1
 480 924 l 1,29,-1
 813 924 l 1,30,-1
 813 0 l 1,31,-1
 704 0 l 1,32,-1
 676 136 l 1,33,34
 617 -17 617 -17 450.5 -17 c 128,-1,35
 284 -17 284 -17 204 112.5 c 128,-1,36
 124 242 124 242 124 524 c 2,37,-1
 124 1262 l 2,0,1
EndSplineSet
EndChar

StartChar: H
Encoding: 72 72 43
Width: 984
Flags: W
LayerCount: 2
UndoRedoHistory
Layer: 1
Undoes
EndUndoes
Redoes
EndRedoes
EndUndoRedoHistory
Fore
SplineSet
633 1760 m 1,0,-1
 840 1760 l 1,1,-1
 840 0 l 1,2,-1
 633 0 l 1,3,-1
 633 838 l 1,4,-1
 351 838 l 1,5,-1
 351 0 l 1,6,-1
 144 0 l 1,7,-1
 144 1760 l 1,8,-1
 351 1760 l 1,9,-1
 351 1007 l 1,10,-1
 633 1007 l 1,11,-1
 633 1760 l 1,0,-1
EndSplineSet
EndChar

StartChar: I
Encoding: 73 73 44
Width: 495
Flags: W
LayerCount: 2
UndoRedoHistory
Layer: 1
Undoes
EndUndoes
Redoes
EndRedoes
EndUndoRedoHistory
Fore
SplineSet
144 1760 m 1,0,-1
 351 1760 l 1,1,-1
 351 0 l 1,2,-1
 144 0 l 1,3,-1
 144 1760 l 1,0,-1
EndSplineSet
EndChar

StartChar: J
Encoding: 74 74 45
Width: 876
Flags: W
LayerCount: 2
UndoRedoHistory
Layer: 1
Undoes
EndUndoes
Redoes
EndRedoes
EndUndoRedoHistory
Fore
SplineSet
519 1760 m 1,0,-1
 726 1760 l 1,1,-1
 726 426 l 2,2,3
 726 -21 726 -21 412 -21 c 0,4,5
 246 -21 246 -21 168 80.5 c 128,-1,6
 90 182 90 182 90 389 c 2,7,-1
 90 619 l 1,8,-1
 292 619 l 1,9,-1
 292 402 l 2,10,11
 292 268 292 268 303.5 238 c 128,-1,12
 315 208 315 208 327.5 190 c 128,-1,13
 340 172 340 172 359.5 163.5 c 128,-1,14
 379 155 379 155 406 155 c 0,15,16
 463 155 463 155 486.5 192.5 c 128,-1,17
 510 230 510 230 514.5 284.5 c 128,-1,18
 519 339 519 339 519 418 c 2,19,-1
 519 1760 l 1,0,-1
EndSplineSet
EndChar

StartChar: K
Encoding: 75 75 46
Width: 909
Flags: W
LayerCount: 2
UndoRedoHistory
Layer: 1
Undoes
EndUndoes
Redoes
EndRedoes
EndUndoRedoHistory
Fore
SplineSet
664 1760 m 1,0,-1
 872 1760 l 1,1,-1
 544 891 l 1,2,-1
 895 0 l 1,3,-1
 679 0 l 1,4,-1
 353 842 l 1,5,-1
 353 0 l 1,6,-1
 144 0 l 1,7,-1
 144 1760 l 1,8,-1
 351 1760 l 1,9,-1
 351 921 l 1,10,-1
 664 1760 l 1,0,-1
EndSplineSet
EndChar

StartChar: L
Encoding: 76 76 47
Width: 695
Flags: W
LayerCount: 2
UndoRedoHistory
Layer: 1
Undoes
EndUndoes
Redoes
EndRedoes
EndUndoRedoHistory
Fore
SplineSet
144 1760 m 1,0,-1
 351 1760 l 1,1,-1
 351 171 l 1,2,-1
 676 171 l 1,3,-1
 676 0 l 1,4,-1
 144 0 l 1,5,-1
 144 1760 l 1,0,-1
EndSplineSet
EndChar

StartChar: M
Encoding: 77 77 48
Width: 1296
Flags: W
LayerCount: 2
UndoRedoHistory
Layer: 1
Undoes
EndUndoes
Redoes
EndRedoes
EndUndoRedoHistory
Fore
SplineSet
913 1760 m 1,0,-1
 1152 1760 l 1,1,-1
 1152 0 l 1,2,-1
 975 0 l 1,3,-1
 975 666 l 1,4,-1
 992 1324 l 1,5,-1
 727 0 l 1,6,-1
 579 0 l 1,7,-1
 303 1324 l 1,8,-1
 320 666 l 1,9,-1
 320 0 l 1,10,-1
 144 0 l 1,11,-1
 144 1760 l 1,12,-1
 382 1760 l 1,13,-1
 654 353 l 1,14,-1
 913 1760 l 1,0,-1
EndSplineSet
EndChar

StartChar: N
Encoding: 78 78 49
Width: 1014
Flags: W
LayerCount: 2
UndoRedoHistory
Layer: 1
Undoes
EndUndoes
Redoes
EndRedoes
EndUndoRedoHistory
Fore
SplineSet
687 1760 m 1,0,-1
 870 1760 l 1,1,-1
 870 0 l 1,2,-1
 718 0 l 1,3,-1
 323 1208 l 1,4,-1
 335 764 l 1,5,-1
 335 0 l 1,6,-1
 144 0 l 1,7,-1
 144 1760 l 1,8,-1
 300 1760 l 1,9,-1
 708 562 l 1,10,-1
 687 1071 l 1,11,-1
 687 1760 l 1,0,-1
EndSplineSet
EndChar

StartChar: O
Encoding: 79 79 50
Width: 944
Flags: W
LayerCount: 2
UndoRedoHistory
Layer: 1
Undoes
EndUndoes
Redoes
EndRedoes
EndUndoRedoHistory
Fore
SplineSet
613 1294 m 2,0,1
 613 1463 613 1463 586 1533.5 c 128,-1,2
 559 1604 559 1604 477 1604 c 128,-1,3
 395 1604 395 1604 363 1532 c 128,-1,4
 331 1460 331 1460 331 1295 c 2,5,-1
 331 504 l 2,6,7
 331 303 331 303 359 230.5 c 128,-1,8
 387 158 387 158 472 158 c 128,-1,9
 557 158 557 158 585 231.5 c 128,-1,10
 613 305 613 305 613 504 c 2,11,-1
 613 1294 l 2,0,1
124 1282 m 2,12,13
 124 1582 124 1582 232 1694 c 0,14,15
 317 1782 317 1782 479 1782 c 0,16,17
 715 1782 715 1782 781 1588 c 0,18,19
 820 1473 820 1473 820 1282 c 2,20,-1
 820 506 l 2,21,22
 820 231 820 231 743 105.5 c 128,-1,23
 666 -20 666 -20 473.5 -20 c 128,-1,24
 281 -20 281 -20 202.5 106 c 128,-1,25
 124 232 124 232 124 506 c 2,26,-1
 124 1282 l 2,12,13
EndSplineSet
EndChar

StartChar: P
Encoding: 80 80 51
Width: 894
Flags: W
LayerCount: 2
UndoRedoHistory
Layer: 1
Undoes
EndUndoes
Redoes
EndRedoes
EndUndoRedoHistory
Fore
SplineSet
623 1263 m 2,0,1
 623 1444 623 1444 594.5 1520 c 128,-1,2
 566 1596 566 1596 482 1596 c 2,3,-1
 351 1596 l 1,4,-1
 351 863 l 1,5,-1
 477 863 l 2,6,7
 565 863 565 863 594 940 c 128,-1,8
 623 1017 623 1017 623 1229 c 2,9,-1
 623 1263 l 2,0,1
144 1760 m 1,10,-1
 498 1760 l 2,11,12
 732 1760 732 1760 792 1566 c 0,13,14
 830 1444 830 1444 830 1281 c 128,-1,15
 830 1118 830 1118 821 1036 c 0,16,17
 801 856 801 856 726.5 774 c 128,-1,18
 652 692 652 692 498 691 c 1,19,-1
 351 691 l 1,20,-1
 351 0 l 1,21,-1
 144 0 l 1,22,-1
 144 1760 l 1,10,-1
EndSplineSet
EndChar

StartChar: Q
Encoding: 81 81 52
Width: 944
Flags: W
LayerCount: 2
UndoRedoHistory
Layer: 1
Undoes
EndUndoes
Redoes
EndRedoes
EndUndoRedoHistory
Fore
SplineSet
613 1294 m 2,0,-1
 613 504 l 2,1,2
 613 305 613 305 585 231.5 c 128,-1,3
 557 158 557 158 472 158 c 128,-1,4
 387 158 387 158 359 230.5 c 128,-1,5
 331 303 331 303 331 504 c 2,6,-1
 331 1295 l 2,7,8
 331 1460 331 1460 363 1532 c 128,-1,9
 395 1604 395 1604 477 1604 c 128,-1,10
 559 1604 559 1604 586 1533.5 c 128,-1,11
 613 1463 613 1463 613 1294 c 2,0,-1
124 1282 m 2,12,-1
 124 506 l 2,13,14
 124 232 124 232 199 112 c 128,-1,15
 274 -8 274 -8 437 -19 c 1,16,-1
 430 -11 l 1,17,-1
 569 56 l 1,18,-1
 615 0 l 1,19,20
 698 32 698 32 743 106 c 0,21,22
 820 233 820 233 820 506 c 2,23,-1
 820 1282 l 2,24,25
 820 1473 820 1473 781 1588 c 0,26,27
 715 1782 715 1782 479 1782 c 0,28,29
 317 1782 317 1782 232 1694 c 0,30,31
 124 1582 124 1582 124 1282 c 2,12,-1
437 -19 m 1,32,33
 455 -20 455 -20 505 -21 c 128,-1,34
 555 -22 555 -22 615 0 c 1,35,-1
 769 -176 l 1,36,-1
 667 -269 l 1,37,-1
 437 -19 l 1,32,33
EndSplineSet
EndChar

StartChar: R
Encoding: 82 82 53
Width: 939
Flags: W
LayerCount: 2
UndoRedoHistory
Layer: 1
Undoes
EndUndoes
Redoes
EndRedoes
EndUndoRedoHistory
Fore
SplineSet
623 1329 m 2,0,1
 622 1532 622 1532 586 1564 c 0,2,3
 550 1596 550 1596 481 1596 c 2,4,-1
 351 1596 l 1,5,-1
 351 1002 l 1,6,-1
 483 1002 l 2,7,8
 543 1002 543 1002 571 1025 c 128,-1,9
 599 1048 599 1048 611 1113 c 128,-1,10
 623 1178 623 1178 623 1317 c 2,11,-1
 623 1329 l 2,0,1
144 1760 m 1,12,-1
 513 1760 l 2,13,14
 670 1760 670 1760 738 1695 c 0,15,16
 806 1630 806 1630 822 1474 c 0,17,18
 828 1410 828 1410 828 1274.5 c 128,-1,19
 828 1139 828 1139 792.5 1047 c 128,-1,20
 757 955 757 955 667 928 c 1,21,22
 733 917 733 917 767 858.5 c 128,-1,23
 801 800 801 800 815 672.5 c 128,-1,24
 829 545 829 545 829 293.5 c 128,-1,25
 829 42 829 42 845 0 c 1,26,-1
 639 0 l 1,27,28
 623 32 623 32 623 593 c 0,29,30
 623 782 623 782 586 812 c 0,31,32
 549 842 549 842 474 843 c 1,33,-1
 351 850 l 1,34,-1
 351 0 l 1,35,-1
 144 0 l 1,36,-1
 144 1760 l 1,12,-1
EndSplineSet
EndChar

StartChar: S
Encoding: 83 83 54
Width: 828
Flags: W
LayerCount: 2
UndoRedoHistory
Layer: 1
Undoes
EndUndoes
Redoes
EndRedoes
EndUndoRedoHistory
Fore
SplineSet
94 1530 m 0,0,1
 109 1606 109 1606 146 1664 c 0,2,3
 220 1782 220 1782 419 1782 c 0,4,5
 677 1782 677 1782 722 1536 c 0,6,7
 741 1435 741 1435 741 1284 c 0,8,9
 741 1276 741 1276 741 1269 c 1,10,-1
 741 1165 l 1,11,-1
 543 1165 l 1,12,-1
 543 1283 l 2,13,14
 543 1451 543 1451 526 1509 c 128,-1,15
 509 1567 509 1567 484 1586 c 128,-1,16
 459 1605 459 1605 419 1605 c 0,17,18
 344 1605 344 1605 311 1550 c 128,-1,19
 278 1495 278 1495 278 1387 c 128,-1,20
 278 1279 278 1279 308 1229.5 c 128,-1,21
 338 1180 338 1180 382 1134 c 128,-1,22
 426 1088 426 1088 431 1082 c 2,23,-1
 551 955 l 1,24,25
 767 729 767 729 767 449 c 1,26,27
 767 446 767 446 767 443 c 0,28,29
 767 220 767 220 697 100 c 0,30,31
 626 -20 626 -20 428 -20 c 0,32,33
 190 -20 190 -20 126 190 c 1,34,35
 88 311 88 311 88 509 c 2,36,-1
 88 680 l 1,37,-1
 289 680 l 1,38,-1
 289 501 l 2,39,40
 289 308 289 308 317 232 c 0,41,42
 345 157 345 157 420 157 c 0,43,44
 421 158 l 0,45,46
 497 158 497 158 526 193.5 c 128,-1,47
 555 229 555 229 559.5 301.5 c 128,-1,48
 564 374 564 374 564 465 c 0,49,50
 564 648 564 648 403 809 c 2,51,-1
 288 924 l 1,52,53
 133 1082 133 1082 95 1215 c 0,54,55
 76 1283 76 1283 76 1363 c 0,56,57
 76 1441 76 1441 94 1530 c 0,0,1
EndSplineSet
EndChar

StartChar: T
Encoding: 84 84 55
Width: 629
Flags: W
LayerCount: 2
UndoRedoHistory
Layer: 1
Undoes
EndUndoes
Redoes
EndRedoes
EndUndoRedoHistory
Fore
SplineSet
24 1760 m 1,0,-1
 605 1760 l 1,1,-1
 605 1588 l 1,2,-1
 424 1588 l 1,3,-1
 424 0 l 1,4,-1
 218 0 l 1,5,-1
 218 1588 l 1,6,-1
 24 1588 l 1,7,-1
 24 1760 l 1,0,-1
EndSplineSet
EndChar

StartChar: U
Encoding: 85 85 56
Width: 954
Flags: W
LayerCount: 2
UndoRedoHistory
Layer: 1
Undoes
EndUndoes
Redoes
EndRedoes
EndUndoRedoHistory
Fore
SplineSet
619 1760 m 1,0,-1
 825 1760 l 1,1,-1
 825 452 l 2,2,3
 825 205 825 205 747.5 92 c 128,-1,4
 670 -21 670 -21 479 -21 c 128,-1,5
 288 -21 288 -21 209 92 c 128,-1,6
 130 205 130 205 130 452 c 2,7,-1
 130 1760 l 1,8,-1
 337 1760 l 1,9,-1
 337 457 l 2,10,11
 337 281 337 281 351.5 246.5 c 128,-1,12
 366 212 366 212 382 192 c 0,13,14
 410 154 410 154 479 154 c 0,15,16
 480 154 480 154 481 154 c 0,17,18
 548 154 548 154 580 196 c 0,19,20
 612 238 612 238 615.5 321 c 128,-1,21
 619 404 619 404 619 456 c 2,22,-1
 619 1760 l 1,0,-1
EndSplineSet
EndChar

StartChar: V
Encoding: 86 86 57
Width: 883
Flags: W
LayerCount: 2
UndoRedoHistory
Layer: 1
Undoes
EndUndoes
Redoes
EndRedoes
EndUndoRedoHistory
Fore
SplineSet
647 1760 m 1,0,-1
 842 1760 l 1,1,-1
 575 0 l 1,2,-1
 334 0 l 1,3,-1
 41 1760 l 1,4,-1
 238 1760 l 1,5,-1
 455 360 l 1,6,-1
 459 360 l 1,7,-1
 647 1760 l 1,0,-1
EndSplineSet
EndChar

StartChar: W
Encoding: 87 87 58
Width: 1340
Flags: W
LayerCount: 2
UndoRedoHistory
Layer: 1
Undoes
EndUndoes
Redoes
EndRedoes
EndUndoRedoHistory
Fore
SplineSet
1096 1760 m 1,0,-1
 1286 1760 l 1,1,-1
 1078 0 l 1,2,-1
 873 0 l 1,3,-1
 685 1299 l 1,4,-1
 486 0 l 1,5,-1
 286 0 l 1,6,-1
 54 1760 l 1,7,-1
 245 1760 l 1,8,-1
 395 411 l 1,9,-1
 595 1760 l 1,10,-1
 764 1760 l 1,11,-1
 969 411 l 1,12,-1
 1096 1760 l 1,0,-1
EndSplineSet
EndChar

StartChar: X
Encoding: 88 88 59
Width: 796
Flags: W
LayerCount: 2
UndoRedoHistory
Layer: 1
Undoes
EndUndoes
Redoes
EndRedoes
EndUndoRedoHistory
Fore
SplineSet
557 1760 m 1,0,-1
 743 1760 l 1,1,-1
 499 857 l 1,2,-1
 751 0 l 1,3,-1
 571 0 l 1,4,-1
 392 608 l 1,5,-1
 234 0 l 1,6,-1
 45 0 l 1,7,-1
 297 932 l 1,8,-1
 53 1760 l 1,9,-1
 234 1760 l 1,10,-1
 406 1174 l 1,11,-1
 557 1760 l 1,0,-1
EndSplineSet
EndChar

StartChar: Y
Encoding: 89 89 60
Width: 827
Flags: W
LayerCount: 2
UndoRedoHistory
Layer: 1
Undoes
EndUndoes
Redoes
EndRedoes
EndUndoRedoHistory
Fore
SplineSet
605 1760 m 1,0,-1
 812 1760 l 1,1,-1
 528 739 l 1,2,-1
 528 0 l 1,3,-1
 321 0 l 1,4,-1
 321 739 l 1,5,-1
 15 1760 l 1,6,-1
 220 1760 l 1,7,-1
 424 1045 l 1,8,-1
 428 1045 l 1,9,-1
 605 1760 l 1,0,-1
EndSplineSet
EndChar

StartChar: Z
Encoding: 90 90 61
Width: 690
Flags: W
LayerCount: 2
UndoRedoHistory
Layer: 1
Undoes
EndUndoes
Redoes
EndRedoes
EndUndoRedoHistory
Fore
SplineSet
102 1760 m 1,0,-1
 646 1760 l 1,1,-1
 646 1602 l 1,2,-1
 283 172 l 1,3,-1
 638 172 l 1,4,-1
 638 0 l 1,5,-1
 69 0 l 1,6,-1
 69 179 l 1,7,-1
 432 1588 l 1,8,-1
 102 1588 l 1,9,-1
 102 1760 l 1,0,-1
EndSplineSet
EndChar

StartChar: bracketleft
Encoding: 91 91 62
Width: 628
Flags: W
LayerCount: 2
UndoRedoHistory
Layer: 1
Undoes
EndUndoes
Redoes
EndRedoes
EndUndoRedoHistory
Fore
SplineSet
144 1760 m 1,0,-1
 559 1760 l 1,1,-1
 559 1601 l 1,2,-1
 350 1601 l 1,3,-1
 350 40 l 1,4,-1
 559 40 l 1,5,-1
 559 -120 l 1,6,-1
 144 -120 l 1,7,-1
 144 1760 l 1,0,-1
EndSplineSet
EndChar

StartChar: backslash
Encoding: 92 92 63
Width: 736
Flags: W
LayerCount: 2
UndoRedoHistory
Layer: 1
Undoes
EndUndoes
Redoes
EndRedoes
EndUndoRedoHistory
Fore
SplineSet
72 1760 m 1,0,-1
 254 1760 l 1,1,-1
 664 0 l 1,2,-1
 483 0 l 1,3,-1
 72 1760 l 1,0,-1
EndSplineSet
EndChar

StartChar: bracketright
Encoding: 93 93 64
Width: 628
Flags: W
LayerCount: 2
UndoRedoHistory
Layer: 1
Undoes
EndUndoes
Redoes
EndRedoes
EndUndoRedoHistory
Fore
SplineSet
484 1760 m 1,0,-1
 484 -120 l 1,1,-1
 69 -120 l 1,2,-1
 69 40 l 1,3,-1
 278 40 l 1,4,-1
 278 1601 l 1,5,-1
 69 1601 l 1,6,-1
 69 1760 l 1,7,-1
 484 1760 l 1,0,-1
EndSplineSet
EndChar

StartChar: asciicircum
Encoding: 94 94 65
Width: 919
Flags: W
LayerCount: 2
UndoRedoHistory
Layer: 1
Undoes
EndUndoes
Redoes
EndRedoes
EndUndoRedoHistory
Fore
SplineSet
329 1760 m 1,0,-1
 590 1760 l 1,1,-1
 831 837 l 1,2,-1
 630 837 l 1,3,-1
 460 1600 l 1,4,-1
 290 837 l 1,5,-1
 88 837 l 1,6,-1
 329 1760 l 1,0,-1
EndSplineSet
EndChar

StartChar: underscore
Encoding: 95 95 66
Width: 748
Flags: W
LayerCount: 2
UndoRedoHistory
Layer: 1
Undoes
EndUndoes
Redoes
EndRedoes
EndUndoRedoHistory
Fore
SplineSet
48 -46 m 1,0,-1
 699 -46 l 1,1,-1
 699 -198 l 1,2,-1
 48 -198 l 1,3,-1
 48 -46 l 1,0,-1
EndSplineSet
EndChar

StartChar: grave
Encoding: 96 96 67
Width: 650
Flags: W
LayerCount: 2
UndoRedoHistory
Layer: 1
Undoes
EndUndoes
Redoes
EndRedoes
EndUndoRedoHistory
Fore
SplineSet
365 1760 m 1,0,-1
 459 1389 l 1,1,-1
 348 1389 l 1,2,-1
 154 1760 l 1,3,-1
 365 1760 l 1,0,-1
EndSplineSet
EndChar

StartChar: a
Encoding: 97 97 68
Width: 902
Flags: W
LayerCount: 2
UndoRedoHistory
Layer: 1
Undoes
EndUndoes
Redoes
EndRedoes
EndUndoRedoHistory
Fore
SplineSet
132 1066 m 2,0,1
 132 1338 132 1338 217 1428 c 128,-1,2
 302 1518 302 1518 459 1518 c 128,-1,3
 616 1518 616 1518 686.5 1442 c 128,-1,4
 757 1366 757 1366 773 1198 c 0,5,6
 780 1126 780 1126 780 1021 c 2,7,-1
 780 0 l 1,8,-1
 574 0 l 1,9,-1
 574 130 l 1,10,11
 558 76 558 76 504 31.5 c 128,-1,12
 450 -13 450 -13 370 -13 c 0,13,14
 115 -13 115 -13 113 385 c 1,15,-1
 113 531 l 1,16,17
 112 660 112 660 184 752 c 0,18,19
 254 842 254 842 573 960 c 1,20,-1
 573 1076 l 1,21,22
 573 1083 573 1083 573 1089 c 0,23,24
 573 1271 573 1271 546 1309 c 0,25,26
 518 1348 518 1348 452 1348 c 0,27,28
 451 1348 451 1348 450 1348 c 0,29,30
 382 1348 382 1348 359 1288.5 c 128,-1,31
 336 1229 336 1229 336 1075 c 2,32,-1
 336 1023 l 1,33,-1
 132 1023 l 1,34,-1
 132 1066 l 2,0,1
573 827 m 1,35,36
 447 770 447 770 405 739 c 128,-1,37
 363 708 363 708 341.5 666.5 c 128,-1,38
 320 625 320 625 320 530 c 2,39,-1
 320 391 l 2,40,41
 320 260 320 260 343 206.5 c 128,-1,42
 366 153 366 153 422 153 c 128,-1,43
 478 153 478 153 518 185.5 c 128,-1,44
 558 218 558 218 573 256 c 1,45,-1
 573 827 l 1,35,36
EndSplineSet
EndChar

StartChar: b
Encoding: 98 98 69
Width: 940
Flags: W
LayerCount: 2
UndoRedoHistory
Layer: 1
Undoes
EndUndoes
Redoes
EndRedoes
EndUndoRedoHistory
Fore
SplineSet
354 1381 m 1,0,1
 371 1443 371 1443 426.5 1480.5 c 128,-1,2
 482 1518 482 1518 554 1518 c 128,-1,3
 626 1518 626 1518 681 1482 c 0,4,5
 816 1394 816 1394 816 1040 c 2,6,-1
 816 463 l 2,7,8
 816 185 816 185 740 76 c 0,9,10
 678 -13 678 -13 558 -13 c 0,11,12
 412 -13 412 -13 354 126 c 1,13,-1
 354 0 l 1,14,-1
 149 0 l 1,15,-1
 149 1779 l 1,16,-1
 354 1779 l 1,17,-1
 354 1381 l 1,0,1
610 1067 m 2,18,19
 610 1216 610 1216 596 1254 c 128,-1,20
 582 1292 582 1292 564 1318 c 0,21,22
 546 1346 546 1346 502 1346 c 0,23,24
 500 1346 500 1346 497 1346 c 0,25,26
 456 1346 456 1346 434 1336 c 0,27,28
 354 1302 354 1302 354 1066 c 2,29,-1
 354 458 l 2,30,31
 354 294 354 294 382 224 c 0,32,33
 409 154 409 154 484 154 c 0,34,35
 486 154 l 0,36,37
 562 154 562 154 586 224 c 128,-1,38
 610 294 610 294 610 463 c 2,39,-1
 610 1067 l 2,18,19
EndSplineSet
EndChar

StartChar: c
Encoding: 99 99 70
Width: 878
Flags: W
LayerCount: 2
UndoRedoHistory
Layer: 1
Undoes
EndUndoes
Redoes
EndRedoes
EndUndoRedoHistory
Fore
SplineSet
124 1008 m 2,0,1
 124 1203 124 1203 153.5 1293.5 c 128,-1,2
 183 1384 183 1384 220 1426 c 0,3,4
 301 1518 301 1518 457.5 1518 c 128,-1,5
 614 1518 614 1518 683 1441 c 128,-1,6
 752 1364 752 1364 768 1208 c 0,7,8
 774 1142 774 1142 775 1051 c 1,9,-1
 775 947 l 1,10,-1
 573 947 l 1,11,-1
 573 1079 l 2,12,13
 573 1219 573 1219 562 1261.5 c 128,-1,14
 551 1304 551 1304 527.5 1323 c 128,-1,15
 504 1342 504 1342 466 1342 c 0,16,17
 368 1342 368 1342 344 1244 c 0,18,19
 330 1182 330 1182 330 1073 c 2,20,-1
 330 435 l 2,21,22
 330 281 330 281 353.5 219.5 c 128,-1,23
 377 158 377 158 456 158 c 0,24,25
 510 158 510 158 541.5 202.5 c 128,-1,26
 573 247 573 247 573 431 c 2,27,-1
 573 576 l 1,28,-1
 775 576 l 1,29,-1
 775 479 l 2,30,31
 775 172 775 172 694 77 c 0,32,33
 614 -18 614 -18 448 -18 c 0,34,35
 186 -18 186 -18 140 262 c 0,36,37
 124 364 124 364 124 506 c 2,38,-1
 124 1008 l 2,0,1
EndSplineSet
EndChar

StartChar: d
Encoding: 100 100 71
Width: 939
Flags: W
LayerCount: 2
UndoRedoHistory
Layer: 1
Undoes
EndUndoes
Redoes
EndRedoes
EndUndoRedoHistory
Fore
SplineSet
587 1050 m 2,0,1
 586 1208 586 1208 560 1277 c 0,2,3
 534 1346 534 1346 460 1346 c 0,4,5
 458 1346 l 0,6,7
 382 1346 382 1346 356 1276.5 c 128,-1,8
 330 1207 330 1207 330 1045 c 2,9,-1
 330 439 l 2,10,11
 330 219 330 219 388 173 c 0,12,13
 412 154 412 154 456 154 c 128,-1,14
 500 154 500 154 528 178 c 0,15,16
 587 228 587 228 587 448 c 2,17,-1
 587 1050 l 2,0,1
586 1779 m 1,18,-1
 792 1779 l 1,19,-1
 792 0 l 1,20,-1
 586 0 l 1,21,-1
 586 126 l 1,22,23
 530 -13 530 -13 379 -13 c 0,24,25
 172 -13 172 -13 136 260 c 0,26,27
 124 351 124 351 124 480 c 2,28,-1
 124 1047 l 2,29,30
 124 1318 124 1318 212 1430 c 0,31,32
 282 1518 282 1518 410 1518 c 0,33,34
 466 1518 466 1518 513.5 1485 c 128,-1,35
 561 1452 561 1452 586 1400 c 1,36,-1
 586 1779 l 1,18,-1
EndSplineSet
EndChar

StartChar: e
Encoding: 101 101 72
Width: 881
Flags: W
LayerCount: 2
UndoRedoHistory
Layer: 1
Undoes
EndUndoes
Redoes
EndRedoes
EndUndoRedoHistory
Fore
SplineSet
573 1073 m 2,0,1
 573 1233 573 1233 561.5 1265.5 c 128,-1,2
 550 1298 550 1298 532.5 1323 c 128,-1,3
 515 1348 515 1348 467 1348 c 0,4,5
 466 1348 466 1348 465 1349 c 0,6,7
 376 1349 376 1349 353 1274 c 0,8,9
 329 1198 329 1198 329 1066 c 2,10,-1
 329 882 l 1,11,-1
 573 882 l 1,12,-1
 573 1073 l 2,0,1
124 1035 m 2,13,14
 124 1319 124 1319 226 1430 c 0,15,16
 306 1518 306 1518 462 1518 c 0,17,18
 688 1518 688 1518 746 1323 c 0,19,20
 778 1213 778 1213 778 1026 c 2,21,-1
 778 743 l 1,22,-1
 330 743 l 1,23,-1
 330 444 l 2,24,25
 330 249 330 249 361 201 c 0,26,27
 392 153 392 153 458 153 c 0,28,29
 459 154 l 0,30,31
 526 154 526 154 548.5 209.5 c 128,-1,32
 571 265 571 265 572 330.5 c 128,-1,33
 573 396 573 396 573 441 c 2,34,-1
 573 562 l 1,35,-1
 774 562 l 1,36,-1
 774 498 l 2,37,38
 774 260 774 260 740 164 c 128,-1,39
 706 68 706 68 638.5 25 c 128,-1,40
 571 -18 571 -18 470.5 -18 c 128,-1,41
 370 -18 370 -18 309.5 7.5 c 128,-1,42
 249 33 249 33 213.5 75 c 128,-1,43
 178 117 178 117 151 209 c 128,-1,44
 124 301 124 301 124 505 c 2,45,-1
 124 1035 l 2,13,14
EndSplineSet
EndChar

StartChar: f
Encoding: 102 102 73
Width: 651
Flags: W
LayerCount: 2
UndoRedoHistory
Layer: 1
Undoes
EndUndoes
Redoes
EndRedoes
EndUndoRedoHistory
Fore
SplineSet
202 1515 m 2,0,1
 202 1786 202 1786 434 1786 c 0,2,3
 520 1786 520 1786 583 1765 c 1,4,-1
 583 1622 l 1,5,6
 543 1628 543 1628 496 1628 c 128,-1,7
 449 1628 449 1628 428 1602.5 c 128,-1,8
 407 1577 407 1577 407 1523 c 2,9,-1
 407 1442 l 1,10,-1
 583 1442 l 1,11,-1
 583 1291 l 1,12,-1
 407 1291 l 1,13,-1
 407 0 l 1,14,-1
 202 0 l 1,15,-1
 202 1291 l 1,16,-1
 73 1291 l 1,17,-1
 73 1442 l 1,18,-1
 202 1442 l 1,19,-1
 202 1515 l 2,0,1
EndSplineSet
EndChar

StartChar: g
Encoding: 103 103 74
Width: 929
Flags: W
LayerCount: 2
UndoRedoHistory
Layer: 1
Undoes
EndUndoes
Redoes
EndRedoes
EndUndoRedoHistory
Fore
SplineSet
583 1068 m 2,0,1
 583 1214 583 1214 556.5 1280.5 c 128,-1,2
 530 1347 530 1347 464 1347 c 128,-1,3
 398 1347 398 1347 371 1309 c 128,-1,4
 344 1271 344 1271 336 1214 c 128,-1,5
 328 1157 328 1157 328 1070 c 2,6,-1
 328 603 l 2,7,8
 328 444 328 444 357 373.5 c 128,-1,9
 386 303 386 303 466 303 c 0,10,11
 508 303 508 303 532 327 c 0,12,13
 582 376 582 376 583 605 c 1,14,-1
 583 1068 l 2,0,1
400 1518 m 0,15,16
 541 1518 541 1518 583 1390 c 1,17,-1
 583 1500 l 1,18,-1
 788 1500 l 1,19,-1
 788 140 l 2,20,21
 788 -128 788 -128 586 -203 c 0,22,23
 516 -229 516 -229 424 -229 c 0,24,25
 240 -229 240 -229 119 -133 c 1,26,-1
 193 7 l 1,27,28
 302 -67 302 -67 424 -67 c 0,29,30
 430 -67 430 -67 436 -67 c 0,31,32
 505 -66 505 -66 544 -15.5 c 128,-1,33
 583 35 583 35 583 121 c 2,34,-1
 583 264 l 1,35,36
 556 194 556 194 508 167 c 0,37,38
 458 140 458 140 384 140 c 0,39,40
 233 140 233 140 177.5 267 c 128,-1,41
 122 394 122 394 122 608 c 2,42,-1
 122 1038 l 2,43,44
 122 1518 122 1518 400 1518 c 0,15,16
EndSplineSet
EndChar

StartChar: h
Encoding: 104 104 75
Width: 969
Flags: W
LayerCount: 2
UndoRedoHistory
Layer: 1
Undoes
EndUndoes
Redoes
EndRedoes
EndUndoRedoHistory
Fore
SplineSet
145 1779 m 1,0,-1
 350 1779 l 1,1,-1
 350 1341 l 1,2,3
 371 1414 371 1414 437 1466 c 0,4,5
 504 1518 504 1518 604 1518.5 c 128,-1,6
 704 1519 704 1519 767 1437.5 c 128,-1,7
 830 1356 830 1356 830 1196 c 2,8,-1
 830 0 l 1,9,-1
 625 0 l 1,10,-1
 625 1179 l 2,11,12
 625 1342 625 1342 502 1342 c 0,13,14
 435 1342 435 1342 392.5 1294.5 c 128,-1,15
 350 1247 350 1247 350 1154 c 2,16,-1
 350 0 l 1,17,-1
 145 0 l 1,18,-1
 145 1779 l 1,0,-1
EndSplineSet
EndChar

StartChar: i
Encoding: 105 105 76
Width: 494
Flags: W
LayerCount: 2
UndoRedoHistory
Layer: 1
Undoes
EndUndoes
Redoes
EndRedoes
EndUndoRedoHistory
Fore
SplineSet
144 1826 m 1,0,-1
 350 1826 l 1,1,-1
 350 1638 l 1,2,-1
 144 1638 l 1,3,-1
 144 1826 l 1,0,-1
144 1500 m 1,4,-1
 349 1500 l 1,5,-1
 349 0 l 1,6,-1
 144 0 l 1,7,-1
 144 1500 l 1,4,-1
EndSplineSet
EndChar

StartChar: j
Encoding: 106 106 77
Width: 520
Flags: W
LayerCount: 2
UndoRedoHistory
Layer: 1
Undoes
EndUndoes
Redoes
EndRedoes
EndUndoRedoHistory
Fore
SplineSet
168 1826 m 1,0,-1
 374 1826 l 1,1,-1
 374 1638 l 1,2,-1
 168 1638 l 1,3,-1
 168 1826 l 1,0,-1
68 -56 m 1,4,5
 82 -58 82 -58 97 -58 c 128,-1,6
 112 -58 112 -58 120 -57 c 0,7,8
 170 -52 170 -52 170 10 c 2,9,-1
 170 1500 l 1,10,-1
 375 1500 l 1,11,-1
 375 20 l 2,12,13
 375 -97 375 -97 326.5 -151 c 128,-1,14
 278 -205 278 -205 209 -209 c 0,15,16
 187 -211 187 -211 132.5 -211 c 128,-1,17
 78 -211 78 -211 62 -200 c 1,18,-1
 62 -56 l 1,19,-1
 68 -56 l 1,4,5
EndSplineSet
EndChar

StartChar: k
Encoding: 107 107 78
Width: 896
Flags: W
LayerCount: 2
UndoRedoHistory
Layer: 1
Undoes
EndUndoes
Redoes
EndRedoes
EndUndoRedoHistory
Fore
SplineSet
149 1779 m 1,0,-1
 354 1779 l 1,1,-1
 354 787 l 1,2,-1
 649 1500 l 1,3,-1
 856 1500 l 1,4,-1
 540 759 l 1,5,-1
 873 0 l 1,6,-1
 662 0 l 1,7,-1
 354 730 l 1,8,-1
 354 0 l 1,9,-1
 149 0 l 1,10,-1
 149 1779 l 1,0,-1
EndSplineSet
EndChar

StartChar: l
Encoding: 108 108 79
Width: 504
Flags: W
LayerCount: 2
UndoRedoHistory
Layer: 1
Undoes
EndUndoes
Redoes
EndRedoes
EndUndoRedoHistory
Fore
SplineSet
147 1779 m 1,0,-1
 352 1779 l 1,1,-1
 352 0 l 1,2,-1
 147 0 l 1,3,-1
 147 1779 l 1,0,-1
EndSplineSet
EndChar

StartChar: m
Encoding: 109 109 80
Width: 1430
Flags: W
LayerCount: 2
UndoRedoHistory
Layer: 1
Undoes
EndUndoes
Redoes
EndRedoes
EndUndoRedoHistory
Fore
SplineSet
348 1344 m 1,0,1
 369 1420 369 1420 431 1469.5 c 128,-1,2
 493 1519 493 1519 582 1519 c 0,3,4
 740 1519 740 1519 794 1367 c 1,5,6
 832 1437 832 1437 897.5 1478 c 128,-1,7
 963 1519 963 1519 1048 1519 c 0,8,9
 1167 1519 1167 1519 1229 1434 c 128,-1,10
 1291 1349 1291 1349 1291 1184 c 2,11,-1
 1291 0 l 1,12,-1
 1086 0 l 1,13,-1
 1086 1190 l 2,14,15
 1086 1342 1086 1342 966 1342 c 0,16,17
 830 1342 830 1342 820 1203 c 1,18,-1
 820 0 l 1,19,-1
 614 0 l 1,20,-1
 614 1191 l 2,21,22
 614 1342 614 1342 496 1342 c 0,23,24
 424 1342 424 1342 386 1295.5 c 128,-1,25
 348 1249 348 1249 348 1168 c 2,26,-1
 348 0 l 1,27,-1
 143 0 l 1,28,-1
 143 1500 l 1,29,-1
 348 1500 l 1,30,-1
 348 1344 l 1,0,1
EndSplineSet
EndChar

StartChar: n
Encoding: 110 110 81
Width: 968
Flags: W
LayerCount: 2
UndoRedoHistory
Layer: 1
Undoes
EndUndoes
Redoes
EndRedoes
EndUndoRedoHistory
Fore
SplineSet
348 1341 m 1,0,1
 368 1414 368 1414 436 1466 c 0,2,3
 504 1518 504 1518 604 1518.5 c 128,-1,4
 704 1519 704 1519 766.5 1437.5 c 128,-1,5
 829 1356 829 1356 829 1196 c 2,6,-1
 829 0 l 1,7,-1
 624 0 l 1,8,-1
 624 1195 l 2,9,10
 624 1271 624 1271 589 1309 c 128,-1,11
 554 1347 554 1347 492 1347 c 128,-1,12
 430 1347 430 1347 389 1304 c 128,-1,13
 348 1261 348 1261 348 1175 c 2,14,-1
 348 0 l 1,15,-1
 143 0 l 1,16,-1
 143 1500 l 1,17,-1
 348 1500 l 1,18,-1
 348 1341 l 1,0,1
EndSplineSet
EndChar

StartChar: o
Encoding: 111 111 82
Width: 914
Flags: W
LayerCount: 2
UndoRedoHistory
Layer: 1
Undoes
EndUndoes
Redoes
EndRedoes
EndUndoRedoHistory
Fore
SplineSet
584 1068 m 2,0,1
 584 1282 584 1282 523 1328 c 0,2,3
 498 1347 498 1347 458 1347 c 0,4,5
 377 1347 377 1347 353.5 1274 c 128,-1,6
 330 1201 330 1201 330 1068 c 2,7,-1
 330 439 l 2,8,9
 330 218 330 218 392 172 c 0,10,11
 417 152 417 152 456 152 c 0,12,13
 457 152 457 152 458 152 c 0,14,15
 537 153 537 153 560.5 227.5 c 128,-1,16
 584 302 584 302 584 439 c 2,17,-1
 584 1068 l 2,0,1
124 1027 m 2,18,19
 124 1392 124 1392 292 1482 c 0,20,21
 360 1518 360 1518 450 1518 c 0,22,23
 685 1518 685 1518 749 1329 c 0,24,25
 790 1211 790 1211 790 1027 c 2,26,-1
 790 496 l 2,27,28
 790 180 790 180 705 81 c 128,-1,29
 620 -18 620 -18 459 -18 c 0,30,31
 224 -18 224 -18 160 182 c 0,32,33
 124 297 124 297 124 496 c 2,34,-1
 124 1027 l 2,18,19
EndSplineSet
EndChar

StartChar: p
Encoding: 112 112 83
Width: 939
Flags: W
LayerCount: 2
UndoRedoHistory
Layer: 1
Undoes
EndUndoes
Redoes
EndRedoes
EndUndoRedoHistory
Fore
SplineSet
609 1066 m 2,0,1
 609 1215 609 1215 595.5 1253.5 c 128,-1,2
 582 1292 582 1292 569 1310 c 0,3,4
 543 1346 543 1346 493.5 1346 c 128,-1,5
 444 1346 444 1346 416 1327 c 0,6,7
 352 1284 352 1284 352 1066 c 2,8,-1
 352 451 l 2,9,10
 352 292 352 292 380 223 c 0,11,12
 407 154 407 154 481 154 c 0,13,14
 482 154 l 0,15,16
 558 154 558 154 583.5 224 c 128,-1,17
 609 294 609 294 609 459 c 2,18,-1
 609 1066 l 2,0,1
352 1375 m 1,19,20
 380 1444 380 1444 437 1478.5 c 128,-1,21
 494 1513 494 1513 558 1513 c 0,22,23
 739 1513 739 1513 788 1318 c 1,24,25
 815 1215 815 1215 815 1042 c 0,26,27
 815 1036 815 1036 815 1030 c 1,28,-1
 815 487 l 1,29,30
 815 483 815 483 815 479 c 0,31,32
 815 186 815 186 740 85 c 0,33,34
 664 -18 664 -18 527 -18 c 0,35,36
 472 -18 472 -18 425 16 c 128,-1,37
 378 50 378 50 352 100 c 1,38,-1
 352 -274 l 1,39,-1
 147 -274 l 1,40,-1
 147 1500 l 1,41,-1
 352 1500 l 1,42,-1
 352 1375 l 1,19,20
EndSplineSet
EndChar

StartChar: q
Encoding: 113 113 84
Width: 937
Flags: W
LayerCount: 2
UndoRedoHistory
Layer: 1
Undoes
EndUndoes
Redoes
EndRedoes
EndUndoRedoHistory
Fore
SplineSet
584 1050 m 2,0,1
 584 1210 584 1210 556 1278 c 0,2,3
 528 1346 528 1346 454 1346 c 0,4,5
 453 1346 l 0,6,7
 378 1346 378 1346 353.5 1277.5 c 128,-1,8
 329 1209 329 1209 329 1044 c 2,9,-1
 329 437 l 2,10,11
 329 257 329 257 357 205.5 c 128,-1,12
 385 154 385 154 439.5 154 c 128,-1,13
 494 154 494 154 522 174 c 0,14,15
 584 218 584 218 584 435 c 2,16,-1
 584 1050 l 2,0,1
380 1513 m 1,17,18
 529 1513 529 1513 585 1383 c 1,19,-1
 585 1500 l 1,20,-1
 790 1500 l 1,21,-1
 790 -274 l 1,22,-1
 585 -274 l 1,23,-1
 585 104 l 1,24,25
 563 52 563 52 515.5 17 c 128,-1,26
 468 -18 468 -18 406 -18 c 0,27,28
 215 -18 215 -18 157 182 c 0,29,30
 124 296 124 296 124 480 c 2,31,-1
 124 1030 l 2,32,33
 124 1312 124 1312 198 1422 c 0,34,35
 259 1512 259 1512 380 1513 c 1,17,18
EndSplineSet
EndChar

StartChar: r
Encoding: 114 114 85
Width: 642
Flags: W
LayerCount: 2
UndoRedoHistory
Layer: 1
Undoes
EndUndoes
Redoes
EndRedoes
EndUndoRedoHistory
Fore
SplineSet
608 1518 m 0,0,1
 612 1518 612 1518 612 1388 c 1,2,-1
 611 1344 l 1,3,4
 431 1344 431 1344 353 1219 c 1,5,-1
 353 0 l 1,6,-1
 147 0 l 1,7,-1
 147 1500 l 1,8,-1
 353 1500 l 1,9,-1
 353 1333 l 1,10,11
 379 1421 379 1421 444.5 1469.5 c 128,-1,12
 510 1518 510 1518 608 1518 c 0,0,1
EndSplineSet
EndChar

StartChar: s
Encoding: 115 115 86
Width: 804
Flags: W
LayerCount: 2
UndoRedoHistory
Layer: 1
Undoes
EndUndoes
Redoes
EndRedoes
EndUndoRedoHistory
Fore
SplineSet
745 344 m 0,0,1
 744 -20 744 -20 424 -20 c 0,2,3
 262 -20 262 -20 181 83 c 128,-1,4
 100 186 100 186 100 414 c 2,5,-1
 100 527 l 1,6,-1
 299 527 l 1,7,-1
 299 415 l 2,8,9
 299 155 299 155 417 155 c 0,10,11
 482 155 482 155 510.5 197 c 128,-1,12
 539 239 539 239 539 343 c 0,13,14
 539 506 539 506 389 653 c 0,15,16
 378 664 378 664 337 702.5 c 128,-1,17
 296 741 296 741 283 754 c 0,18,19
 88 940 88 940 88 1165 c 0,20,21
 88 1343 88 1343 172 1430.5 c 128,-1,22
 256 1518 256 1518 411 1518 c 0,23,24
 516 1518 516 1518 582 1475 c 0,25,26
 720 1385 720 1385 720 1050 c 2,27,-1
 720 978 l 1,28,-1
 525 978 l 1,29,-1
 525 1082 l 2,30,31
 525 1213 525 1213 499.5 1277.5 c 128,-1,32
 474 1342 474 1342 412 1342 c 128,-1,33
 350 1342 350 1342 318 1303 c 0,34,35
 287 1265 287 1265 288 1177 c 0,36,37
 288 1174 288 1174 288 1171 c 1,38,39
 288 1025 288 1025 425 889 c 1,40,-1
 533 788 l 1,41,42
 745 585 745 585 745 344 c 0,0,1
EndSplineSet
EndChar

StartChar: t
Encoding: 116 116 87
Width: 596
Flags: W
LayerCount: 2
UndoRedoHistory
Layer: 1
Undoes
EndUndoes
Redoes
EndRedoes
EndUndoRedoHistory
Fore
SplineSet
180 1760 m 1,0,-1
 385 1760 l 1,1,-1
 385 1488 l 1,2,-1
 547 1488 l 1,3,-1
 547 1336 l 1,4,-1
 385 1336 l 1,5,-1
 385 241 l 2,6,7
 385 183 385 183 412 168.5 c 128,-1,8
 439 154 439 154 549 154 c 1,9,-1
 549 -9 l 1,10,-1
 408 -9 l 1,11,12
 405 -9 405 -9 403 -9 c 0,13,14
 266 -9 266 -9 223 42 c 0,15,16
 180 94 180 94 180 223 c 2,17,-1
 180 1336 l 1,18,-1
 43 1336 l 1,19,-1
 43 1488 l 1,20,-1
 180 1488 l 1,21,-1
 180 1760 l 1,0,-1
EndSplineSet
EndChar

StartChar: u
Encoding: 117 117 88
Width: 962
Flags: W
LayerCount: 2
UndoRedoHistory
Layer: 1
Undoes
EndUndoes
Redoes
EndRedoes
EndUndoRedoHistory
Fore
SplineSet
614 1500 m 1,0,-1
 820 1500 l 1,1,-1
 820 0 l 1,2,-1
 614 0 l 1,3,-1
 614 153 l 1,4,5
 590 76 590 76 531 28 c 0,6,7
 472 -20 472 -20 374 -20 c 128,-1,8
 276 -20 276 -20 205.5 61.5 c 128,-1,9
 135 143 135 143 135 312 c 2,10,-1
 135 1500 l 1,11,-1
 340 1500 l 1,12,-1
 340 335 l 2,13,14
 340 158 340 158 469 158 c 0,15,16
 541 158 541 158 577.5 208 c 128,-1,17
 614 258 614 258 614 340 c 2,18,-1
 614 1500 l 1,0,-1
EndSplineSet
EndChar

StartChar: v
Encoding: 118 118 89
Width: 774
Flags: W
LayerCount: 2
UndoRedoHistory
Layer: 1
Undoes
EndUndoes
Redoes
EndRedoes
EndUndoRedoHistory
Fore
SplineSet
539 1500 m 1,0,-1
 726 1500 l 1,1,-1
 507 0 l 1,2,-1
 266 0 l 1,3,-1
 49 1500 l 1,4,-1
 235 1500 l 1,5,-1
 352 649 l 1,6,-1
 393 294 l 1,7,-1
 400 294 l 1,8,-1
 435 650 l 1,9,-1
 539 1500 l 1,0,-1
EndSplineSet
EndChar

StartChar: w
Encoding: 119 119 90
Width: 1166
Flags: W
LayerCount: 2
UndoRedoHistory
Layer: 1
Undoes
EndUndoes
Redoes
EndRedoes
EndUndoRedoHistory
Fore
SplineSet
944 1500 m 1,0,-1
 1112 1500 l 1,1,-1
 931 0 l 1,2,-1
 742 0 l 1,3,-1
 591 1174 l 1,4,-1
 411 0 l 1,5,-1
 230 0 l 1,6,-1
 55 1500 l 1,7,-1
 227 1500 l 1,8,-1
 306 665 l 1,9,-1
 329 378 l 1,10,-1
 338 378 l 1,11,-1
 376 666 l 1,12,-1
 495 1500 l 1,13,-1
 674 1500 l 1,14,-1
 793 688 l 1,15,-1
 834 378 l 1,16,-1
 842 378 l 1,17,-1
 866 689 l 1,18,-1
 944 1500 l 1,0,-1
EndSplineSet
EndChar

StartChar: x
Encoding: 120 120 91
Width: 751
Flags: W
LayerCount: 2
UndoRedoHistory
Layer: 1
Undoes
EndUndoes
Redoes
EndRedoes
EndUndoRedoHistory
Fore
SplineSet
47 1500 m 1,0,-1
 228 1500 l 1,1,-1
 386 1021 l 1,2,-1
 526 1500 l 1,3,-1
 712 1500 l 1,4,-1
 470 766 l 1,5,-1
 722 0 l 1,6,-1
 531 0 l 1,7,-1
 367 510 l 1,8,-1
 216 0 l 1,9,-1
 30 0 l 1,10,-1
 282 773 l 1,11,-1
 47 1500 l 1,0,-1
EndSplineSet
EndChar

StartChar: y
Encoding: 121 121 92
Width: 786
Flags: W
LayerCount: 2
UndoRedoHistory
Layer: 1
Undoes
EndUndoes
Redoes
EndRedoes
EndUndoRedoHistory
Fore
SplineSet
553 1500 m 1,0,-1
 751 1500 l 1,1,-1
 502 -29 l 1,2,3
 484 -154 484 -154 456 -192 c 128,-1,4
 428 -230 428 -230 394 -240.5 c 128,-1,5
 360 -251 360 -251 305 -251 c 2,6,-1
 104 -251 l 1,7,-1
 104 -96 l 1,8,-1
 175 -96 l 2,9,10
 280 -96 280 -96 291 -72 c 1,11,12
 300 -61 300 -61 300 -29 c 128,-1,13
 300 3 300 3 292 53 c 2,14,-1
 47 1500 l 1,15,-1
 246 1500 l 1,16,-1
 354 720 l 1,17,-1
 398 314 l 1,18,-1
 416 314 l 1,19,-1
 455 720 l 1,20,-1
 553 1500 l 1,0,-1
EndSplineSet
EndChar

StartChar: z
Encoding: 122 122 93
Width: 673
Flags: W
LayerCount: 2
UndoRedoHistory
Layer: 1
Undoes
EndUndoes
Redoes
EndRedoes
EndUndoRedoHistory
Fore
SplineSet
97 1500 m 1,0,-1
 614 1500 l 1,1,-1
 614 1359 l 1,2,-1
 283 175 l 1,3,-1
 597 175 l 1,4,-1
 597 0 l 1,5,-1
 72 0 l 1,6,-1
 72 153 l 1,7,-1
 402 1323 l 1,8,-1
 97 1323 l 1,9,-1
 97 1500 l 1,0,-1
EndSplineSet
EndChar

StartChar: braceleft
Encoding: 123 123 94
Width: 657
Flags: W
LayerCount: 2
UndoRedoHistory
Layer: 1
Undoes
EndUndoes
Redoes
EndRedoes
EndUndoRedoHistory
Fore
SplineSet
521 1782 m 2,0,-1
 581 1782 l 1,1,-1
 581 1615 l 1,2,3
 490 1615 490 1615 466 1583 c 128,-1,4
 442 1551 442 1551 442 1431 c 2,5,-1
 442 1135 l 2,6,7
 442 900 442 900 400 854 c 0,8,9
 358 808 358 808 276 781 c 1,10,11
 359 756 359 756 387.5 724 c 128,-1,12
 416 692 416 692 429 634 c 0,13,14
 442 576 442 576 442 427 c 2,15,-1
 442 131 l 2,16,17
 442 11 442 11 466 -21 c 128,-1,18
 490 -53 490 -53 581 -53 c 1,19,-1
 581 -220 l 1,20,-1
 521 -220 l 2,21,22
 361 -220 361 -220 299.5 -148 c 128,-1,23
 238 -76 238 -76 238 118 c 2,24,-1
 238 453 l 2,25,26
 238 600 238 600 215 640.5 c 128,-1,27
 192 681 192 681 99 681 c 1,28,-1
 99 881 l 1,29,30
 192 881 192 881 215 921.5 c 128,-1,31
 238 962 238 962 238 1109 c 2,32,-1
 238 1444 l 2,33,34
 238 1638 238 1638 299.5 1710 c 128,-1,35
 361 1782 361 1782 521 1782 c 2,0,-1
EndSplineSet
EndChar

StartChar: bar
Encoding: 124 124 95
Width: 537
Flags: W
LayerCount: 2
UndoRedoHistory
Layer: 1
Undoes
EndUndoes
Redoes
EndRedoes
EndUndoRedoHistory
Fore
SplineSet
175 1837 m 1,0,-1
 372 1837 l 1,1,-1
 372 -124 l 1,2,-1
 175 -124 l 1,3,-1
 175 1837 l 1,0,-1
EndSplineSet
EndChar

StartChar: braceright
Encoding: 125 125 96
Width: 657
Flags: W
LayerCount: 2
UndoRedoHistory
Layer: 1
Undoes
EndUndoes
Redoes
EndRedoes
EndUndoRedoHistory
Fore
SplineSet
136 1782 m 2,0,1
 296 1782 296 1782 357.5 1710 c 128,-1,2
 419 1638 419 1638 419 1444 c 2,3,-1
 419 1109 l 2,4,5
 419 962 419 962 442 921.5 c 128,-1,6
 465 881 465 881 558 881 c 1,7,-1
 558 681 l 1,8,9
 465 681 465 681 442 640.5 c 128,-1,10
 419 600 419 600 419 453 c 2,11,-1
 419 118 l 2,12,13
 419 -76 419 -76 357.5 -148 c 128,-1,14
 296 -220 296 -220 136 -220 c 2,15,-1
 76 -220 l 1,16,-1
 76 -53 l 1,17,18
 167 -53 167 -53 191 -21 c 128,-1,19
 215 11 215 11 215 131 c 2,20,-1
 215 427 l 2,21,22
 214 662 214 662 256 708 c 0,23,24
 298 754 298 754 381 781 c 1,25,26
 298 806 298 806 269.5 838 c 128,-1,27
 241 870 241 870 228 928 c 0,28,29
 215 986 215 986 215 1135 c 2,30,-1
 215 1431 l 2,31,32
 215 1551 215 1551 191 1583 c 128,-1,33
 167 1615 167 1615 76 1615 c 1,34,-1
 76 1782 l 1,35,-1
 136 1782 l 2,0,1
EndSplineSet
EndChar

StartChar: asciitilde
Encoding: 126 126 97
Width: 1117
Flags: W
LayerCount: 2
UndoRedoHistory
Layer: 1
Undoes
EndUndoes
Redoes
EndRedoes
EndUndoRedoHistory
Fore
SplineSet
553 1090 m 0,0,1
 703 1047 703 1047 733 1047 c 0,2,3
 734 1048 734 1048 735 1048 c 0,4,5
 762 1050 762 1050 787.5 1078.5 c 128,-1,6
 813 1107 813 1107 829 1161 c 1,7,-1
 993 1119 l 1,8,9
 964 1005 964 1005 902 918.5 c 128,-1,10
 840 832 840 832 773 832 c 128,-1,11
 706 832 706 832 556.5 878 c 128,-1,12
 407 924 407 924 353.5 924 c 128,-1,13
 300 924 300 924 260 831 c 1,14,-1
 111 909 l 1,15,16
 190 1134 190 1134 341 1134 c 0,17,18
 398 1134 398 1134 553 1090 c 0,0,1
EndSplineSet
EndChar

StartChar: cent
Encoding: 162 162 100
Width: 878
Flags: W
LayerCount: 2
UndoRedoHistory
Layer: 1
Undoes
EndUndoes
Redoes
EndRedoes
EndUndoRedoHistory
Fore
SplineSet
124 1008 m 2,0,-1
 124 506 l 2,1,2
 124 365 124 365 141 262.5 c 128,-1,3
 158 160 158 160 206 90 c 0,4,5
 268 0 268 0 402 -15 c 1,6,-1
 402 5 l 1,7,-1
 515 5 l 1,8,-1
 515 -15 l 1,9,10
 628 -1 628 -1 689 71 c 0,11,12
 775 172 775 172 775 479 c 2,13,-1
 775 576 l 1,14,-1
 573 576 l 1,15,-1
 573 431 l 2,16,17
 573 247 573 247 534 192 c 0,18,19
 510 158 510 158 456 158 c 0,20,21
 377 158 377 158 353.5 219.5 c 128,-1,22
 330 281 330 281 330 435 c 2,23,-1
 330 1073 l 2,24,25
 330 1241 330 1241 364 1291.5 c 128,-1,26
 398 1342 398 1342 464 1342 c 128,-1,27
 530 1342 530 1342 551 1291 c 0,28,29
 559 1272 559 1272 566 1245.5 c 128,-1,30
 573 1219 573 1219 573 1079 c 2,31,-1
 573 947 l 1,32,-1
 775 947 l 1,33,-1
 775 1051 l 1,34,35
 774 1142 774 1142 768 1208 c 0,36,37
 752 1364 752 1364 689.5 1433.5 c 128,-1,38
 627 1503 627 1503 515 1515 c 1,39,-1
 515 1510 l 1,40,-1
 402 1512 l 1,41,-1
 402 1514 l 1,42,43
 285 1499 285 1499 220 1426 c 0,44,45
 183 1384 183 1384 153.5 1293.5 c 128,-1,46
 124 1203 124 1203 124 1008 c 2,0,-1
402 1767 m 1,47,-1
 515 1767 l 1,48,-1
 515 1515 l 1,49,50
 491 1518 491 1518 461 1518 c 128,-1,51
 431 1518 431 1518 402 1514 c 1,52,-1
 402 1767 l 1,47,-1
402 -15 m 1,53,54
 431 -18 431 -18 458 -18 c 0,55,56
 487 -18 487 -18 515 -15 c 1,57,-1
 515 -250 l 1,58,-1
 402 -250 l 1,59,-1
 402 -15 l 1,53,54
EndSplineSet
EndChar

StartChar: sterling
Encoding: 163 163 101
Width: 854
Flags: W
LayerCount: 2
UndoRedoHistory
Layer: 1
Undoes
EndUndoes
Redoes
EndRedoes
EndUndoRedoHistory
Fore
SplineSet
518 473 m 0,0,1
 518 247 518 247 350 164 c 1,2,-1
 787 164 l 1,3,-1
 787 0 l 1,4,-1
 118 0 l 1,5,-1
 118 143 l 1,6,7
 267 224 267 224 309 388 c 0,8,9
 321 433 321 433 321 492.5 c 128,-1,10
 321 552 321 552 305 620 c 2,11,-1
 263 809 l 1,12,-1
 81 809 l 1,13,-1
 81 949 l 1,14,-1
 229 949 l 1,15,-1
 188 1146 l 2,16,17
 152 1321 152 1321 152 1403 c 0,18,19
 152 1601 152 1601 233 1691.5 c 128,-1,20
 314 1782 314 1782 478 1782 c 128,-1,21
 642 1782 642 1782 714 1687.5 c 128,-1,22
 786 1593 786 1593 786 1388 c 2,23,-1
 786 1246 l 1,24,-1
 612 1246 l 1,25,-1
 612 1393 l 2,26,27
 612 1564 612 1564 550 1602 c 0,28,29
 524 1618 524 1618 486 1618 c 128,-1,31
 448 1618 448 1618 426 1611 c 0,32,33
 348 1586 348 1586 347 1427 c 0,34,35
 347 1317 347 1317 381 1165 c 2,36,-1
 428 949 l 1,37,-1
 732 949 l 1,38,-1
 732 809 l 1,39,-1
 465 809 l 1,40,-1
 503 614 l 2,41,42
 518 538 518 538 518 473 c 0,0,1
EndSplineSet
EndChar

StartChar: currency
Encoding: 164 164 102
Width: 1159
Flags: W
LayerCount: 2
UndoRedoHistory
Layer: 1
Undoes
EndUndoes
Redoes
EndRedoes
EndUndoRedoHistory
Fore
SplineSet
755.5 779 m 128,-1,1
 823 855 823 855 823 967 c 128,-1,2
 823 1079 823 1079 756.5 1151.5 c 128,-1,3
 690 1224 690 1224 580.5 1224 c 128,-1,4
 471 1224 471 1224 403.5 1149 c 128,-1,5
 336 1074 336 1074 336 963.5 c 128,-1,6
 336 853 336 853 403 778 c 128,-1,7
 470 703 470 703 579 703 c 128,-1,0
 688 703 688 703 755.5 779 c 128,-1,1
797 1331 m 1,8,-1
 884 1418 l 1,9,-1
 1034 1269 l 1,10,-1
 944 1179 l 1,11,12
 998 1082 998 1082 998 964 c 128,-1,13
 998 846 998 846 944 748 c 1,14,-1
 1034 658 l 1,15,-1
 884 509 l 1,16,-1
 795 597 l 1,17,18
 703 545 703 545 579 545 c 128,-1,19
 455 545 455 545 363 598 c 1,20,-1
 274 509 l 1,21,-1
 125 659 l 1,22,-1
 216 750 l 1,23,24
 163 848 163 848 163 964.5 c 128,-1,25
 163 1081 163 1081 215 1178 c 1,26,-1
 125 1268 l 1,27,-1
 274 1418 l 1,28,-1
 361 1330 l 1,29,30
 458 1385 458 1385 579 1385 c 128,-1,31
 700 1385 700 1385 797 1331 c 1,8,-1
EndSplineSet
EndChar

StartChar: yen
Encoding: 165 165 103
Width: 827
Flags: W
LayerCount: 2
UndoRedoHistory
Layer: 1
Undoes
EndUndoes
Redoes
EndRedoes
EndUndoRedoHistory
Fore
SplineSet
605 1760 m 1,0,-1
 812 1760 l 1,1,-1
 544 798 l 1,2,-1
 763 798 l 1,3,-1
 763 682 l 1,4,-1
 528 682 l 1,5,-1
 528 507 l 1,6,-1
 763 507 l 1,7,-1
 763 391 l 1,8,-1
 528 391 l 1,9,-1
 528 0 l 1,10,-1
 321 0 l 1,11,-1
 321 391 l 1,12,-1
 85 391 l 1,13,-1
 85 507 l 1,14,-1
 321 507 l 1,15,-1
 321 682 l 1,16,-1
 85 682 l 1,17,-1
 85 798 l 1,18,-1
 303 798 l 1,19,-1
 15 1760 l 1,20,-1
 220 1760 l 1,21,-1
 424 1045 l 1,22,-1
 428 1045 l 1,23,-1
 605 1760 l 1,0,-1
EndSplineSet
EndChar

StartChar: brokenbar
Encoding: 166 166 104
Width: 485
Flags: W
LayerCount: 2
UndoRedoHistory
Layer: 1
Undoes
EndUndoes
Redoes
EndRedoes
EndUndoRedoHistory
Fore
SplineSet
144 690 m 1,0,-1
 341 690 l 1,1,-1
 341 -149 l 1,2,-1
 144 -149 l 1,3,-1
 144 690 l 1,0,-1
144 1760 m 1,4,-1
 341 1760 l 1,5,-1
 341 930 l 1,6,-1
 144 930 l 1,7,-1
 144 1760 l 1,4,-1
EndSplineSet
EndChar

StartChar: section
Encoding: 167 167 105
Width: 805
Flags: W
LayerCount: 2
UndoRedoHistory
Layer: 1
Undoes
EndUndoes
Redoes
EndRedoes
EndUndoRedoHistory
Fore
SplineSet
339 1084 m 1,0,-1
 338 1085 l 1,1,2
 257 1038 257 1038 257 958 c 0,3,4
 257 910 257 910 309.5 856 c 128,-1,5
 362 802 362 802 514 683 c 1,6,7
 588 733 588 733 588 796 c 128,-1,8
 588 859 588 859 532 923 c 128,-1,9
 476 987 476 987 339 1084 c 1,0,-1
88 1487 m 0,10,11
 88 1622 88 1622 173.5 1702 c 128,-1,12
 259 1782 259 1782 406 1782 c 128,-1,13
 553 1782 553 1782 636 1688.5 c 128,-1,14
 719 1595 719 1595 719 1423 c 2,15,-1
 719 1332 l 1,16,-1
 525 1332 l 1,17,-1
 525 1418 l 2,18,19
 525 1534 525 1534 487.5 1585.5 c 128,-1,20
 450 1637 450 1637 393.5 1637 c 128,-1,21
 337 1637 337 1637 302.5 1595.5 c 128,-1,22
 268 1554 268 1554 268 1492.5 c 128,-1,23
 268 1431 268 1431 296.5 1384 c 128,-1,24
 325 1337 325 1337 417 1260 c 2,25,-1
 620 1089 l 2,26,27
 710 1014 710 1014 736 953 c 128,-1,28
 762 892 762 892 762 858 c 0,29,30
 762 823 762 823 760 798 c 0,31,32
 755 735 755 735 704 691 c 0,33,34
 653 648 653 648 586 606 c 1,35,36
 745 471 745 471 745 281 c 0,37,38
 745 145 745 145 657 62.5 c 128,-1,39
 569 -20 569 -20 422 -20 c 128,-1,40
 275 -20 275 -20 187.5 72 c 128,-1,41
 100 164 100 164 100 340 c 2,42,-1
 100 434 l 1,43,-1
 299 434 l 1,44,-1
 299 342 l 2,45,46
 299 232 299 232 326.5 178.5 c 128,-1,47
 354 125 354 125 426 125 c 0,48,49
 559 125 559 125 559 279 c 0,50,51
 559 366 559 366 531.5 415.5 c 128,-1,52
 504 465 504 465 441 517 c 2,53,-1
 243 679 l 2,54,55
 169 740 169 740 128 804 c 128,-1,56
 87 868 87 868 87 947.5 c 128,-1,57
 87 1027 87 1027 127.5 1088.5 c 128,-1,58
 168 1150 168 1150 242 1182 c 1,59,60
 172 1245 172 1245 130 1327 c 128,-1,61
 88 1409 88 1409 88 1487 c 0,10,11
EndSplineSet
EndChar

StartChar: dieresis
Encoding: 168 168 106
Width: 976
Flags: W
LayerCount: 2
UndoRedoHistory
Layer: 1
Undoes
EndUndoes
Redoes
EndRedoes
EndUndoRedoHistory
Fore
SplineSet
131 596 m 1,0,-1
 361 596 l 1,1,-1
 361 418 l 1,2,-1
 131 418 l 1,3,-1
 131 596 l 1,0,-1
615 596 m 1,4,-1
 845 596 l 1,5,-1
 845 418 l 1,6,-1
 615 418 l 1,7,-1
 615 596 l 1,4,-1
EndSplineSet
EndChar

StartChar: copyright
Encoding: 169 169 107
Width: 1466
Flags: W
LayerCount: 2
UndoRedoHistory
Layer: 1
Undoes
EndUndoes
Redoes
EndRedoes
EndUndoRedoHistory
Fore
SplineSet
966 1345 m 128,-1,1
 865 1390 865 1390 753 1390 c 0,2,3
 449 1390 449 1390 308 1162 c 0,4,5
 225 1029 225 1029 225 841.5 c 128,-1,6
 225 654 225 654 353 499 c 0,7,8
 415 424 415 424 516 379 c 128,-1,9
 617 334 617 334 729 334 c 0,10,11
 1033 334 1033 334 1174 562 c 0,12,13
 1257 695 1257 695 1257 882.5 c 128,-1,14
 1257 1070 1257 1070 1129 1225 c 0,15,0
 1067 1300 1067 1300 966 1345 c 128,-1,1
84 862 m 128,-1,17
 84 1046 84 1046 170 1196.5 c 128,-1,18
 256 1347 256 1347 406.5 1433 c 128,-1,19
 557 1519 557 1519 741 1519 c 128,-1,20
 925 1519 925 1519 1075.5 1433 c 128,-1,21
 1226 1347 1226 1347 1312 1196.5 c 128,-1,22
 1398 1046 1398 1046 1398 862 c 128,-1,23
 1398 678 1398 678 1312 527.5 c 128,-1,24
 1226 377 1226 377 1075.5 291 c 128,-1,25
 925 205 925 205 741 205 c 128,-1,26
 557 205 557 205 406.5 291 c 128,-1,27
 256 377 256 377 170 527.5 c 128,-1,16
 84 678 84 678 84 862 c 128,-1,17
527 1089 m 2,28,29
 527 1194 527 1194 573.5 1249.5 c 128,-1,30
 620 1305 620 1305 731 1305 c 128,-1,31
 842 1305 842 1305 891 1259 c 128,-1,32
 940 1213 940 1213 940 1095 c 2,33,-1
 940 977 l 1,34,-1
 815 977 l 1,35,-1
 815 1084 l 1,36,37
 815 1087 815 1087 815 1090 c 0,38,39
 814 1156 814 1156 794 1172 c 0,40,41
 772 1189 772 1189 735 1189 c 128,-1,42
 698 1189 698 1189 675 1171.5 c 128,-1,43
 652 1154 652 1154 652 1097 c 2,44,-1
 652 616 l 2,45,46
 652 569 652 569 675.5 552.5 c 128,-1,47
 699 536 699 536 737 536 c 128,-1,48
 775 536 775 536 795 552 c 128,-1,49
 815 568 815 568 815 616 c 2,50,-1
 815 765 l 1,51,-1
 944 765 l 1,52,-1
 944 623 l 2,53,54
 944 523 944 523 896 473.5 c 128,-1,55
 848 424 848 424 739.5 424 c 128,-1,56
 631 424 631 424 579 479 c 128,-1,57
 527 534 527 534 527 628 c 2,58,-1
 527 1089 l 2,28,29
EndSplineSet
EndChar

StartChar: ordfeminine
Encoding: 170 170 108
Width: 927
Flags: W
LayerCount: 2
UndoRedoHistory
Layer: 1
Undoes
EndUndoes
Redoes
EndRedoes
EndUndoRedoHistory
Fore
SplineSet
569 772 m 1,0,-1
 569 1225 l 1,1,2
 499 1194 499 1194 466 1176 c 128,-1,3
 433 1158 433 1158 406.5 1131 c 128,-1,4
 380 1104 380 1104 373 1072.5 c 128,-1,5
 366 1041 366 1041 366 988 c 2,6,-1
 366 880 l 2,7,8
 366 775 366 775 384.5 732 c 128,-1,9
 403 689 403 689 448 689 c 128,-1,10
 493 689 493 689 525 715 c 128,-1,11
 557 741 557 741 569 772 c 1,0,-1
216 1420 m 2,12,13
 216 1637 216 1637 283.5 1709.5 c 128,-1,14
 351 1782 351 1782 480 1782 c 0,15,16
 661 1782 661 1782 707 1634 c 0,17,18
 734 1547 734 1547 734 1384 c 2,19,-1
 734 567 l 1,20,-1
 570 567 l 1,21,-1
 570 667 l 1,22,23
 559 628 559 628 514.5 592 c 128,-1,24
 470 556 470 556 406 556 c 0,25,26
 203 556 203 556 201 874 c 1,27,-1
 201 992 l 2,28,29
 201 1092 201 1092 256 1166 c 0,30,31
 312 1240 312 1240 524 1320 c 0,32,33
 562 1334 562 1334 569 1337 c 1,34,-1
 569 1405 l 2,35,36
 569 1546 569 1546 557 1586 c 0,37,38
 539 1645 539 1645 477.5 1645 c 128,-1,39
 416 1645 416 1645 397.5 1598.5 c 128,-1,40
 379 1552 379 1552 379 1429 c 2,41,-1
 379 1385 l 1,42,-1
 216 1385 l 1,43,-1
 216 1420 l 2,12,13
EndSplineSet
EndChar

StartChar: guillemotleft
Encoding: 171 171 109
Width: 1304
Flags: W
LayerCount: 2
UndoRedoHistory
Layer: 1
Undoes
EndUndoes
Redoes
EndRedoes
EndUndoRedoHistory
Fore
SplineSet
82 839 m 1,0,-1
 560 1110 l 1,1,-1
 560 903 l 1,2,-1
 248 749 l 1,3,-1
 560 586 l 1,4,-1
 560 372 l 1,5,-1
 82 657 l 1,6,-1
 82 839 l 1,0,-1
620 839 m 1,7,-1
 1098 1110 l 1,8,-1
 1098 903 l 1,9,-1
 786 749 l 1,10,-1
 1098 586 l 1,11,-1
 1098 372 l 1,12,-1
 620 657 l 1,13,-1
 620 839 l 1,7,-1
EndSplineSet
EndChar

StartChar: logicalnot
Encoding: 172 172 110
Width: 947
Flags: W
LayerCount: 2
UndoRedoHistory
Layer: 1
Undoes
EndUndoes
Redoes
EndRedoes
EndUndoRedoHistory
Fore
SplineSet
97 979 m 1,0,-1
 793 979 l 1,1,-1
 793 439 l 1,2,-1
 602 439 l 1,3,-1
 602 796 l 1,4,-1
 97 796 l 1,5,-1
 97 979 l 1,0,-1
EndSplineSet
EndChar

StartChar: uni00AD
Encoding: 173 173 111
Width: 696
Flags: W
LayerCount: 2
UndoRedoHistory
Layer: 1
Undoes
EndUndoes
Redoes
EndRedoes
EndUndoRedoHistory
Fore
SplineSet
90 741 m 1,0,-1
 606 741 l 1,1,-1
 606 573 l 1,2,-1
 90 573 l 1,3,-1
 90 741 l 1,0,-1
EndSplineSet
EndChar

StartChar: registered
Encoding: 174 174 112
Width: 1502
Flags: W
LayerCount: 2
UndoRedoHistory
Layer: 1
Undoes
EndUndoes
Redoes
EndRedoes
EndUndoRedoHistory
Fore
SplineSet
823 1010 m 128,-1,1
 825 1029 825 1029 825 1086 c 128,-1,2
 825 1143 825 1143 803 1163.5 c 128,-1,3
 781 1184 781 1184 700 1184 c 1,4,-1
 700 945 l 1,5,6
 747 945 747 945 771.5 950 c 128,-1,7
 796 955 796 955 808.5 973 c 128,-1,0
 821 991 821 991 823 1010 c 128,-1,1
567 1282 m 1,8,-1
 778 1282 l 2,9,10
 881 1282 881 1282 913.5 1235.5 c 128,-1,11
 946 1189 946 1189 946 1073 c 2,12,-1
 946 1053 l 2,13,14
 946 963 946 963 930 945 c 0,15,16
 898 909 898 909 848 899 c 1,17,18
 912 891 912 891 925.5 854 c 128,-1,19
 939 817 939 817 939 760 c 2,20,-1
 939 430 l 1,21,-1
 811 430 l 1,22,-1
 811 762 l 2,23,24
 811 806 811 806 789.5 827 c 128,-1,25
 768 848 768 848 699 848 c 1,26,-1
 699 430 l 1,27,-1
 567 430 l 1,28,-1
 567 1282 l 1,8,-1
976 1345 m 128,-1,30
 875 1390 875 1390 763 1390 c 0,31,32
 459 1390 459 1390 318 1162 c 0,33,34
 235 1029 235 1029 235 841.5 c 128,-1,35
 235 654 235 654 363 499 c 0,36,37
 425 424 425 424 526 379 c 128,-1,38
 627 334 627 334 739 334 c 0,39,40
 1043 334 1043 334 1184 562 c 0,41,42
 1267 695 1267 695 1267 882.5 c 128,-1,43
 1267 1070 1267 1070 1139 1225 c 0,44,29
 1077 1300 1077 1300 976 1345 c 128,-1,30
94 862 m 128,-1,46
 94 1046 94 1046 180 1196.5 c 128,-1,47
 266 1347 266 1347 416.5 1433 c 128,-1,48
 567 1519 567 1519 751 1519 c 128,-1,49
 935 1519 935 1519 1085.5 1433 c 128,-1,50
 1236 1347 1236 1347 1322 1196.5 c 128,-1,51
 1408 1046 1408 1046 1408 862 c 128,-1,52
 1408 678 1408 678 1322 527.5 c 128,-1,53
 1236 377 1236 377 1085.5 291 c 128,-1,54
 935 205 935 205 751 205 c 128,-1,55
 567 205 567 205 416.5 291 c 128,-1,56
 266 377 266 377 180 527.5 c 128,-1,45
 94 678 94 678 94 862 c 128,-1,46
EndSplineSet
EndChar

StartChar: macron
Encoding: 175 175 113
Width: 696
Flags: W
LayerCount: 2
UndoRedoHistory
Layer: 1
Undoes
EndUndoes
Redoes
EndRedoes
EndUndoRedoHistory
Fore
SplineSet
90 544 m 1,0,-1
 591 544 l 1,1,-1
 591 412 l 1,2,-1
 90 412 l 1,3,-1
 90 544 l 1,0,-1
EndSplineSet
EndChar

StartChar: degree
Encoding: 176 176 114
Width: 915
Flags: W
LayerCount: 2
UndoRedoHistory
Layer: 1
Undoes
EndUndoes
Redoes
EndRedoes
EndUndoRedoHistory
Fore
SplineSet
628 1330 m 0,0,1
 658 1380 658 1380 657 1443 c 0,2,3
 657 1614 657 1614 500 1656 c 0,4,5
 478 1662 478 1662 457 1662 c 1,6,-1
 416 1657 l 1,7,8
 260 1616 260 1616 259 1448 c 0,9,10
 258 1380 258 1380 288 1330 c 0,11,12
 344 1236 344 1236 458.5 1236 c 128,-1,13
 573 1236 573 1236 628 1330 c 0,0,1
104 1448 m 0,14,15
 104 1528 104 1528 134.5 1593.5 c 128,-1,16
 165 1659 165 1659 214.5 1698.75 c 128,-1,17
 264 1738.5 264 1738.5 327.5 1758.625 c 128,-1,18
 391 1778.75 391 1778.75 457.5 1779.4375 c 128,-1,19
 524 1780.125 524 1780.125 587.5 1760 c 128,-1,20
 651 1739.875 651 1739.875 700.5 1699.4375 c 128,-1,21
 750 1659 750 1659 780.5 1593.5 c 128,-1,22
 811 1528 811 1528 811 1448 c 0,23,24
 811 1287 811 1287 704 1200 c 0,25,26
 598 1114 598 1114 458 1114 c 0,27,28
 457 1114 457 1114 456 1113 c 0,29,30
 317 1113 317 1113 211 1200 c 0,31,32
 104 1287 104 1287 104 1448 c 0,14,15
EndSplineSet
EndChar

StartChar: plusminus
Encoding: 177 177 115
Width: 854
Flags: W
LayerCount: 2
UndoRedoHistory
Layer: 1
Undoes
EndUndoes
Redoes
EndRedoes
EndUndoRedoHistory
Fore
SplineSet
165 337 m 1,0,-1
 681 337 l 1,1,-1
 681 188 l 1,2,-1
 165 188 l 1,3,-1
 165 337 l 1,0,-1
353 1152 m 1,4,-1
 501 1152 l 1,5,-1
 501 906 l 1,6,-1
 729 906 l 1,7,-1
 729 766 l 1,8,-1
 501 766 l 1,9,-1
 501 516 l 1,10,-1
 353 516 l 1,11,-1
 353 766 l 1,12,-1
 129 766 l 1,13,-1
 129 906 l 1,14,-1
 353 906 l 1,15,-1
 353 1152 l 1,4,-1
EndSplineSet
EndChar

StartChar: uni00B2
Encoding: 178 178 116
Width: 846
Flags: W
LayerCount: 2
UndoRedoHistory
Layer: 1
Undoes
EndUndoes
Redoes
EndRedoes
EndUndoRedoHistory
Fore
SplineSet
222 1340 m 2,0,1
 222 1586 222 1586 261 1665 c 128,-1,2
 300 1744 300 1744 372 1766 c 0,3,4
 412 1778 412 1778 468 1779 c 1,5,6
 680 1779 680 1779 680 1427 c 0,7,8
 680 1250 680 1250 590 1078 c 1,9,10
 550 1004 550 1004 509 932 c 0,11,12
 405 751 405 751 381 603 c 1,13,-1
 664 603 l 1,14,-1
 664 490 l 1,15,-1
 226 490 l 1,16,-1
 226 557 l 2,17,18
 226 638 226 638 337 887.5 c 128,-1,19
 448 1137 448 1137 482 1179 c 1,20,21
 536 1278 536 1278 536 1440 c 0,22,23
 536 1602 536 1602 498 1637 c 0,24,25
 482 1652 482 1652 456 1652 c 128,-1,26
 430 1652 430 1652 412 1636 c 0,27,28
 370 1599 370 1599 370 1428 c 2,29,-1
 370 1262 l 1,30,-1
 222 1262 l 1,31,-1
 222 1340 l 2,0,1
EndSplineSet
EndChar

StartChar: uni00B3
Encoding: 179 179 117
Width: 868
Flags: W
LayerCount: 2
UndoRedoHistory
Layer: 1
Undoes
EndUndoes
Redoes
EndRedoes
EndUndoRedoHistory
Fore
SplineSet
201 1467 m 2,0,1
 201 1626 201 1626 256 1702.5 c 128,-1,2
 311 1779 311 1779 437 1779 c 128,-1,3
 563 1779 563 1779 621.5 1700.5 c 128,-1,4
 680 1622 680 1622 680 1467 c 0,5,6
 680 1250 680 1250 560 1206 c 1,7,8
 682 1152 682 1152 682 910 c 0,9,10
 682 738 682 738 622.5 654.5 c 128,-1,11
 563 571 563 571 434.5 571 c 128,-1,12
 306 571 306 571 251.5 651 c 128,-1,13
 197 731 197 731 197 902 c 2,14,-1
 197 956 l 1,15,-1
 339 956 l 1,16,-1
 339 902 l 2,17,18
 339 777 339 777 357 733 c 128,-1,19
 375 689 375 689 435 689 c 128,-1,20
 495 689 495 689 515.5 738 c 128,-1,21
 536 787 536 787 536 915 c 128,-1,22
 536 1043 536 1043 506.5 1095.5 c 128,-1,23
 477 1148 477 1148 402 1148 c 2,24,-1
 373 1148 l 1,25,-1
 373 1261 l 1,26,-1
 401 1261 l 1,27,28
 452 1262 452 1262 479 1277 c 0,29,30
 535 1308 535 1308 535 1443 c 128,-1,31
 535 1578 535 1578 509.5 1618 c 128,-1,32
 484 1658 484 1658 435.5 1658 c 128,-1,33
 387 1658 387 1658 365.5 1616 c 128,-1,34
 344 1574 344 1574 344 1464 c 2,35,-1
 344 1439 l 1,36,-1
 201 1439 l 1,37,-1
 201 1467 l 2,0,1
EndSplineSet
EndChar

StartChar: acute
Encoding: 180 180 118
Width: 567
Flags: W
LayerCount: 2
UndoRedoHistory
Layer: 1
Undoes
EndUndoes
Redoes
EndRedoes
EndUndoRedoHistory
Fore
SplineSet
277 1341 m 1,0,-1
 166 1341 l 1,1,-1
 252 1760 l 1,2,-1
 451 1760 l 1,3,-1
 277 1341 l 1,0,-1
EndSplineSet
EndChar

StartChar: paragraph
Encoding: 182 182 119
Width: 1064
Flags: W
LayerCount: 2
UndoRedoHistory
Layer: 1
Undoes
EndUndoes
Redoes
EndRedoes
EndUndoRedoHistory
Fore
SplineSet
617 1760 m 2,0,-1
 920 1760 l 1,1,-1
 920 0 l 1,2,-1
 742 0 l 1,3,-1
 742 1575 l 1,4,-1
 599 1575 l 1,5,-1
 599 0 l 1,6,-1
 421 0 l 1,7,-1
 421 1135 l 1,8,9
 98 1171 98 1171 98 1456 c 0,10,11
 98 1547 98 1547 125 1605.5 c 0,12,13
 152 1665 152 1665 217 1699 c 0,14,15
 332 1760 332 1760 617 1760 c 2,0,-1
EndSplineSet
EndChar

StartChar: periodcentered
Encoding: 183 183 120
Width: 480
Flags: W
LayerCount: 2
UndoRedoHistory
Layer: 1
Undoes
EndUndoes
Redoes
EndRedoes
EndUndoRedoHistory
Fore
SplineSet
148 977 m 1,0,-1
 348 977 l 1,1,-1
 348 769 l 1,2,-1
 148 769 l 1,3,-1
 148 977 l 1,0,-1
EndSplineSet
EndChar

StartChar: cedilla
Encoding: 184 184 121
Width: 345
Flags: W
LayerCount: 2
UndoRedoHistory
Layer: 1
Undoes
EndUndoes
Redoes
EndRedoes
EndUndoRedoHistory
Fore
SplineSet
42 -501 m 1,0,1
 273 -501 273 -501 273 -360 c 0,2,3
 273 -296 273 -296 226.5 -253.5 c 128,-1,4
 180 -211 180 -211 113 -196 c 1,5,-1
 153 0 l 1,6,-1
 222 0 l 1,7,-1
 234 -144 l 1,8,9
 437 -228 437 -228 437 -397 c 0,10,11
 437 -480 437 -480 359.5 -548.5 c 128,-1,12
 282 -617 282 -617 159 -617 c 0,13,14
 102 -617 102 -617 42 -599 c 1,15,-1
 42 -501 l 1,0,1
EndSplineSet
EndChar

StartChar: uni00B9
Encoding: 185 185 122
Width: 627
Flags: W
LayerCount: 2
UndoRedoHistory
Layer: 1
Undoes
EndUndoes
Redoes
EndRedoes
EndUndoRedoHistory
Fore
SplineSet
302 1760 m 1,0,-1
 409 1760 l 1,1,-1
 409 487 l 1,2,-1
 253 487 l 1,3,-1
 253 1557 l 1,4,5
 193 1500 193 1500 90 1500 c 1,6,-1
 90 1600 l 1,7,8
 155 1607 155 1607 217 1650.5 c 128,-1,9
 279 1694 279 1694 302 1760 c 1,0,-1
EndSplineSet
EndChar

StartChar: ordmasculine
Encoding: 186 186 123
Width: 829
Flags: W
LayerCount: 2
UndoRedoHistory
Layer: 1
Undoes
EndUndoes
Redoes
EndRedoes
EndUndoRedoHistory
Fore
SplineSet
517 1421 m 2,0,1
 517 1534 517 1534 496.5 1589.5 c 128,-1,2
 476 1645 476 1645 415 1645 c 128,-1,3
 354 1645 354 1645 333 1590 c 128,-1,4
 312 1535 312 1535 312 1421 c 2,5,-1
 312 918 l 2,6,7
 312 802 312 802 333.5 745.5 c 128,-1,8
 355 689 355 689 417 689 c 0,9,10
 494 690 494 690 510 796 c 0,11,12
 517 839 517 839 517 902 c 0,13,14
 517 910 517 910 517 918 c 1,15,-1
 517 1421 l 2,0,1
146 1388 m 2,16,17
 146 1681 146 1681 282 1753 c 0,18,19
 336 1782 336 1782 410 1782 c 0,20,21
 603 1782 603 1782 652 1630 c 0,22,23
 683 1535 683 1535 683 1388 c 2,24,-1
 683 964 l 2,25,26
 683 713 683 713 614.5 632.5 c 128,-1,27
 546 552 546 552 417 552 c 0,28,29
 228 552 228 552 176 712 c 0,30,31
 146 806 146 806 146 964 c 2,32,-1
 146 1388 l 2,16,17
EndSplineSet
EndChar

StartChar: guillemotright
Encoding: 187 187 124
Width: 1304
Flags: W
LayerCount: 2
UndoRedoHistory
Layer: 1
Undoes
EndUndoes
Redoes
EndRedoes
EndUndoRedoHistory
Fore
SplineSet
172 903 m 1,0,-1
 172 1110 l 1,1,-1
 650 839 l 1,2,-1
 650 657 l 1,3,-1
 172 372 l 1,4,-1
 172 586 l 1,5,-1
 484 749 l 1,6,-1
 172 903 l 1,0,-1
710 903 m 1,7,-1
 710 1110 l 1,8,-1
 1188 839 l 1,9,-1
 1188 657 l 1,10,-1
 710 372 l 1,11,-1
 710 586 l 1,12,-1
 1022 749 l 1,13,-1
 710 903 l 1,7,-1
EndSplineSet
EndChar

StartChar: onequarter
Encoding: 188 188 125
Width: 1535
Flags: W
LayerCount: 2
UndoRedoHistory
Layer: 1
Undoes
EndUndoes
Redoes
EndRedoes
EndUndoRedoHistory
Fore
SplineSet
1190 325 m 1,0,-1
 1190 928 l 1,1,-1
 1028 325 l 1,2,-1
 1190 325 l 1,0,-1
1160 1147 m 1,3,-1
 1316 1147 l 1,4,-1
 1316 325 l 1,5,-1
 1406 325 l 1,6,-1
 1406 219 l 1,7,-1
 1316 219 l 1,8,-1
 1316 0 l 1,9,-1
 1190 0 l 1,10,-1
 1190 219 l 1,11,-1
 909 219 l 1,12,-1
 909 310 l 1,13,-1
 1160 1147 l 1,3,-1
297 1760 m 1,14,-1
 397 1760 l 1,15,-1
 397 514 l 1,16,-1
 250 514 l 1,17,-1
 250 1565 l 1,18,19
 195 1508 195 1508 95 1508 c 1,20,-1
 95 1604 l 1,21,22
 156 1611 156 1611 214.5 1653 c 128,-1,23
 273 1695 273 1695 297 1760 c 1,14,-1
946 1760 m 1,24,-1
 1079 1760 l 1,25,-1
 600 0 l 1,26,-1
 467 0 l 1,27,-1
 946 1760 l 1,24,-1
EndSplineSet
EndChar

StartChar: onehalf
Encoding: 189 189 126
Width: 1620
Flags: W
LayerCount: 2
UndoRedoHistory
Layer: 1
Undoes
EndUndoes
Redoes
EndRedoes
EndUndoRedoHistory
Fore
SplineSet
956 1760 m 1,0,-1
 1089 1760 l 1,1,-1
 610 0 l 1,2,-1
 477 0 l 1,3,-1
 956 1760 l 1,0,-1
297 1760 m 1,4,-1
 397 1760 l 1,5,-1
 397 514 l 1,6,-1
 250 514 l 1,7,-1
 250 1565 l 1,8,9
 195 1508 195 1508 95 1508 c 1,10,-1
 95 1604 l 1,11,12
 156 1611 156 1611 214.5 1653 c 128,-1,13
 273 1695 273 1695 297 1760 c 1,4,-1
1092 833 m 2,14,15
 1092 1074 1092 1074 1130 1152 c 128,-1,16
 1168 1230 1168 1230 1238 1251 c 0,17,18
 1278 1263 1278 1263 1332 1263 c 0,19,20
 1538 1263 1538 1263 1538 918 c 0,21,22
 1538 746 1538 746 1448 576 c 1,23,24
 1410 502 1410 502 1370 432 c 0,25,26
 1270 255 1270 255 1245 108 c 1,27,-1
 1522 108 l 1,28,-1
 1522 0 l 1,29,-1
 1096 0 l 1,30,-1
 1096 65 l 2,31,32
 1096 118 1096 118 1153.5 263.5 c 128,-1,33
 1211 409 1211 409 1270.5 532 c 128,-1,34
 1330 655 1330 655 1346 674 c 1,35,36
 1399 769 1399 769 1399 955 c 0,37,38
 1399 1141 1399 1141 1320 1141 c 0,39,40
 1319 1141 l 0,41,42
 1293 1141 1293 1141 1276 1126 c 0,43,44
 1235 1090 1235 1090 1235 919 c 2,45,-1
 1235 756 l 1,46,-1
 1092 756 l 1,47,-1
 1092 833 l 2,14,15
EndSplineSet
EndChar

StartChar: threequarters
Encoding: 190 190 127
Width: 1555
Flags: W
LayerCount: 2
UndoRedoHistory
Layer: 1
Undoes
EndUndoes
Redoes
EndRedoes
EndUndoRedoHistory
Fore
SplineSet
1190 325 m 1,0,-1
 1190 928 l 1,1,-1
 1028 325 l 1,2,-1
 1190 325 l 1,0,-1
1160 1147 m 1,3,-1
 1316 1147 l 1,4,-1
 1316 325 l 1,5,-1
 1406 325 l 1,6,-1
 1406 219 l 1,7,-1
 1316 219 l 1,8,-1
 1316 0 l 1,9,-1
 1190 0 l 1,10,-1
 1190 219 l 1,11,-1
 909 219 l 1,12,-1
 909 310 l 1,13,-1
 1160 1147 l 1,3,-1
946 1760 m 1,14,-1
 1079 1760 l 1,15,-1
 600 0 l 1,16,-1
 467 0 l 1,17,-1
 946 1760 l 1,14,-1
123 1481 m 2,18,19
 123 1635 123 1635 174.5 1708.5 c 128,-1,20
 226 1782 226 1782 344 1782 c 128,-1,21
 462 1782 462 1782 517 1707.5 c 128,-1,22
 572 1633 572 1633 572 1481 c 0,23,24
 572 1269 572 1269 458 1226 c 1,25,26
 575 1173 575 1173 575 937 c 0,27,28
 575 771 575 771 518.5 690 c 128,-1,29
 462 609 462 609 342 609 c 128,-1,30
 222 609 222 609 170.5 687 c 128,-1,31
 119 765 119 765 119 931 c 2,32,-1
 119 981 l 1,33,-1
 251 981 l 1,34,-1
 251 931 l 2,35,36
 251 806 251 806 268 763.5 c 128,-1,37
 285 721 285 721 343.5 721 c 128,-1,38
 402 721 402 721 422 769.5 c 128,-1,39
 442 818 442 818 442 943 c 128,-1,40
 442 1068 442 1068 413 1119.5 c 128,-1,41
 384 1171 384 1171 313 1171 c 2,42,-1
 285 1171 l 1,43,-1
 285 1282 l 1,44,-1
 311 1282 l 2,45,46
 360 1282 360 1282 386 1296 c 0,47,48
 440 1325 440 1325 440 1458 c 128,-1,49
 440 1591 440 1591 415.5 1630.5 c 128,-1,50
 391 1670 391 1670 344 1670 c 128,-1,51
 297 1670 297 1670 276.5 1629 c 128,-1,52
 256 1588 256 1588 256 1478 c 1,53,-1
 255 1454 l 1,54,-1
 123 1454 l 1,55,-1
 123 1481 l 2,18,19
EndSplineSet
EndChar

StartChar: AE
Encoding: 198 198 135
Width: 1206
Flags: W
LayerCount: 2
UndoRedoHistory
Layer: 1
Undoes
EndUndoes
Redoes
EndRedoes
EndUndoRedoHistory
Fore
SplineSet
596 497 m 1,0,-1
 596 1590 l 1,1,-1
 570 1589 l 1,2,-1
 359 497 l 1,3,-1
 596 497 l 1,0,-1
419 1760 m 1,4,-1
 1105 1760 l 1,5,-1
 1105 1588 l 1,6,-1
 803 1588 l 1,7,-1
 803 986 l 1,8,-1
 1088 986 l 1,9,-1
 1088 812 l 1,10,-1
 803 812 l 1,11,-1
 803 172 l 1,12,-1
 1109 172 l 1,13,-1
 1109 0 l 1,14,-1
 596 0 l 1,15,-1
 596 336 l 1,16,-1
 329 336 l 1,17,-1
 264 0 l 1,18,-1
 66 0 l 1,19,-1
 419 1760 l 1,4,-1
EndSplineSet
EndChar

StartChar: multiply
Encoding: 215 215 152
Width: 710
Flags: W
LayerCount: 2
UndoRedoHistory
Layer: 1
Undoes
EndUndoes
Redoes
EndRedoes
EndUndoRedoHistory
Fore
SplineSet
534 936 m 1,0,-1
 634 832 l 1,1,-1
 458 655 l 1,2,-1
 634 478 l 1,3,-1
 534 374 l 1,4,-1
 355 552 l 1,5,-1
 176 374 l 1,6,-1
 76 478 l 1,7,-1
 252 655 l 1,8,-1
 76 832 l 1,9,-1
 176 936 l 1,10,-1
 355 758 l 1,11,-1
 534 936 l 1,0,-1
EndSplineSet
EndChar

StartChar: Oslash
Encoding: 216 216 153
Width: 900
Flags: W
LayerCount: 2
UndoRedoHistory
Layer: 1
Undoes
EndUndoes
Redoes
EndRedoes
EndUndoRedoHistory
Fore
SplineSet
124 1282 m 2,0,1
 124 1582 124 1582 232 1694 c 0,2,3
 317 1782 317 1782 481 1782 c 0,4,5
 645 1782 645 1782 726 1687 c 1,6,-1
 803 1906 l 1,7,-1
 910 1870 l 1,8,-1
 794 1543 l 1,9,10
 820 1438 820 1438 820 1282 c 2,11,-1
 820 506 l 2,12,13
 820 231 820 231 743 105.5 c 128,-1,14
 666 -20 666 -20 474 -20 c 0,15,16
 341 -20 341 -20 261 41 c 1,17,-1
 174 -206 l 1,18,-1
 75 -166 l 1,19,-1
 183 142 l 1,20,21
 124 268 124 268 124 506 c 2,22,-1
 124 1282 l 2,0,1
346 279 m 1,23,24
 352 250 352 250 359 230 c 0,25,26
 387 158 387 158 472 158 c 128,-1,27
 557 158 557 158 585 231.5 c 128,-1,28
 613 305 613 305 613 504 c 2,29,-1
 613 1032 l 1,30,-1
 346 279 l 1,23,24
612 1362 m 1,31,32
 607 1478 607 1478 586 1534 c 0,33,34
 559 1604 559 1604 477 1604 c 128,-1,35
 395 1604 395 1604 363 1532 c 128,-1,36
 331 1460 331 1460 331 1295 c 2,37,-1
 331 563 l 1,38,-1
 612 1362 l 1,31,32
EndSplineSet
EndChar

StartChar: Thorn
Encoding: 222 222 159
Width: 927
Flags: W
LayerCount: 2
UndoRedoHistory
Layer: 1
Undoes
EndUndoes
Redoes
EndRedoes
EndUndoRedoHistory
Fore
SplineSet
641 994 m 2,0,1
 641 1178 641 1178 612.5 1256.5 c 128,-1,2
 584 1335 584 1335 499 1335 c 2,3,-1
 368 1335 l 1,4,-1
 368 594 l 1,5,-1
 495 594 l 2,6,7
 583 594 583 594 612 672.5 c 128,-1,8
 641 751 641 751 641 964 c 2,9,-1
 641 994 l 2,0,1
162 1760 m 1,10,-1
 368 1760 l 1,11,-1
 368 1500 l 1,12,-1
 515 1500 l 2,13,14
 676 1500 676 1500 754 1410 c 0,15,16
 847 1303 847 1303 847 987 c 2,17,-1
 847 963 l 1,18,19
 846 623 846 623 746 510 c 0,20,21
 667 422 667 422 515 422 c 2,22,-1
 368 422 l 1,23,-1
 368 0 l 1,24,-1
 162 0 l 1,25,-1
 162 1760 l 1,10,-1
EndSplineSet
EndChar

StartChar: germandbls
Encoding: 223 223 160
Width: 981
Flags: W
LayerCount: 2
UndoRedoHistory
Layer: 1
Undoes
EndUndoes
Redoes
EndRedoes
EndUndoRedoHistory
Fore
SplineSet
144 1417 m 2,0,1
 144 1616 144 1616 210 1697.5 c 0,2,3
 400 1932 400 1932 476 1779 c 0,4,5
 477 1777 477 1777 478 1779 c 0,6,7
 543 1910 543 1910 753 1702 c 0,8,9
 831 1625 831 1625 831 1417 c 2,10,-1
 831 1220 l 2,11,12
 831 1096 831 1096 795.5 1036 c 128,-1,13
 760 976 760 976 668 945 c 1,14,15
 795 915 795 915 843 828.5 c 128,-1,16
 891 742 891 742 891 553 c 2,17,-1
 891 476 l 2,18,19
 891 254 891 254 855 166 c 128,-1,20
 819 78 819 78 748.5 39.5 c 128,-1,21
 678 1 678 1 554 0 c 1,22,-1
 450 0 l 1,23,-1
 450 168 l 1,24,25
 605 168 605 168 641.5 203.5 c 128,-1,26
 678 239 678 239 683.5 291.5 c 128,-1,27
 689 344 689 344 689 395 c 2,28,-1
 689 656 l 2,29,30
 689 769 689 769 640.5 810 c 128,-1,31
 592 851 592 851 459 851 c 1,32,-1
 459 1019 l 1,33,34
 556 1019 556 1019 593.5 1052.5 c 128,-1,35
 631 1086 631 1086 631 1170 c 2,36,-1
 631 1470 l 2,37,38
 631 1560 631 1560 599.5 1593.5 c 128,-1,39
 568 1627 568 1627 489 1627 c 128,-1,40
 410 1627 410 1627 379 1592.5 c 128,-1,41
 348 1558 348 1558 348 1470 c 2,42,-1
 348 0 l 1,43,-1
 144 0 l 1,44,-1
 144 1417 l 2,0,1
EndSplineSet
EndChar

StartChar: ae
Encoding: 230 230 167
Width: 1356
Flags: W
LayerCount: 2
UndoRedoHistory
Layer: 1
Undoes
EndUndoes
Redoes
EndRedoes
EndUndoRedoHistory
Fore
SplineSet
1036 1073 m 2,0,1
 1036 1235 1036 1235 1024 1266.5 c 128,-1,2
 1012 1298 1012 1298 995 1323.5 c 128,-1,3
 978 1349 978 1349 934 1349 c 0,4,5
 858 1349 858 1349 825 1297 c 128,-1,6
 792 1245 792 1245 792 1060 c 2,7,-1
 792 889 l 1,8,-1
 1036 889 l 1,9,-1
 1036 1073 l 2,0,1
585 257 m 1,10,-1
 585 822 l 1,11,12
 419 748 419 748 381 704 c 128,-1,13
 343 660 343 660 338 615.5 c 128,-1,14
 333 571 333 571 333 527 c 2,15,-1
 333 391 l 2,16,17
 333 260 333 260 356 206.5 c 128,-1,18
 379 153 379 153 435 153 c 128,-1,19
 491 153 491 153 531 186 c 128,-1,20
 571 219 571 219 585 257 c 1,10,-1
691 1418 m 1,21,22
 765 1518 765 1518 925 1518 c 0,23,24
 1150 1518 1150 1518 1208 1323 c 0,25,26
 1240 1214 1240 1214 1240 982 c 0,27,28
 1240 905 1240 905 1241 852 c 0,29,30
 1241 747 1241 747 1240 740 c 1,31,-1
 792 740 l 1,32,-1
 792 457 l 2,33,34
 792 289 792 289 816 221 c 0,35,36
 840 152 840 152 909 152 c 0,37,38
 910 152 910 152 911 152 c 0,39,40
 979 152 979 152 1002 194 c 0,41,42
 1026 236 1026 236 1031 297 c 128,-1,43
 1036 358 1036 358 1036 451 c 2,44,-1
 1036 562 l 1,45,-1
 1238 562 l 1,46,-1
 1238 502 l 2,47,48
 1238 219 1238 219 1188 123.5 c 128,-1,49
 1138 28 1138 28 1048 0 c 0,50,51
 996 -16 996 -16 925 -18 c 0,52,53
 742 -23 742 -23 670 115 c 1,54,55
 632 66 632 66 556 26.5 c 128,-1,56
 480 -13 480 -13 404 -13 c 0,57,58
 266 -13 266 -13 196 91.5 c 128,-1,59
 126 196 126 196 126 390 c 2,60,-1
 126 537 l 1,61,62
 127 625 127 625 152 686.5 c 128,-1,63
 177 748 177 748 245.5 796 c 128,-1,64
 314 844 314 844 379.5 875.5 c 128,-1,65
 445 907 445 907 586 962 c 1,66,-1
 586 1063 l 2,67,68
 586 1232 586 1232 574 1264 c 0,69,70
 560 1296 560 1296 548 1314 c 0,71,72
 526 1347 526 1347 460.5 1347 c 128,-1,73
 395 1347 395 1347 372 1289 c 128,-1,74
 349 1231 349 1231 349 1077 c 2,75,-1
 349 1023 l 1,76,-1
 145 1023 l 1,77,-1
 145 1066 l 1,78,79
 146 1338 146 1338 231 1428 c 128,-1,80
 316 1518 316 1518 475.5 1518 c 128,-1,81
 635 1518 635 1518 691 1418 c 1,21,22
EndSplineSet
EndChar

StartChar: eth
Encoding: 240 240 177
Width: 968
Flags: W
LayerCount: 2
UndoRedoHistory
Layer: 1
Undoes
EndUndoes
Redoes
EndRedoes
EndUndoRedoHistory
Fore
SplineSet
616 854 m 1,0,1
 603 879 603 879 557.5 903 c 128,-1,2
 512 927 512 927 454 927 c 0,3,4
 369 927 369 927 340 852 c 128,-1,5
 311 777 311 777 311 578 c 2,6,-1
 311 440 l 2,7,8
 311 272 311 272 341.5 215 c 128,-1,9
 372 158 372 158 461.5 158 c 128,-1,10
 551 158 551 158 583.5 231.5 c 128,-1,11
 616 305 616 305 616 481 c 2,12,-1
 616 854 l 1,0,1
421 1101 m 0,13,14
 548 1101 548 1101 612 1025 c 1,15,16
 612 1067 612 1067 601 1219.5 c 128,-1,17
 590 1372 590 1372 575 1407 c 1,18,-1
 358 1281 l 1,19,-1
 299 1399 l 1,20,-1
 507 1520 l 1,21,22
 423 1617 423 1617 282 1635 c 1,23,-1
 349 1779 l 1,24,25
 563 1769 563 1769 683 1620 c 1,26,-1
 883 1735 l 1,27,-1
 942 1617 l 1,28,-1
 753 1507 l 1,29,30
 780 1451 780 1451 801 1223 c 128,-1,31
 822 995 822 995 822 909 c 2,32,-1
 822 516 l 2,33,34
 822 309 822 309 790 214 c 128,-1,35
 758 119 758 119 718 75 c 0,36,37
 633 -20 633 -20 445 -20 c 0,38,39
 256 -20 256 -20 180 100 c 128,-1,40
 104 220 104 220 104 462 c 2,41,-1
 104 571 l 2,42,43
 104 859 104 859 176.5 980 c 128,-1,44
 249 1101 249 1101 421 1101 c 0,13,14
EndSplineSet
EndChar

StartChar: divide
Encoding: 247 247 184
Width: 804
Flags: W
LayerCount: 2
UndoRedoHistory
Layer: 1
Undoes
EndUndoes
Redoes
EndRedoes
EndUndoRedoHistory
Fore
SplineSet
303 1314 m 1,0,-1
 501 1314 l 1,1,-1
 501 1016 l 1,2,-1
 303 1016 l 1,3,-1
 303 1314 l 1,0,-1
303 495 m 1,4,-1
 501 495 l 1,5,-1
 501 197 l 1,6,-1
 303 197 l 1,7,-1
 303 495 l 1,4,-1
94 838 m 1,8,-1
 710 838 l 1,9,-1
 710 671 l 1,10,-1
 94 671 l 1,11,-1
 94 838 l 1,8,-1
EndSplineSet
EndChar

StartChar: oslash
Encoding: 248 248 185
Width: 879
Flags: W
LayerCount: 2
UndoRedoHistory
Layer: 1
Undoes
EndUndoes
Redoes
EndRedoes
EndUndoRedoHistory
Fore
SplineSet
219 74 m 1,0,1
 124 182 124 182 124 496 c 2,2,-1
 124 1027 l 2,3,4
 124 1392 124 1392 292 1482 c 0,5,6
 360 1518 360 1518 454.5 1518 c 128,-1,7
 549 1518 549 1518 615 1486 c 1,8,-1
 667 1672 l 1,9,-1
 768 1644 l 1,10,-1
 704 1415 l 1,11,12
 790 1303 790 1303 790 1027 c 2,13,-1
 790 496 l 2,14,15
 790 180 790 180 705 81 c 128,-1,16
 620 -18 620 -18 459 -18 c 0,17,18
 372 -18 372 -18 309 9 c 1,19,-1
 258 -173 l 1,20,-1
 158 -145 l 1,21,-1
 219 74 l 1,0,1
365 207 m 1,22,23
 393 153 393 153 462 153 c 0,24,25
 463 153 463 153 465 153 c 0,26,27
 537 154 537 154 560.5 228 c 128,-1,28
 584 302 584 302 584 439 c 2,29,-1
 584 988 l 1,30,-1
 365 207 l 1,22,23
557 1279 m 1,31,32
 530 1347 530 1347 453.5 1347 c 128,-1,33
 377 1347 377 1347 353.5 1274 c 128,-1,34
 330 1201 330 1201 330 1068 c 2,35,-1
 330 469 l 1,36,-1
 557 1279 l 1,31,32
EndSplineSet
EndChar

StartChar: thorn
Encoding: 254 254 191
Width: 939
Flags: W
LayerCount: 2
UndoRedoHistory
Layer: 1
Undoes
EndUndoes
Redoes
EndRedoes
EndUndoRedoHistory
Fore
SplineSet
608 1065 m 2,0,1
 608 1243 608 1243 579 1294 c 128,-1,2
 550 1345 550 1345 493 1345 c 128,-1,3
 436 1345 436 1345 412 1321.5 c 128,-1,4
 388 1298 388 1298 370.5 1249.5 c 128,-1,5
 353 1201 353 1201 353 1065 c 2,6,-1
 353 452 l 2,7,8
 353 292 353 292 380 224 c 128,-1,9
 407 156 407 156 482 155 c 0,10,-1
 483 156 l 0,11,12
 559 156 559 156 583.5 225 c 128,-1,13
 608 294 608 294 608 460 c 2,14,-1
 608 1065 l 2,0,1
147 1779 m 1,15,-1
 353 1779 l 1,16,-1
 353 1375 l 1,17,18
 381 1445 381 1445 437 1479 c 0,19,20
 494 1513 494 1513 558 1513 c 0,21,22
 737 1513 737 1513 784 1327 c 0,23,24
 814 1211 814 1211 814 1030 c 2,25,-1
 814 487 l 2,26,27
 814 188 814 188 738 85 c 128,-1,28
 662 -18 662 -18 526 -18 c 0,29,30
 472 -18 472 -18 425.5 16 c 128,-1,31
 379 50 379 50 353 100 c 1,32,-1
 353 -274 l 1,33,-1
 147 -274 l 1,34,-1
 147 1779 l 1,15,-1
EndSplineSet
EndChar

StartChar: Hbar
Encoding: 294 294 231
Width: 984
Flags: W
LayerCount: 2
UndoRedoHistory
Layer: 1
Undoes
EndUndoes
Redoes
EndRedoes
EndUndoRedoHistory
Fore
SplineSet
633 1760 m 1,0,-1
 840 1760 l 1,1,-1
 840 1504 l 1,2,-1
 951 1504 l 1,3,-1
 951 1398 l 1,4,-1
 840 1398 l 1,5,-1
 840 0 l 1,6,-1
 633 0 l 1,7,-1
 633 838 l 1,8,-1
 351 838 l 1,9,-1
 351 0 l 1,10,-1
 144 0 l 1,11,-1
 144 1398 l 1,12,-1
 55 1398 l 1,13,-1
 55 1504 l 1,14,-1
 144 1504 l 1,15,-1
 144 1760 l 1,16,-1
 351 1760 l 1,17,-1
 351 1504 l 1,18,-1
 633 1504 l 1,19,-1
 633 1760 l 1,0,-1
351 1398 m 1,20,-1
 351 1007 l 1,21,-1
 633 1007 l 1,22,-1
 633 1398 l 1,23,-1
 351 1398 l 1,20,-1
EndSplineSet
EndChar

StartChar: hbar
Encoding: 295 295 232
Width: 969
Flags: W
LayerCount: 2
UndoRedoHistory
Layer: 1
Undoes
EndUndoes
Redoes
EndRedoes
EndUndoRedoHistory
Fore
SplineSet
145 1779 m 1,0,-1
 350 1779 l 1,1,-1
 350 1692 l 1,2,-1
 561 1692 l 1,3,-1
 561 1576 l 1,4,-1
 350 1576 l 1,5,-1
 350 1341 l 1,6,7
 371 1414 371 1414 437 1466 c 0,8,9
 504 1518 504 1518 604 1518.5 c 128,-1,10
 704 1519 704 1519 767 1437.5 c 128,-1,11
 830 1356 830 1356 830 1196 c 2,12,-1
 830 0 l 1,13,-1
 625 0 l 1,14,-1
 625 1179 l 2,15,16
 625 1342 625 1342 502 1342 c 0,17,18
 435 1342 435 1342 392.5 1294.5 c 128,-1,19
 350 1247 350 1247 350 1154 c 2,20,-1
 350 0 l 1,21,-1
 145 0 l 1,22,-1
 145 1576 l 1,23,-1
 0 1576 l 1,24,-1
 0 1692 l 1,25,-1
 145 1692 l 1,26,-1
 145 1779 l 1,0,-1
EndSplineSet
EndChar

StartChar: dotlessi
Encoding: 305 305 242
Width: 504
Flags: W
LayerCount: 2
UndoRedoHistory
Layer: 1
Undoes
EndUndoes
Redoes
EndRedoes
EndUndoRedoHistory
Fore
SplineSet
149 1500 m 1,0,-1
 355 1500 l 1,1,-1
 355 0 l 1,2,-1
 149 0 l 1,3,-1
 149 1500 l 1,0,-1
EndSplineSet
EndChar

StartChar: kgreenlandic
Encoding: 312 312 249
Width: 866
Flags: W
LayerCount: 2
UndoRedoHistory
Layer: 1
Undoes
EndUndoes
Redoes
EndRedoes
EndUndoRedoHistory
Fore
SplineSet
147 1500 m 1,0,-1
 352 1500 l 1,1,-1
 352 787 l 1,2,-1
 647 1500 l 1,3,-1
 854 1500 l 1,4,-1
 538 759 l 1,5,-1
 871 0 l 1,6,-1
 660 0 l 1,7,-1
 352 730 l 1,8,-1
 352 0 l 1,9,-1
 147 0 l 1,10,-1
 147 1500 l 1,0,-1
EndSplineSet
EndChar

StartChar: Lslash
Encoding: 321 321 258
Width: 748
Flags: W
LayerCount: 2
UndoRedoHistory
Layer: 1
Undoes
EndUndoes
Redoes
EndRedoes
EndUndoRedoHistory
Fore
SplineSet
144 1760 m 1,0,-1
 351 1760 l 1,1,-1
 351 1057 l 1,2,-1
 554 1139 l 1,3,-1
 554 987 l 1,4,-1
 351 905 l 1,5,-1
 351 171 l 1,6,-1
 676 171 l 1,7,-1
 676 0 l 1,8,-1
 144 0 l 1,9,-1
 144 822 l 1,10,-1
 -1 764 l 1,11,-1
 -1 916 l 1,12,-1
 144 974 l 1,13,-1
 144 1760 l 1,0,-1
EndSplineSet
EndChar

StartChar: lslash
Encoding: 322 322 259
Width: 691
Flags: W
LayerCount: 2
UndoRedoHistory
Layer: 1
Undoes
EndUndoes
Redoes
EndRedoes
EndUndoRedoHistory
Fore
SplineSet
215 1779 m 1,0,-1
 420 1779 l 1,1,-1
 420 1073 l 1,2,-1
 601 1153 l 1,3,-1
 601 986 l 1,4,-1
 420 906 l 1,5,-1
 420 0 l 1,6,-1
 215 0 l 1,7,-1
 215 816 l 1,8,-1
 75 754 l 1,9,-1
 75 921 l 1,10,-1
 215 983 l 1,11,-1
 215 1779 l 1,0,-1
EndSplineSet
EndChar

StartChar: OE
Encoding: 338 338 272
Width: 1214
Flags: W
LayerCount: 2
UndoRedoHistory
Layer: 1
Undoes
EndUndoes
Redoes
EndRedoes
EndUndoRedoHistory
Fore
SplineSet
609 178 m 1,0,-1
 609 1581 l 1,1,-1
 478 1581 l 2,2,3
 393 1581 393 1581 362 1518 c 128,-1,4
 331 1455 331 1455 331 1293 c 2,5,-1
 331 505 l 2,6,7
 331 307 331 307 357.5 243 c 128,-1,8
 384 179 384 179 473 178 c 1,9,-1
 609 178 l 1,0,-1
478 1760 m 2,10,-1
 1112 1760 l 1,11,-1
 1112 1588 l 1,12,-1
 815 1588 l 1,13,-1
 815 986 l 1,14,-1
 1095 986 l 1,15,-1
 1095 812 l 1,16,-1
 815 812 l 1,17,-1
 815 172 l 1,18,-1
 1117 172 l 1,19,-1
 1117 0 l 1,20,-1
 473 0 l 2,21,22
 279 0 279 0 201.5 118 c 128,-1,23
 124 236 124 236 124 507 c 2,24,-1
 124 1282 l 2,25,26
 124 1516 124 1516 198 1638 c 0,27,28
 272 1760 272 1760 478 1760 c 2,10,-1
EndSplineSet
EndChar

StartChar: oe
Encoding: 339 339 273
Width: 1358
Flags: W
LayerCount: 2
UndoRedoHistory
Layer: 1
Undoes
EndUndoes
Redoes
EndRedoes
EndUndoRedoHistory
Fore
SplineSet
1038 1073 m 2,0,1
 1038 1234 1038 1234 1026.5 1266 c 128,-1,2
 1015 1298 1015 1298 998.5 1323 c 128,-1,3
 982 1348 982 1348 937 1348 c 0,4,5
 936 1348 936 1348 935 1349 c 0,6,7
 860 1349 860 1349 828 1296 c 0,8,9
 795 1242 795 1242 795 1061 c 2,10,-1
 795 889 l 1,11,-1
 1038 889 l 1,12,-1
 1038 1073 l 2,0,1
588 1068 m 2,13,14
 588 1240 588 1240 554 1294 c 0,15,16
 521 1348 521 1348 472 1348 c 0,17,18
 471 1348 l 0,19,20
 379 1347 379 1347 355 1272.5 c 128,-1,21
 331 1198 331 1198 331 1068 c 2,22,-1
 331 439 l 2,23,24
 331 218 331 218 394 172 c 0,25,26
 420 152 420 152 459 152 c 0,27,28
 460 152 460 152 461 152 c 0,29,30
 539 153 539 153 563.5 228.5 c 128,-1,31
 588 304 588 304 588 439 c 2,32,-1
 588 1068 l 2,13,14
693 1403 m 1,33,34
 778 1518 778 1518 927 1518 c 0,35,36
 1152 1518 1152 1518 1210 1323 c 0,37,38
 1242 1214 1242 1214 1242 982 c 0,39,40
 1242 905 1242 905 1243 852 c 0,41,42
 1243 747 1243 747 1242 740 c 1,43,-1
 794 740 l 1,44,-1
 794 444 l 2,45,46
 794 249 794 249 825 201 c 128,-1,47
 856 153 856 153 917 153 c 128,-1,48
 978 153 978 153 1002.5 194 c 128,-1,49
 1027 235 1027 235 1032.5 296.5 c 128,-1,50
 1038 358 1038 358 1038 459.5 c 128,-1,51
 1038 561 1038 561 1037 562 c 1,52,-1
 1240 562 l 1,53,-1
 1240 502 l 2,54,55
 1240 262 1240 262 1206 166.5 c 128,-1,56
 1172 71 1172 71 1104.5 26.5 c 128,-1,57
 1037 -18 1037 -18 919 -18 c 0,58,59
 770 -18 770 -18 689 96 c 1,60,61
 605 -18 605 -18 462 -18 c 0,62,63
 226 -18 226 -18 162 182 c 0,64,65
 124 299 124 299 124 497 c 2,66,-1
 124 1027 l 2,67,68
 124 1391 124 1391 295 1482 c 0,69,70
 363 1518 363 1518 462 1518 c 0,71,72
 608 1518 608 1518 693 1403 c 1,33,34
EndSplineSet
EndChar

StartChar: florin
Encoding: 402 402 313
Width: 767
Flags: W
LayerCount: 2
UndoRedoHistory
Layer: 1
Undoes
EndUndoes
Redoes
EndRedoes
EndUndoRedoHistory
Fore
SplineSet
115 157 m 1,0,-1
 167 154 l 1,1,2
 243 154 243 154 264.5 183.5 c 128,-1,3
 286 213 286 213 286 305 c 2,4,-1
 286 1102 l 1,5,-1
 107 1102 l 1,6,-1
 107 1255 l 1,7,-1
 286 1255 l 1,8,-1
 286 1539 l 2,9,10
 286 1785 286 1785 483 1785 c 0,11,12
 564 1785 564 1785 652 1752 c 1,13,-1
 652 1603 l 1,14,15
 589 1622 589 1622 551.5 1622 c 128,-1,16
 514 1622 514 1622 497 1594 c 128,-1,17
 480 1566 480 1566 480 1503 c 2,18,-1
 480 1255 l 1,19,-1
 662 1255 l 1,20,-1
 662 1102 l 1,21,-1
 480 1102 l 1,22,-1
 480 221 l 2,23,24
 480 -15 480 -15 270 -15 c 0,25,26
 198 -15 198 -15 115 8 c 1,27,-1
 115 157 l 1,0,-1
EndSplineSet
EndChar

StartChar: uni0237
Encoding: 567 567 356
Width: 540
Flags: W
LayerCount: 2
UndoRedoHistory
Layer: 1
Undoes
EndUndoes
Redoes
EndRedoes
EndUndoRedoHistory
Fore
SplineSet
86 -6 m 1,0,1
 100 -8 100 -8 115.5 -8 c 128,-1,2
 131 -8 131 -8 139 -7 c 0,3,4
 188 -2 188 -2 188 60 c 2,5,-1
 188 1500 l 1,6,-1
 394 1500 l 1,7,-1
 394 70 l 2,8,9
 394 -48 394 -48 345.5 -101.5 c 128,-1,10
 297 -155 297 -155 227 -159 c 0,11,12
 205 -161 205 -161 150.5 -161 c 128,-1,13
 96 -161 96 -161 80 -150 c 1,14,-1
 80 -6 l 1,15,-1
 86 -6 l 1,0,1
EndSplineSet
EndChar

StartChar: circumflex
Encoding: 710 710 357
Width: 970
Flags: W
LayerCount: 2
UndoRedoHistory
Layer: 1
Undoes
EndUndoes
Redoes
EndRedoes
EndUndoRedoHistory
Fore
SplineSet
369 1886 m 1,0,-1
 601 1886 l 1,1,-1
 754 1592 l 1,2,-1
 571 1592 l 1,3,-1
 485 1797 l 1,4,-1
 399 1592 l 1,5,-1
 215 1592 l 1,6,-1
 369 1886 l 1,0,-1
EndSplineSet
EndChar

StartChar: caron
Encoding: 711 711 358
Width: 970
Flags: W
LayerCount: 2
UndoRedoHistory
Layer: 1
Undoes
EndUndoes
Redoes
EndRedoes
EndUndoRedoHistory
Fore
SplineSet
571 1886 m 1,0,-1
 754 1886 l 1,1,-1
 601 1592 l 1,2,-1
 369 1592 l 1,3,-1
 215 1886 l 1,4,-1
 399 1886 l 1,5,-1
 485 1681 l 1,6,-1
 571 1886 l 1,0,-1
EndSplineSet
EndChar

StartChar: uni02C9
Encoding: 713 713 359
Width: 696
Flags: W
LayerCount: 2
UndoRedoHistory
Layer: 1
Undoes
EndUndoes
Redoes
EndRedoes
EndUndoRedoHistory
Fore
SplineSet
90 741 m 1,0,-1
 606 741 l 1,1,-1
 606 599 l 1,2,-1
 90 599 l 1,3,-1
 90 741 l 1,0,-1
EndSplineSet
EndChar

StartChar: breve
Encoding: 728 728 360
Width: 1016
Flags: W
LayerCount: 2
UndoRedoHistory
Layer: 1
Undoes
EndUndoes
Redoes
EndRedoes
EndUndoRedoHistory
Fore
SplineSet
635 1856 m 1,0,-1
 741 1856 l 1,1,-1
 741 1843 l 2,2,3
 742 1734 742 1734 682 1676 c 128,-1,4
 622 1618 622 1618 506 1617.5 c 128,-1,5
 390 1617 390 1617 330.5 1675 c 128,-1,6
 271 1733 271 1733 271 1841 c 2,7,-1
 271 1856 l 1,8,-1
 377 1856 l 1,9,10
 377 1736 377 1736 507 1735 c 0,11,12
 565 1734.5 565 1734.5 600 1760 c 128,-1,13
 635 1785.5 635 1785.5 635 1856 c 1,0,-1
EndSplineSet
EndChar

StartChar: dotaccent
Encoding: 729 729 361
Width: 572
Flags: W
LayerCount: 2
UndoRedoHistory
Layer: 1
Undoes
EndUndoes
Redoes
EndRedoes
EndUndoRedoHistory
Fore
SplineSet
184 583 m 1,0,-1
 397 583 l 1,1,-1
 397 405 l 1,2,-1
 184 405 l 1,3,-1
 184 583 l 1,0,-1
EndSplineSet
EndChar

StartChar: ring
Encoding: 730 730 362
Width: 923
Flags: W
LayerCount: 2
UndoRedoHistory
Layer: 1
Undoes
EndUndoes
Redoes
EndRedoes
EndUndoRedoHistory
Fore
SplineSet
571 584 m 128,-1,1
 571 631 571 631 542 665.5 c 128,-1,2
 513 700 513 700 462 700 c 128,-1,3
 411 700 411 700 382.5 665.5 c 128,-1,4
 354 631 354 631 354 584 c 128,-1,5
 354 537 354 537 382.5 502.5 c 128,-1,6
 411 468 411 468 462 468 c 128,-1,7
 513 468 513 468 542 502.5 c 128,-1,0
 571 537 571 537 571 584 c 128,-1,1
314.5 450.5 m 128,-1,9
 261 505 261 505 261 583.5 c 128,-1,10
 261 662 261 662 314.5 716.5 c 128,-1,11
 368 771 368 771 461 771 c 128,-1,12
 554 771 554 771 607.5 716.5 c 128,-1,13
 661 662 661 662 661 583.5 c 128,-1,14
 661 505 661 505 607.5 450.5 c 128,-1,15
 554 396 554 396 461 396 c 128,-1,8
 368 396 368 396 314.5 450.5 c 128,-1,9
EndSplineSet
EndChar

StartChar: ogonek
Encoding: 731 731 363
Width: 711
Flags: W
LayerCount: 2
UndoRedoHistory
Layer: 1
Undoes
EndUndoes
Redoes
EndRedoes
EndUndoRedoHistory
Fore
SplineSet
342 0 m 1,0,-1
 427 0 l 1,1,2
 336 -89 336 -89 281.5 -188 c 128,-1,3
 227 -287 227 -287 227 -357 c 0,4,5
 227 -496 227 -496 376 -496 c 0,6,7
 448 -496 448 -496 508 -476 c 1,8,-1
 508 -591 l 1,9,10
 488 -602 488 -602 437 -614 c 128,-1,11
 386 -626 386 -626 339 -626 c 0,12,13
 207 -626 207 -626 138 -563 c 128,-1,14
 69 -500 69 -500 69 -395.5 c 128,-1,15
 69 -291 69 -291 141.5 -181.5 c 128,-1,16
 214 -72 214 -72 342 0 c 1,0,-1
EndSplineSet
EndChar

StartChar: tilde
Encoding: 732 732 364
Width: 1117
Flags: W
LayerCount: 2
UndoRedoHistory
Layer: 1
Undoes
EndUndoes
Redoes
EndRedoes
EndUndoRedoHistory
Fore
SplineSet
245 492 m 1,0,1
 272 585 272 585 316 617.5 c 128,-1,2
 360 650 360 650 414.5 650 c 128,-1,3
 469 650 469 650 567.5 613 c 128,-1,4
 666 576 666 576 687 576 c 2,5,-1
 691 576 l 1,6,7
 708 579 708 579 720.5 592.5 c 128,-1,8
 733 606 733 606 747 647 c 1,9,-1
 870 619 l 1,10,-1
 861 582 l 1,11,12
 836 487 836 487 801 454.5 c 128,-1,13
 766 422 766 422 713 422 c 128,-1,14
 660 422 660 422 565.5 463 c 128,-1,15
 471 504 471 504 442.5 504 c 128,-1,16
 414 504 414 504 398 500 c 0,17,18
 382 496 382 496 356 443 c 1,19,-1
 245 492 l 1,0,1
EndSplineSet
EndChar

StartChar: hungarumlaut
Encoding: 733 733 365
Width: 1170
Flags: W
LayerCount: 2
UndoRedoHistory
Layer: 1
Undoes
EndUndoes
Redoes
EndRedoes
EndUndoRedoHistory
Fore
SplineSet
276 505 m 1,0,-1
 404 1020 l 1,1,-1
 589 933 l 1,2,-1
 366 467 l 1,3,-1
 276 505 l 1,0,-1
568 505 m 1,4,-1
 753 1020 l 1,5,-1
 941 925 l 1,6,-1
 657 459 l 1,7,-1
 568 505 l 1,4,-1
EndSplineSet
EndChar

StartChar: uni0302
Encoding: 770 770 366
Width: 697
Flags: W
LayerCount: 2
UndoRedoHistory
Layer: 1
Undoes
EndUndoes
Redoes
EndRedoes
EndUndoRedoHistory
Fore
SplineSet
239 1760 m 1,0,-1
 471 1760 l 1,1,-1
 624 1468 l 1,2,-1
 441 1468 l 1,3,-1
 355 1673 l 1,4,-1
 269 1468 l 1,5,-1
 85 1468 l 1,6,-1
 239 1760 l 1,0,-1
EndSplineSet
EndChar

StartChar: uni0307
Encoding: 775 775 367
Width: 572
Flags: W
LayerCount: 2
UndoRedoHistory
Layer: 1
Undoes
EndUndoes
Redoes
EndRedoes
EndUndoRedoHistory
Fore
SplineSet
187 727 m 1,0,-1
 395 727 l 1,1,-1
 395 458 l 1,2,-1
 187 458 l 1,3,-1
 187 727 l 1,0,-1
EndSplineSet
EndChar

StartChar: dblgravecmb
Encoding: 783 783 368
Width: 825
Flags: W
LayerCount: 2
UndoRedoHistory
Layer: 1
Undoes
EndUndoes
Redoes
EndRedoes
EndUndoRedoHistory
Fore
SplineSet
381 1700 m 1,0,-1
 539 1779 l 1,1,-1
 699 1293 l 1,2,-1
 605 1243 l 1,3,-1
 381 1700 l 1,0,-1
58 1702 m 1,4,-1
 210 1779 l 1,5,-1
 407 1293 l 1,6,-1
 313 1243 l 1,7,-1
 58 1702 l 1,4,-1
EndSplineSet
EndChar

StartChar: uni0311
Encoding: 785 785 369
Width: 1016
Flags: W
LayerCount: 2
UndoRedoHistory
Layer: 1
Undoes
EndUndoes
Redoes
EndRedoes
EndUndoRedoHistory
Fore
SplineSet
270 1619 m 1,0,-1
 270 1639 l 2,1,2
 270 1743 270 1743 328 1803 c 128,-1,3
 386 1863 386 1863 503 1863 c 0,4,5
 736 1863 736 1863 740 1643 c 1,6,-1
 740 1628 l 1,7,-1
 634 1626 l 1,8,9
 633 1745 633 1745 506 1745 c 0,10,11
 446 1745 446 1745 410.5 1718 c 128,-1,12
 375 1691 375 1691 376 1621 c 1,13,-1
 270 1619 l 1,0,-1
EndSplineSet
EndChar

StartChar: commaaccentcomb
Encoding: 806 806 370
Width: 528
Flags: W
LayerCount: 2
UndoRedoHistory
Layer: 1
Undoes
EndUndoes
Redoes
EndRedoes
EndUndoRedoHistory
Fore
SplineSet
145 128 m 1,0,-1
 379 128 l 1,1,-1
 379 -90 l 1,2,-1
 294 -387 l 1,3,-1
 204 -387 l 1,4,-1
 253 -99 l 1,5,-1
 145 -99 l 1,6,-1
 145 128 l 1,0,-1
EndSplineSet
EndChar

StartChar: Delta
Encoding: 916 916 371
Width: 939
Flags: W
LayerCount: 2
UndoRedoHistory
Layer: 1
Undoes
EndUndoes
Redoes
EndRedoes
EndUndoRedoHistory
Fore
SplineSet
653 168 m 1,0,-1
 463 1434 l 1,1,-1
 460 1434 l 1,2,-1
 286 168 l 1,3,-1
 653 168 l 1,0,-1
333 1760 m 1,4,-1
 582 1760 l 1,5,-1
 873 0 l 1,6,-1
 66 0 l 1,7,-1
 333 1760 l 1,4,-1
EndSplineSet
EndChar

StartChar: mu
Encoding: 956 956 372
Width: 971
Flags: W
LayerCount: 2
UndoRedoHistory
Layer: 1
Undoes
EndUndoes
Redoes
EndRedoes
EndUndoRedoHistory
Fore
SplineSet
616 1500 m 1,0,-1
 822 1500 l 1,1,-1
 822 0 l 1,2,-1
 616 0 l 1,3,-1
 616 153 l 1,4,5
 592 77 592 77 533.5 28.5 c 128,-1,6
 475 -20 475 -20 388 -20 c 0,7,8
 358 -20 358 -20 338 -15 c 1,9,-1
 338 -186 l 1,10,-1
 137 -186 l 1,11,-1
 137 1500 l 1,12,-1
 342 1500 l 1,13,-1
 342 335 l 2,14,15
 342 158 342 158 471 158 c 0,16,17
 543 158 543 158 579.5 208 c 128,-1,18
 616 258 616 258 616 340 c 2,19,-1
 616 1500 l 1,0,-1
EndSplineSet
EndChar

StartChar: endash
Encoding: 8211 8211 396
Width: 756
Flags: W
LayerCount: 2
UndoRedoHistory
Layer: 1
Undoes
EndUndoes
Redoes
EndRedoes
EndUndoRedoHistory
Fore
SplineSet
120 741 m 1,0,-1
 636 741 l 1,1,-1
 636 550 l 1,2,-1
 120 550 l 1,3,-1
 120 741 l 1,0,-1
EndSplineSet
EndChar

StartChar: emdash
Encoding: 8212 8212 397
Width: 1153
Flags: W
LayerCount: 2
UndoRedoHistory
Layer: 1
Undoes
EndUndoes
Redoes
EndRedoes
EndUndoRedoHistory
Fore
SplineSet
60 741 m 1,0,-1
 1092 741 l 1,1,-1
 1092 570 l 1,2,-1
 60 570 l 1,3,-1
 60 741 l 1,0,-1
EndSplineSet
EndChar

StartChar: quoteleft
Encoding: 8216 8216 398
Width: 591
Flags: W
LayerCount: 2
UndoRedoHistory
Layer: 1
Undoes
EndUndoes
Redoes
EndRedoes
EndUndoRedoHistory
Fore
SplineSet
268 1760 m 1,0,-1
 397 1760 l 1,1,-1
 305 1337 l 1,2,-1
 453 1337 l 1,3,-1
 453 1097 l 1,4,-1
 144 1097 l 1,5,-1
 144 1328 l 1,6,-1
 268 1760 l 1,0,-1
EndSplineSet
EndChar

StartChar: quoteright
Encoding: 8217 8217 399
Width: 591
Flags: W
LayerCount: 2
UndoRedoHistory
Layer: 1
Undoes
EndUndoes
Redoes
EndRedoes
EndUndoRedoHistory
Fore
SplineSet
160 1760 m 1,0,-1
 469 1760 l 1,1,-1
 469 1529 l 1,2,-1
 344 1097 l 1,3,-1
 215 1097 l 1,4,-1
 307 1520 l 1,5,-1
 160 1520 l 1,6,-1
 160 1760 l 1,0,-1
EndSplineSet
EndChar

StartChar: quotesinglbase
Encoding: 8218 8218 400
Width: 484
Flags: W
LayerCount: 2
UndoRedoHistory
Layer: 1
Undoes
EndUndoes
Redoes
EndRedoes
EndUndoRedoHistory
Fore
SplineSet
97 232 m 1,0,-1
 399 232 l 1,1,-1
 399 9 l 1,2,-1
 285 -382 l 1,3,-1
 152 -382 l 1,4,-1
 238 0 l 1,5,-1
 97 0 l 1,6,-1
 97 232 l 1,0,-1
EndSplineSet
EndChar

StartChar: quotedblleft
Encoding: 8220 8220 401
Width: 1030
Flags: W
LayerCount: 2
UndoRedoHistory
Layer: 1
Undoes
EndUndoes
Redoes
EndRedoes
EndUndoRedoHistory
Fore
SplineSet
273 1760 m 1,0,-1
 406 1760 l 1,1,-1
 320 1359 l 1,2,-1
 461 1359 l 1,3,-1
 461 1126 l 1,4,-1
 159 1126 l 1,5,-1
 159 1350 l 1,6,-1
 273 1760 l 1,0,-1
730 1760 m 1,7,-1
 862 1760 l 1,8,-1
 776 1359 l 1,9,-1
 917 1359 l 1,10,-1
 917 1126 l 1,11,-1
 615 1126 l 1,12,-1
 615 1350 l 1,13,-1
 730 1760 l 1,7,-1
EndSplineSet
EndChar

StartChar: quotedblright
Encoding: 8221 8221 402
Width: 1077
Flags: W
LayerCount: 2
UndoRedoHistory
Layer: 1
Undoes
EndUndoes
Redoes
EndRedoes
EndUndoRedoHistory
Fore
SplineSet
173 1760 m 1,0,-1
 475 1760 l 1,1,-1
 475 1536 l 1,2,-1
 361 1126 l 1,3,-1
 228 1126 l 1,4,-1
 314 1527 l 1,5,-1
 173 1527 l 1,6,-1
 173 1760 l 1,0,-1
630 1760 m 1,7,-1
 932 1760 l 1,8,-1
 932 1536 l 1,9,-1
 817 1126 l 1,10,-1
 684 1126 l 1,11,-1
 770 1527 l 1,12,-1
 630 1527 l 1,13,-1
 630 1760 l 1,7,-1
EndSplineSet
EndChar

StartChar: quotedblbase
Encoding: 8222 8222 403
Width: 1016
Flags: W
LayerCount: 2
UndoRedoHistory
Layer: 1
Undoes
EndUndoes
Redoes
EndRedoes
EndUndoRedoHistory
Fore
SplineSet
166 233 m 1,0,-1
 468 233 l 1,1,-1
 468 9 l 1,2,-1
 353 -401 l 1,3,-1
 221 -401 l 1,4,-1
 307 0 l 1,5,-1
 166 0 l 1,6,-1
 166 233 l 1,0,-1
622 233 m 1,7,-1
 924 233 l 1,8,-1
 924 9 l 1,9,-1
 810 -401 l 1,10,-1
 677 -401 l 1,11,-1
 763 0 l 1,12,-1
 622 0 l 1,13,-1
 622 233 l 1,7,-1
EndSplineSet
EndChar

StartChar: dagger
Encoding: 8224 8224 404
Width: 909
Flags: W
LayerCount: 2
UndoRedoHistory
Layer: 1
Undoes
EndUndoes
Redoes
EndRedoes
EndUndoRedoHistory
Fore
SplineSet
352 1592 m 1,0,-1
 560 1592 l 1,1,-1
 560 1182 l 1,2,-1
 818 1182 l 1,3,-1
 818 1017 l 1,4,-1
 560 1017 l 1,5,-1
 560 0 l 1,6,-1
 352 0 l 1,7,-1
 352 1017 l 1,8,-1
 91 1017 l 1,9,-1
 91 1182 l 1,10,-1
 352 1182 l 1,11,-1
 352 1592 l 1,0,-1
EndSplineSet
EndChar

StartChar: daggerdbl
Encoding: 8225 8225 405
Width: 927
Flags: W
LayerCount: 2
UndoRedoHistory
Layer: 1
Undoes
EndUndoes
Redoes
EndRedoes
EndUndoRedoHistory
Fore
SplineSet
352 1592 m 1,0,-1
 560 1592 l 1,1,-1
 560 1182 l 1,2,-1
 818 1182 l 1,3,-1
 818 1017 l 1,4,-1
 560 1017 l 1,5,-1
 560 668 l 1,6,-1
 818 668 l 1,7,-1
 818 503 l 1,8,-1
 560 503 l 1,9,-1
 560 0 l 1,10,-1
 352 0 l 1,11,-1
 352 503 l 1,12,-1
 91 503 l 1,13,-1
 91 668 l 1,14,-1
 352 668 l 1,15,-1
 352 1017 l 1,16,-1
 91 1017 l 1,17,-1
 91 1182 l 1,18,-1
 352 1182 l 1,19,-1
 352 1592 l 1,0,-1
EndSplineSet
EndChar

StartChar: bullet
Encoding: 8226 8226 406
Width: 861
Flags: W
LayerCount: 2
UndoRedoHistory
Layer: 1
Undoes
EndUndoes
Redoes
EndRedoes
EndUndoRedoHistory
Fore
SplineSet
197 741 m 0,0,1
 196 865 196 865 256 932 c 128,-1,2
 316 999 316 999 430 999 c 128,-1,3
 544 999 544 999 604 932 c 128,-1,4
 664 865 664 865 664 741 c 128,-1,5
 664 617 664 617 604 550 c 128,-1,6
 544 483 544 483 430 483 c 128,-1,7
 316 483 316 483 256.5 550 c 128,-1,8
 197 617 197 617 197 741 c 0,0,1
EndSplineSet
EndChar

StartChar: perthousand
Encoding: 8240 8240 407
Width: 3042
Flags: W
LayerCount: 2
UndoRedoHistory
Layer: 1
Undoes
EndUndoes
Redoes
EndRedoes
EndUndoRedoHistory
Fore
SplineSet
2701 832 m 2,0,1
 2701 940 2701 940 2675 980 c 128,-1,2
 2649 1020 2649 1020 2576 1020 c 128,-1,3
 2503 1020 2503 1020 2477 979.5 c 128,-1,4
 2451 939 2451 939 2451 832 c 2,5,-1
 2451 336 l 2,6,7
 2451 226 2451 226 2477.5 183.5 c 128,-1,8
 2504 141 2504 141 2576 141 c 128,-1,9
 2648 141 2648 141 2674.5 183.5 c 128,-1,10
 2701 226 2701 226 2701 336 c 2,11,-1
 2701 832 l 2,0,1
2265 763 m 2,12,13
 2265 997 2265 997 2333 1089 c 0,14,15
 2402 1181 2402 1181 2576 1181 c 128,-1,16
 2750 1181 2750 1181 2818 1089 c 128,-1,17
 2886 997 2886 997 2886 763 c 2,18,-1
 2886 408 l 2,19,20
 2886 170 2886 170 2817 75 c 128,-1,21
 2748 -20 2748 -20 2576 -20 c 128,-1,22
 2404 -20 2404 -20 2334.5 75 c 128,-1,23
 2265 170 2265 170 2265 408 c 2,24,-1
 2265 763 l 2,12,13
1419 763 m 2,25,26
 1419 997 1419 997 1487 1089 c 0,27,28
 1556 1181 1556 1181 1730 1181 c 128,-1,29
 1904 1181 1904 1181 1972 1089 c 128,-1,30
 2040 997 2040 997 2040 763 c 2,31,-1
 2040 408 l 2,32,33
 2040 170 2040 170 1971 75 c 128,-1,34
 1902 -20 1902 -20 1730 -20 c 128,-1,35
 1558 -20 1558 -20 1488.5 75 c 128,-1,36
 1419 170 1419 170 1419 408 c 2,37,-1
 1419 763 l 2,25,26
1854 832 m 2,38,39
 1854 940 1854 940 1828 980 c 128,-1,40
 1802 1020 1802 1020 1729 1020 c 128,-1,41
 1656 1020 1656 1020 1630 979.5 c 128,-1,42
 1604 939 1604 939 1604 832 c 2,43,-1
 1604 336 l 2,44,45
 1604 226 1604 226 1630.5 183.5 c 128,-1,46
 1657 141 1657 141 1729 141 c 128,-1,47
 1801 141 1801 141 1827.5 183.5 c 128,-1,48
 1854 226 1854 226 1854 336 c 2,49,-1
 1854 832 l 2,38,39
156 1364 m 2,50,51
 156 1598 156 1598 224 1690 c 128,-1,52
 292 1782 292 1782 466 1782 c 128,-1,53
 640 1782 640 1782 708.5 1690 c 128,-1,54
 777 1598 777 1598 777 1364 c 2,55,-1
 777 1009 l 2,56,57
 778 771 778 771 708 676 c 0,58,59
 638 581 638 581 466 581 c 128,-1,60
 294 581 294 581 225 676 c 128,-1,61
 156 771 156 771 156 1009 c 2,62,-1
 156 1364 l 2,50,51
591 1433 m 2,63,64
 591 1541 591 1541 565 1581 c 128,-1,65
 539 1621 539 1621 466 1621 c 128,-1,66
 393 1621 393 1621 367 1580.5 c 128,-1,67
 341 1540 341 1540 341 1433 c 2,68,-1
 341 937 l 2,69,70
 341 827 341 827 367.5 784.5 c 128,-1,71
 394 742 394 742 466 742 c 128,-1,72
 538 742 538 742 564.5 784.5 c 128,-1,73
 591 827 591 827 591 937 c 2,74,-1
 591 1433 l 2,63,64
1360 1760 m 1,75,-1
 1531 1760 l 1,76,-1
 831 0 l 1,77,-1
 652 0 l 1,78,-1
 1360 1760 l 1,75,-1
EndSplineSet
EndChar

StartChar: guilsinglleft
Encoding: 8249 8249 408
Width: 606
Flags: W
LayerCount: 2
UndoRedoHistory
Layer: 1
Undoes
EndUndoes
Redoes
EndRedoes
EndUndoRedoHistory
Fore
SplineSet
70 839 m 1,0,-1
 548 1110 l 1,1,-1
 548 903 l 1,2,-1
 236 749 l 1,3,-1
 548 586 l 1,4,-1
 548 372 l 1,5,-1
 70 657 l 1,6,-1
 70 839 l 1,0,-1
EndSplineSet
EndChar

StartChar: guilsinglright
Encoding: 8250 8250 409
Width: 727
Flags: W
LayerCount: 2
UndoRedoHistory
Layer: 1
Undoes
EndUndoes
Redoes
EndRedoes
EndUndoRedoHistory
Fore
SplineSet
153 903 m 1,0,-1
 153 1110 l 1,1,-1
 631 839 l 1,2,-1
 631 657 l 1,3,-1
 153 372 l 1,4,-1
 153 586 l 1,5,-1
 465 749 l 1,6,-1
 153 903 l 1,0,-1
EndSplineSet
EndChar

StartChar: fraction
Encoding: 8260 8260 410
Width: 829
Flags: W
LayerCount: 2
UndoRedoHistory
Layer: 1
Undoes
EndUndoes
Redoes
EndRedoes
EndUndoRedoHistory
Fore
SplineSet
531 1768 m 1,0,-1
 709 1768 l 1,1,-1
 253 0 l 1,2,-1
 76 0 l 1,3,-1
 531 1768 l 1,0,-1
EndSplineSet
EndChar

StartChar: uni2074
Encoding: 8308 8308 411
Width: 855
Flags: W
LayerCount: 2
UndoRedoHistory
Layer: 1
Undoes
EndUndoes
Redoes
EndRedoes
EndUndoRedoHistory
Fore
SplineSet
483 914 m 1,0,-1
 483 1525 l 1,1,-1
 316 914 l 1,2,-1
 483 914 l 1,0,-1
448 1760 m 1,3,-1
 619 1760 l 1,4,-1
 619 914 l 1,5,-1
 711 914 l 1,6,-1
 711 802 l 1,7,-1
 619 802 l 1,8,-1
 619 578 l 1,9,-1
 483 578 l 1,10,-1
 483 802 l 1,11,-1
 188 802 l 1,12,-1
 188 899 l 1,13,-1
 448 1760 l 1,3,-1
EndSplineSet
EndChar

StartChar: Euro
Encoding: 8364 8364 412
Width: 1076
Flags: W
LayerCount: 2
UndoRedoHistory
Layer: 1
Undoes
EndUndoes
Redoes
EndRedoes
EndUndoRedoHistory
Fore
SplineSet
124 1252 m 2,0,1
 124 1452 124 1452 157 1546 c 0,2,3
 190 1641 190 1641 229 1684 c 0,4,5
 314 1778 314 1778 477 1779 c 1,6,7
 705 1778 705 1778 771 1580 c 0,8,9
 809 1466 809 1466 809 1274 c 2,10,-1
 809 1079 l 1,11,-1
 606 1079 l 1,12,-1
 606 1275 l 2,13,14
 606 1444 606 1444 587.5 1503.5 c 128,-1,15
 569 1563 569 1563 543 1582.5 c 128,-1,16
 517 1602 517 1602 477 1602 c 0,17,18
 394 1602 394 1602 362.5 1523.5 c 128,-1,19
 331 1445 331 1445 331 1276 c 2,20,-1
 331 1106 l 1,21,-1
 518 1106 l 1,22,-1
 518 966 l 1,23,-1
 331 966 l 1,24,-1
 331 869 l 1,25,-1
 518 869 l 1,26,-1
 518 721 l 1,27,-1
 331 721 l 1,28,-1
 331 514 l 2,29,30
 331 314 331 314 359.5 234.5 c 128,-1,31
 388 155 388 155 469.5 155 c 128,-1,32
 551 155 551 155 578.5 235 c 128,-1,33
 606 315 606 315 606 515 c 2,34,-1
 606 710 l 1,35,-1
 811 710 l 1,36,-1
 811 517 l 2,37,38
 811 240 811 240 735.5 109.5 c 128,-1,39
 660 -21 660 -21 472 -21 c 128,-1,40
 284 -21 284 -21 204 113.5 c 128,-1,41
 124 248 124 248 124 519 c 2,42,-1
 124 721 l 1,43,-1
 23 721 l 1,44,-1
 23 869 l 1,45,-1
 124 869 l 1,46,-1
 124 966 l 1,47,-1
 23 966 l 1,48,-1
 23 1106 l 1,49,-1
 124 1106 l 1,50,-1
 124 1252 l 2,0,1
EndSplineSet
EndChar

StartChar: trademark
Encoding: 8482 8482 413
Width: 1537
Flags: W
LayerCount: 2
UndoRedoHistory
Layer: 1
Undoes
EndUndoes
Redoes
EndRedoes
EndUndoRedoHistory
Fore
SplineSet
103 1760 m 1,0,-1
 531 1760 l 1,1,-1
 531 1634 l 1,2,-1
 398 1634 l 1,3,-1
 398 475 l 1,4,-1
 246 475 l 1,5,-1
 246 1634 l 1,6,-1
 103 1634 l 1,7,-1
 103 1760 l 1,0,-1
1206 1760 m 1,8,-1
 1413 1760 l 1,9,-1
 1413 475 l 1,10,-1
 1273 475 l 1,11,-1
 1273 1000 l 1,12,-1
 1285 1497 l 1,13,-1
 1115 475 l 1,14,-1
 966 475 l 1,15,-1
 789 1497 l 1,16,-1
 801 1000 l 1,17,-1
 801 475 l 1,18,-1
 661 475 l 1,19,-1
 661 1760 l 1,20,-1
 868 1760 l 1,21,-1
 1040 716 l 1,22,-1
 1206 1760 l 1,8,-1
EndSplineSet
EndChar

StartChar: partialdiff
Encoding: 8706 8706 414
Width: 1072
Flags: W
LayerCount: 2
UndoRedoHistory
Layer: 1
Undoes
EndUndoes
Redoes
EndRedoes
EndUndoRedoHistory
Fore
SplineSet
632 899 m 1,0,1
 568 940 568 940 516 940 c 0,2,3
 411 940 411 940 394 765 c 2,4,-1
 353 345 l 2,5,6
 350 318 350 318 350 296 c 0,7,8
 350 144 350 144 454 144 c 0,9,10
 524 144 524 144 544.5 180 c 128,-1,11
 565 216 565 216 571 289 c 1,12,-1
 632 899 l 1,0,1
684 1329 m 0,13,14
 684 1520 684 1520 506 1520 c 0,15,16
 412 1520 412 1520 283 1486 c 1,17,-1
 259 1607 l 1,18,19
 424 1652 424 1652 530 1652 c 0,20,21
 728 1652 728 1652 798.5 1556 c 128,-1,22
 869 1460 869 1460 869 1303 c 0,23,24
 869 1222 869 1222 850 1099 c 1,25,-1
 750 246 l 2,26,27
 738 143 738 143 671.5 61 c 128,-1,28
 605 -21 605 -21 458.5 -21 c 128,-1,29
 312 -21 312 -21 237 55.5 c 128,-1,30
 162 132 162 132 162 310 c 1,31,-1
 163 341 l 2,32,33
 174 666 174 666 206 798 c 0,34,35
 236 930 236 930 272 982 c 0,36,37
 344 1086 344 1086 485 1086 c 0,38,39
 516 1086 516 1086 531 1083 c 128,-1,40
 546 1080 546 1080 553 1079 c 128,-1,41
 560 1078 560 1078 575.5 1073 c 128,-1,42
 591 1068 591 1068 597.5 1066 c 128,-1,43
 604 1064 604 1064 624.5 1057 c 128,-1,44
 645 1050 645 1050 654 1047 c 1,45,46
 684 1240 684 1240 684 1329 c 0,13,14
EndSplineSet
EndChar

StartChar: product
Encoding: 8719 8719 415
Width: 981
Flags: W
LayerCount: 2
UndoRedoHistory
Layer: 1
Undoes
EndUndoes
Redoes
EndRedoes
EndUndoRedoHistory
Fore
SplineSet
146 1760 m 1,0,-1
 835 1760 l 1,1,-1
 835 0 l 1,2,-1
 631 0 l 1,3,-1
 631 1598 l 1,4,-1
 350 1598 l 1,5,-1
 350 0 l 1,6,-1
 146 0 l 1,7,-1
 146 1760 l 1,0,-1
EndSplineSet
EndChar

StartChar: summation
Encoding: 8721 8721 416
Width: 716
Flags: W
LayerCount: 2
UndoRedoHistory
Layer: 1
Undoes
EndUndoes
Redoes
EndRedoes
EndUndoRedoHistory
Fore
SplineSet
116 1760 m 1,0,-1
 663 1760 l 1,1,-1
 663 1581 l 1,2,-1
 350 1581 l 1,3,-1
 588 880 l 1,4,-1
 350 185 l 1,5,-1
 663 185 l 1,6,-1
 663 0 l 1,7,-1
 116 0 l 1,8,-1
 116 181 l 1,9,-1
 361 881 l 1,10,-1
 116 1585 l 1,11,-1
 116 1760 l 1,0,-1
EndSplineSet
EndChar

StartChar: minus
Encoding: 8722 8722 417
Width: 637
Flags: W
LayerCount: 2
UndoRedoHistory
Layer: 1
Undoes
EndUndoes
Redoes
EndRedoes
EndUndoRedoHistory
Fore
SplineSet
60 741 m 1,0,-1
 576 741 l 1,1,-1
 576 509 l 1,2,-1
 60 509 l 1,3,-1
 60 741 l 1,0,-1
EndSplineSet
EndChar

StartChar: uni2215
Encoding: 8725 8725 418
Width: 829
Flags: W
LayerCount: 2
UndoRedoHistory
Layer: 1
Undoes
EndUndoes
Redoes
EndRedoes
EndUndoRedoHistory
Fore
SplineSet
531 1768 m 1,0,-1
 709 1768 l 1,1,-1
 253 0 l 1,2,-1
 76 0 l 1,3,-1
 531 1768 l 1,0,-1
EndSplineSet
EndChar

StartChar: radical
Encoding: 8730 8730 419
Width: 1083
Flags: W
LayerCount: 2
UndoRedoHistory
Layer: 1
Undoes
EndUndoes
Redoes
EndRedoes
EndUndoRedoHistory
Fore
SplineSet
646 1760 m 1,0,-1
 1049 1760 l 1,1,-1
 1049 1619 l 1,2,-1
 832 1619 l 1,3,-1
 529 0 l 1,4,-1
 318 0 l 1,5,-1
 66 741 l 1,6,-1
 265 741 l 1,7,-1
 393 258 l 1,8,-1
 646 1760 l 1,0,-1
EndSplineSet
EndChar

StartChar: infinity
Encoding: 8734 8734 420
Width: 1300
Flags: W
LayerCount: 2
UndoRedoHistory
Layer: 1
Undoes
EndUndoes
Redoes
EndRedoes
EndUndoRedoHistory
Fore
SplineSet
1031 740 m 128,-1,1
 1031 806 1031 806 998 846 c 128,-1,2
 965 886 965 886 909 886 c 128,-1,3
 853 886 853 886 791 846 c 128,-1,4
 729 806 729 806 686 740 c 1,5,6
 726 674 726 674 788 634 c 128,-1,7
 850 594 850 594 908 594 c 128,-1,8
 966 594 966 594 998.5 634 c 128,-1,0
 1031 674 1031 674 1031 740 c 128,-1,1
588 740 m 1,9,10
 547 805 547 805 488.5 844.5 c 128,-1,11
 430 884 430 884 376 884 c 128,-1,12
 322 884 322 884 292 845 c 0,13,14
 262 806 262 806 261.5 740 c 128,-1,15
 261 674 261 674 292 634 c 128,-1,16
 323 594 323 594 376 594 c 128,-1,17
 429 594 429 594 487.5 634 c 128,-1,18
 546 674 546 674 588 740 c 1,9,10
639 885 m 1,19,20
 696 955 696 955 771 998 c 128,-1,21
 846 1041 846 1041 912 1041 c 0,22,23
 1033 1041 1033 1041 1107.5 959.5 c 128,-1,24
 1182 878 1182 878 1182 742 c 128,-1,25
 1182 606 1182 606 1108 522.5 c 128,-1,26
 1034 439 1034 439 912 439 c 0,27,28
 841 439 841 439 766 479 c 128,-1,29
 691 519 691 519 639 585 c 1,30,31
 586 525 586 525 512 488.5 c 128,-1,32
 438 452 438 452 370 452 c 0,33,34
 252 452 252 452 180 532 c 0,35,36
 108 612 108 612 108 742 c 128,-1,37
 108 872 108 872 180 950 c 128,-1,38
 252 1028 252 1028 370 1028 c 0,39,40
 433 1028 433 1028 507 988.5 c 128,-1,41
 581 949 581 949 639 885 c 1,19,20
EndSplineSet
EndChar

StartChar: integral
Encoding: 8747 8747 421
Width: 767
Flags: W
LayerCount: 2
UndoRedoHistory
Layer: 1
Undoes
EndUndoes
Redoes
EndRedoes
EndUndoRedoHistory
Fore
SplineSet
115 157 m 1,0,-1
 167 154 l 1,1,2
 243 154 243 154 264.5 183.5 c 128,-1,3
 286 213 286 213 286 305 c 2,4,-1
 286 1539 l 2,5,6
 286 1785 286 1785 483 1785 c 0,7,8
 564 1785 564 1785 652 1752 c 1,9,-1
 652 1603 l 1,10,11
 589 1622 589 1622 551.5 1622 c 128,-1,12
 514 1622 514 1622 497 1594 c 128,-1,13
 480 1566 480 1566 480 1503 c 2,14,-1
 480 221 l 2,15,16
 480 -15 480 -15 270 -15 c 0,17,18
 198 -15 198 -15 115 8 c 1,19,-1
 115 157 l 1,0,-1
EndSplineSet
EndChar

StartChar: approxequal
Encoding: 8776 8776 422
Width: 1117
Flags: W
LayerCount: 2
UndoRedoHistory
Layer: 1
Undoes
EndUndoes
Redoes
EndRedoes
EndUndoRedoHistory
Fore
SplineSet
561 660 m 0,0,1
 711 617 711 617 741 617 c 0,2,3
 742 618 742 618 743 618 c 0,4,5
 770 620 770 620 795.5 648.5 c 128,-1,6
 821 677 821 677 837 731 c 1,7,-1
 1001 689 l 1,8,9
 972 575 972 575 910 488.5 c 128,-1,10
 848 402 848 402 781 402 c 128,-1,11
 714 402 714 402 564.5 448 c 128,-1,12
 415 494 415 494 361.5 494 c 128,-1,13
 308 494 308 494 268 401 c 1,14,-1
 119 479 l 1,15,16
 198 704 198 704 349 704 c 0,17,18
 406 704 406 704 561 660 c 0,0,1
561 1106 m 0,19,20
 711 1063 711 1063 741 1063 c 0,21,22
 742 1064 742 1064 743 1064 c 0,23,24
 770 1066 770 1066 795.5 1094.5 c 128,-1,25
 821 1123 821 1123 837 1177 c 1,26,-1
 1001 1135 l 1,27,28
 972 1021 972 1021 910 934.5 c 128,-1,29
 848 848 848 848 781 848 c 128,-1,30
 714 848 714 848 564.5 894 c 128,-1,31
 415 940 415 940 361.5 940 c 128,-1,32
 308 940 308 940 268 847 c 1,33,-1
 119 925 l 1,34,35
 198 1150 198 1150 349 1150 c 0,36,37
 406 1150 406 1150 561 1106 c 0,19,20
EndSplineSet
EndChar

StartChar: lessequal
Encoding: 8804 8804 424
Width: 781
Flags: W
LayerCount: 2
UndoRedoHistory
Layer: 1
Undoes
EndUndoes
Redoes
EndRedoes
EndUndoRedoHistory
Fore
SplineSet
102 144 m 1,0,-1
 642 144 l 1,1,-1
 642 0 l 1,2,-1
 102 0 l 1,3,-1
 102 144 l 1,0,-1
70 878 m 1,4,-1
 647 1259 l 1,5,-1
 647 1039 l 1,6,-1
 213 774 l 1,7,-1
 647 496 l 1,8,-1
 647 282 l 1,9,-1
 70 667 l 1,10,-1
 70 878 l 1,4,-1
EndSplineSet
EndChar

StartChar: greaterequal
Encoding: 8805 8805 425
Width: 781
Flags: W
LayerCount: 2
UndoRedoHistory
Layer: 1
Undoes
EndUndoes
Redoes
EndRedoes
EndUndoRedoHistory
Fore
SplineSet
105 144 m 1,0,-1
 645 144 l 1,1,-1
 645 0 l 1,2,-1
 105 0 l 1,3,-1
 105 144 l 1,0,-1
103 1039 m 1,4,-1
 103 1259 l 1,5,-1
 680 878 l 1,6,-1
 680 667 l 1,7,-1
 103 282 l 1,8,-1
 103 496 l 1,9,-1
 536 774 l 1,10,-1
 103 1039 l 1,4,-1
EndSplineSet
EndChar

StartChar: lozenge
Encoding: 9674 9674 426
Width: 921
Flags: W
LayerCount: 2
UndoRedoHistory
Layer: 1
Undoes
EndUndoes
Redoes
EndRedoes
EndUndoRedoHistory
Fore
SplineSet
649 883 m 1,0,-1
 475 1571 l 1,1,-1
 443 1571 l 1,2,-1
 269 883 l 1,3,-1
 443 179 l 1,4,-1
 475 179 l 1,5,-1
 649 883 l 1,0,-1
327 1760 m 1,6,-1
 588 1760 l 1,7,-1
 847 883 l 1,8,-1
 588 0 l 1,9,-1
 327 0 l 1,10,-1
 74 883 l 1,11,-1
 327 1760 l 1,6,-1
EndSplineSet
EndChar

StartChar: uniFB00
Encoding: 64256 64256 428
Width: 1246
Flags: W
LayerCount: 2
UndoRedoHistory
Layer: 1
Undoes
EndUndoes
Redoes
EndRedoes
EndUndoRedoHistory
Fore
SplineSet
823 1515 m 2,0,1
 823 1786 823 1786 1055 1786 c 0,2,3
 1141 1786 1141 1786 1204 1765 c 1,4,-1
 1204 1622 l 1,5,6
 1164 1628 1164 1628 1117 1628 c 128,-1,7
 1070 1628 1070 1628 1049 1602.5 c 128,-1,8
 1028 1577 1028 1577 1028 1523 c 2,9,-1
 1028 1442 l 1,10,-1
 1204 1442 l 1,11,-1
 1204 1291 l 1,12,-1
 1028 1291 l 1,13,-1
 1028 0 l 1,14,-1
 823 0 l 1,15,-1
 823 1291 l 1,16,-1
 405 1291 l 1,17,-1
 405 0 l 1,18,-1
 200 0 l 1,19,-1
 200 1291 l 1,20,-1
 71 1291 l 1,21,-1
 71 1442 l 1,22,-1
 200 1442 l 1,23,-1
 200 1515 l 2,24,25
 200 1786 200 1786 432 1786 c 0,26,27
 518 1786 518 1786 581 1765 c 1,28,-1
 581 1622 l 1,29,30
 541 1628 541 1628 494 1628 c 128,-1,31
 447 1628 447 1628 426 1602.5 c 128,-1,32
 405 1577 405 1577 405 1523 c 2,33,-1
 405 1442 l 1,34,-1
 823 1442 l 1,35,-1
 823 1515 l 2,0,1
EndSplineSet
EndChar

StartChar: uniFB01
Encoding: 64257 64257 429
Width: 1126
Flags: W
LayerCount: 2
UndoRedoHistory
Layer: 1
Undoes
EndUndoes
Redoes
EndRedoes
EndUndoRedoHistory
Fore
SplineSet
773 1800 m 1,0,-1
 978 1800 l 1,1,-1
 978 1611 l 1,2,-1
 773 1611 l 1,3,-1
 773 1800 l 1,0,-1
200 1535 m 2,4,5
 200 1806 200 1806 432 1806 c 0,6,7
 518 1806 518 1806 581 1785 c 1,8,-1
 581 1642 l 1,9,10
 541 1648 541 1648 494 1648 c 128,-1,11
 447 1648 447 1648 426 1622.5 c 128,-1,12
 405 1597 405 1597 405 1543 c 2,13,-1
 405 1500 l 1,14,-1
 978 1500 l 1,15,-1
 978 0 l 1,16,-1
 773 0 l 1,17,-1
 773 1349 l 1,18,-1
 405 1349 l 1,19,-1
 405 0 l 1,20,-1
 200 0 l 1,21,-1
 200 1349 l 1,22,-1
 71 1349 l 1,23,-1
 71 1500 l 1,24,-1
 200 1500 l 1,25,-1
 200 1535 l 2,4,5
EndSplineSet
EndChar

StartChar: uniFB02
Encoding: 64258 64258 430
Width: 1124
Flags: W
LayerCount: 2
UndoRedoHistory
Layer: 1
Undoes
EndUndoes
Redoes
EndRedoes
EndUndoRedoHistory
Fore
SplineSet
200 1515 m 2,0,1
 200 1658 200 1658 294 1727 c 128,-1,2
 388 1796 388 1796 543 1796 c 0,3,4
 607 1796 607 1796 681.5 1784 c 128,-1,5
 756 1772 756 1772 976 1725 c 1,6,-1
 976 0 l 1,7,-1
 771 0 l 1,8,-1
 771 1622 l 1,9,10
 675 1642 675 1642 594 1642 c 0,11,12
 405 1642 405 1642 405 1523 c 2,13,-1
 405 1442 l 1,14,-1
 581 1442 l 1,15,-1
 581 1291 l 1,16,-1
 405 1291 l 1,17,-1
 405 0 l 1,18,-1
 200 0 l 1,19,-1
 200 1291 l 1,20,-1
 71 1291 l 1,21,-1
 71 1442 l 1,22,-1
 200 1442 l 1,23,-1
 200 1515 l 2,0,1
EndSplineSet
EndChar

StartChar: uniFB03
Encoding: 64259 64259 431
Width: 1749
Flags: W
LayerCount: 2
UndoRedoHistory
Layer: 1
Undoes
EndUndoes
Redoes
EndRedoes
EndUndoRedoHistory
Fore
SplineSet
1396 1800 m 1,0,-1
 1601 1800 l 1,1,-1
 1601 1611 l 1,2,-1
 1396 1611 l 1,3,-1
 1396 1800 l 1,0,-1
823 1547 m 2,4,5
 823 1818 823 1818 1055 1818 c 0,6,7
 1141 1818 1141 1818 1204 1797 c 1,8,-1
 1204 1654 l 1,9,10
 1164 1660 1164 1660 1117 1660 c 128,-1,11
 1070 1660 1070 1660 1049 1634.5 c 128,-1,12
 1028 1609 1028 1609 1028 1555 c 2,13,-1
 1028 1500 l 1,14,-1
 1601 1500 l 1,15,-1
 1601 0 l 1,16,-1
 1396 0 l 1,17,-1
 1396 1349 l 1,18,-1
 1028 1349 l 1,19,-1
 1028 0 l 1,20,-1
 823 0 l 1,21,-1
 823 1349 l 1,22,-1
 405 1349 l 1,23,-1
 405 0 l 1,24,-1
 200 0 l 1,25,-1
 200 1349 l 1,26,-1
 71 1349 l 1,27,-1
 71 1500 l 1,28,-1
 200 1500 l 1,29,-1
 200 1547 l 2,30,31
 200 1818 200 1818 432 1818 c 0,32,33
 518 1818 518 1818 581 1797 c 1,34,-1
 581 1654 l 1,35,36
 541 1660 541 1660 494 1660 c 128,-1,37
 447 1660 447 1660 426 1634.5 c 128,-1,38
 405 1609 405 1609 405 1555 c 2,39,-1
 405 1500 l 1,40,-1
 823 1500 l 1,41,-1
 823 1547 l 2,4,5
EndSplineSet
EndChar

StartChar: uniFB04
Encoding: 64260 64260 432
Width: 1747
Flags: W
LayerCount: 2
UndoRedoHistory
Layer: 1
Undoes
EndUndoes
Redoes
EndRedoes
EndUndoRedoHistory
Fore
SplineSet
823 1515 m 2,0,1
 823 1658 823 1658 917 1727 c 128,-1,2
 1011 1796 1011 1796 1166 1796 c 0,3,4
 1230 1796 1230 1796 1304.5 1784 c 128,-1,5
 1379 1772 1379 1772 1599 1725 c 1,6,-1
 1599 0 l 1,7,-1
 1394 0 l 1,8,-1
 1394 1622 l 1,9,10
 1298 1642 1298 1642 1217 1642 c 0,11,12
 1028 1642 1028 1642 1028 1523 c 2,13,-1
 1028 1442 l 1,14,-1
 1204 1442 l 1,15,-1
 1204 1291 l 1,16,-1
 1028 1291 l 1,17,-1
 1028 0 l 1,18,-1
 823 0 l 1,19,-1
 823 1291 l 1,20,-1
 405 1291 l 1,21,-1
 405 0 l 1,22,-1
 200 0 l 1,23,-1
 200 1291 l 1,24,-1
 71 1291 l 1,25,-1
 71 1442 l 1,26,-1
 200 1442 l 1,27,-1
 200 1515 l 2,28,29
 200 1786 200 1786 432 1786 c 0,30,31
 518 1786 518 1786 581 1765 c 1,32,-1
 581 1622 l 1,33,34
 541 1628 541 1628 494 1628 c 128,-1,35
 447 1628 447 1628 426 1602.5 c 128,-1,36
 405 1577 405 1577 405 1523 c 2,37,-1
 405 1442 l 1,38,-1
 823 1442 l 1,39,-1
 823 1515 l 2,0,1
EndSplineSet
EndChar
